<svg width="26" height="26" viewBox="0 0 26 26" fill="none" xmlns="http://www.w3.org/2000/svg">
<g clip-path="url(#clip0_2070_1706)">
<path d="M24.7684 10.376C24.5764 10.176 24.2884 10.104 24.0244 10.16L17.0404 11.776C16.7604 11.84 16.5284 12.056 16.4484 12.336C16.3684 12.616 16.4484 12.92 16.6484 13.12L17.6964 14.168L13.2964 18.568L12.6324 17.032C12.3364 16.344 11.7284 15.848 11.0004 15.696C10.2644 15.544 9.5124 15.76 8.9684 16.272L2.8564 22.032C2.7044 22.176 2.6084 22.376 2.6084 22.592C2.6084 22.808 2.6804 23.008 2.8244 23.168L3.8884 24.296C4.3364 24.776 4.9444 25.016 5.5524 25.016C6.1124 25.016 6.6804 24.808 7.1204 24.392L9.7044 21.96L10.4084 23.6C10.7124 24.296 11.3364 24.8 12.0804 24.944C12.8244 25.088 13.5924 24.856 14.1284 24.312L20.9844 17.456L22.0324 18.504C22.2404 18.712 22.5364 18.792 22.8164 18.704C23.0964 18.624 23.3124 18.4 23.3764 18.112L24.9844 11.128C25.0484 10.856 24.9684 10.576 24.7684 10.384V10.376ZM22.1364 16.344L21.5444 15.752C21.2324 15.44 20.7284 15.44 20.4164 15.752L12.9924 23.176C12.8244 23.336 12.6004 23.408 12.3764 23.368C12.1524 23.328 11.9684 23.176 11.8724 22.968L10.7204 20.28C10.6164 20.04 10.4004 19.864 10.1524 19.816C9.8964 19.76 9.6324 19.84 9.4404 20.016L6.0244 23.232C5.7524 23.488 5.3124 23.48 5.0564 23.2L4.5364 22.648L10.0724 17.44C10.2404 17.28 10.4644 17.224 10.6804 17.264C10.9044 17.312 11.0804 17.456 11.1684 17.664L12.2964 20.288C12.4004 20.528 12.6164 20.704 12.8804 20.76C13.1444 20.816 13.4084 20.728 13.6004 20.544L19.4004 14.744C19.7124 14.432 19.7124 13.928 19.4004 13.616L18.8084 13.024L23.1444 12.024L22.1444 16.36L22.1364 16.344Z" fill="#26A9E0"/>
<path d="M7 13C7.776 13 8.512 12.848 9.184 12.584L11.296 14.696C11.76 15.16 12.376 15.4 12.992 15.4C13.608 15.4 14.224 15.168 14.688 14.696C15.144 14.24 15.392 13.64 15.392 13C15.392 12.36 15.144 11.76 14.688 11.304L12.576 9.19203C12.84 8.51203 12.992 7.77603 12.992 7.00803C12.992 3.69603 10.304 1.00803 6.992 1.00803C3.68 1.00803 1 3.68803 1 7.00003C1 10.312 3.688 13 7 13ZM13.568 12.432C13.72 12.584 13.8 12.784 13.8 13C13.8 13.216 13.72 13.416 13.568 13.568C13.256 13.88 12.752 13.88 12.44 13.568L10.64 11.768C11.064 11.44 11.448 11.064 11.768 10.64L13.568 12.44V12.432ZM7 2.60003C9.424 2.60003 11.4 4.57603 11.4 7.00003C11.4 9.42403 9.424 11.4 7 11.4C4.576 11.4 2.6 9.42403 2.6 7.00003C2.6 4.57603 4.576 2.60003 7 2.60003Z" fill="#26A9E0"/>
<path d="M5.74352 8.97613C5.90352 9.13613 6.10352 9.20813 6.31152 9.20813C6.51952 9.20813 6.71952 9.12813 6.87952 8.97613L9.70352 6.15213C10.0155 5.84013 10.0155 5.33613 9.70352 5.02413C9.39152 4.71213 8.88752 4.71213 8.57552 5.02413L6.31152 7.28813L5.42352 6.40013C5.11152 6.08813 4.60752 6.08813 4.29552 6.40013C3.98352 6.71213 3.98352 7.21613 4.29552 7.52813L5.74352 8.97613Z" fill="#26A9E0"/>
</g>
<defs>
<clipPath id="clip0_2070_1706">
<rect width="25.6" height="25.6" fill="white" transform="translate(0.200195 0.200012)"/>
</clipPath>
</defs>
</svg>
