<svg width="28" height="28" viewBox="0 0 28 28" fill="none" xmlns="http://www.w3.org/2000/svg">
<path d="M25.6034 20.2222L27.284 15.1734C27.3729 14.8978 27.3284 14.6045 27.1595 14.3734C26.9906 14.1422 26.7238 14 26.4393 14H20.215V11.7778C20.215 9.57335 18.4189 7.7778 16.2138 7.7778H7.12641V6.76447C8.01558 6.47113 8.65578 5.64447 8.65578 4.66669V2.88891C8.65578 1.66224 7.65991 0.666687 6.43285 0.666687H2.88504C1.65798 0.666687 0.662109 1.66224 0.662109 2.88891V4.66669C0.662109 5.65335 1.31121 6.48002 2.19149 6.76447V26.4445C2.19149 26.9334 2.59162 27.3334 3.08066 27.3334H6.23723C6.72628 27.3334 7.12641 26.9334 7.12641 26.4445V20.2222H11.7679V22.4445C11.7679 24.6489 13.564 26.4445 15.7692 26.4445H26.4393C26.7238 26.4445 26.9906 26.3111 27.1595 26.0711C27.3284 25.84 27.3729 25.5378 27.284 25.2711L25.6034 20.2222ZM2.44046 2.88891C2.44046 2.64002 2.63608 2.44446 2.88504 2.44446H6.44174C6.69071 2.44446 6.88633 2.64002 6.88633 2.88891V4.66669C6.88633 4.91558 6.69071 5.11113 6.44174 5.11113H2.88504C2.63608 5.11113 2.44046 4.91558 2.44046 4.66669V2.88891ZM5.35695 25.5556H3.97873V6.88891H5.35695V25.5556ZM7.1353 9.55558H16.2227C17.4497 9.55558 18.4456 10.5511 18.4456 11.7778V19.12C17.8054 18.6934 17.0407 18.4445 16.2227 18.4445H7.1353V9.55558ZM15.7781 24.6667C14.551 24.6667 13.5551 23.6711 13.5551 22.4445V20.2222H16.2227C17.4497 20.2222 18.4456 21.2178 18.4456 22.4445C18.4456 23.6711 17.4497 24.6667 16.2227 24.6667H15.7781ZM23.8251 20.5067L25.2122 24.6667H19.5482C19.975 24.0267 20.2239 23.2622 20.2239 22.4445V15.7778H25.2122L23.8251 19.9378C23.7629 20.1245 23.7629 20.32 23.8251 20.4978V20.5067Z" fill="#26A9E0"/>
</svg>
