<svg width="193" height="92" viewBox="0 0 193 92" fill="none" xmlns="http://www.w3.org/2000/svg">
<path d="M0 74.0088H4.44613L7.59763 86.5429H7.63686L11.403 74.0088H15.6203L19.3864 86.5429H19.4256L22.5771 74.0088H27.0167L22.211 91.061H16.9868L13.528 79.8018H13.4887L10.0299 91.061H4.80574L0 74.0088Z" fill="#26A9E0"/>
<path d="M28.7041 74.0088H44.9128V77.9645H33.2483V80.6976H44.2982V84.2283H33.2483V86.9614H45.1809V91.061H28.7041V74.0088Z" fill="#26A9E0"/>
<path d="M47.9265 74.0088H61.0033C64.6256 74.0088 66.3844 75.1399 66.3844 78.4876C66.3844 81.4103 65.4625 81.9726 64.194 82.3976V82.4695C66.1817 82.7506 66.914 83.9799 66.914 86.5429C66.914 90.2894 64.9917 91.0675 62.3894 91.0675H47.9199V74.0088H47.9265ZM52.4707 80.7695H60.5129C61.3498 80.7695 61.8402 80.4164 61.8402 79.4488C61.8402 78.4615 61.3498 78.1084 60.5129 78.1084H52.4707V80.7695ZM52.4707 86.9614H60.6175C61.5983 86.9614 62.2521 86.6998 62.2521 85.706C62.2521 84.5552 61.5983 84.2937 60.6175 84.2937H52.4707V86.9614Z" fill="#26A9E0"/>
<path d="M69.3984 85.4768H73.9426C73.9688 87.288 74.5965 87.4318 75.9107 87.4318H81.4749C82.436 87.4318 83.4168 87.3141 83.4168 85.9934C83.4168 84.5091 82.8872 84.4176 77.0288 84.4176C70.1961 84.4176 69.4181 83.4761 69.4181 79.285C69.4181 76.1988 69.66 73.8188 75.3942 73.8188H81.7364C86.9737 73.8188 87.4706 75.8654 87.4706 78.86V79.4027H82.9264C82.9264 78.1538 82.8022 77.6373 80.7164 77.6373H75.6818C74.6619 77.6373 73.9622 78.0427 73.9622 78.9581C73.9622 80.4423 74.518 80.488 79.3891 80.4619C86.4506 80.4423 88.0852 80.9326 88.0852 85.9018C88.0852 90.4918 86.7383 91.2503 80.6968 91.2503H75.1915C71.0592 91.2503 69.3984 90.3545 69.3984 86.6603V85.4768Z" fill="white"/>
<path d="M96.1935 85.1238L87.9878 74.002H93.4735L98.4689 80.9719L103.464 74.002H108.95L100.738 85.1238V91.0607H96.1935V85.1238Z" fill="white"/>
<path d="M109.061 85.4768H113.605C113.625 87.288 114.259 87.4318 115.566 87.4318H121.137C122.098 87.4318 123.079 87.3141 123.079 85.9934C123.079 84.5091 122.543 84.4176 116.691 84.4176C109.852 84.4176 109.074 83.4761 109.074 79.285C109.074 76.1988 109.322 73.8188 115.05 73.8188H121.392C126.629 73.8188 127.126 75.8654 127.126 78.86V79.4027H122.582C122.582 78.1538 122.464 77.6373 120.372 77.6373H115.338C114.311 77.6373 113.618 78.0427 113.618 78.9581C113.618 80.4423 114.167 80.488 119.045 80.4619C126.106 80.4423 127.741 80.9326 127.741 85.9018C127.741 90.4918 126.394 91.2503 120.353 91.2503H114.847C110.708 91.2503 109.054 90.3545 109.054 86.6603V85.4768H109.061Z" fill="white"/>
<path d="M129.396 74.0088H146.716V78.2522H140.328V91.0675H135.784V78.2522H129.396V74.0088Z" fill="white"/>
<path d="M149.304 74.0088H165.513V77.9645H153.848V80.6976H164.898V84.2283H153.848V86.9614H165.781V91.061H149.304V74.0088Z" fill="white"/>
<path d="M168.495 74.0088H175.478L180.611 84.9868L185.75 74.0088H192.733V91.061H188.313V78.8145H188.274L182.317 91.061H178.917L172.961 78.8145H172.922V91.061H168.502V74.0088H168.495Z" fill="white"/>
<path d="M64.9662 17.0782C64.8682 17.1959 64.7766 17.307 64.7766 17.307L64.9466 17.4509L65.2604 17.3528L64.8878 17.8432L64.7243 17.7647L64.247 17.902L64.3581 17.6209L64.332 17.6143C64.5412 17.4378 64.7505 17.2547 64.9662 17.0782ZM69.955 14.2274L69.5889 14.2536C69.4385 14.319 69.2816 14.3909 69.1312 14.4628L69.955 14.2274ZM78.978 12.5798C79.0042 12.5732 79.0434 12.5667 79.0827 12.5667C78.8538 12.5536 78.625 12.5471 78.3896 12.5405C78.455 12.5994 78.5334 12.6648 78.5727 12.6909C78.625 12.6909 78.8669 12.6059 78.978 12.5798ZM63.4885 18.4839L63.567 18.327C63.5016 18.3924 63.4297 18.4578 63.3643 18.5232L63.4885 18.4839ZM90.6687 17.2874L90.4857 17.222L90.8583 17.8432L91.1526 17.817L90.8976 17.5163C90.8976 17.5163 91.1395 17.5359 91.2245 17.5816C91.0545 17.4313 90.8845 17.2874 90.7145 17.1436C90.4987 17.0913 90.2503 17.0128 90.2503 17.0128L90.6687 17.2874ZM98.1814 32.9012C98.1814 44.1603 89.0407 53.2749 77.8011 53.2749C66.5485 53.2749 57.4209 44.1603 57.4209 32.9012C57.4209 30.9331 57.7086 29.037 58.2251 27.2389C58.2251 27.2912 58.2317 27.337 58.2382 27.3762C58.2513 27.507 58.552 27.945 58.5978 28.0758C58.6436 28.3046 58.4867 28.8016 58.4997 29.037C58.5128 29.0958 58.5455 29.22 58.5455 29.2723C58.5455 29.3573 58.4867 29.5012 58.4867 29.56C58.4932 29.6516 58.6174 29.8935 58.6174 29.8935L58.5978 30.1746L58.6894 30.6781C58.6894 30.6781 58.7744 30.6127 58.7744 30.5735C58.7874 30.4819 58.7024 30.3773 58.6828 30.2858C58.6632 30.1943 58.7351 29.9981 58.7351 29.8935C58.7351 29.7889 58.6436 29.6058 58.6436 29.5012C58.637 29.4162 58.6174 29.0631 58.6632 29.135C58.7417 29.2527 58.7613 29.3966 58.7613 29.3966C58.7613 29.3966 58.8528 29.6319 58.8659 29.7104C58.8855 29.8019 58.8397 30.0373 58.8528 30.1419C58.8659 30.2269 58.9313 30.5081 58.9705 30.6258C59.0032 30.7173 59.1078 30.9396 59.134 31.0442C59.1536 31.1881 59.062 31.4954 59.0817 31.6392C59.1144 31.7961 59.317 32.0773 59.4217 32.2015C59.5393 32.3388 59.7682 32.6135 59.9316 32.6331C60.0101 32.6396 60.1409 32.4827 60.2193 32.5023C60.3109 32.5154 60.4547 32.79 60.4547 32.79L60.6378 33.2085C60.6378 33.2085 60.8666 33.215 60.919 33.2411C61.0301 33.2542 61.1412 33.3654 61.2132 33.4373C61.2982 33.5419 61.4355 33.6988 61.4551 33.8231C61.4747 33.9342 61.4289 34.1827 61.4551 34.2611C61.4682 34.3396 61.5793 34.4704 61.6447 34.5161C61.6905 34.5554 61.769 34.6011 61.8016 34.6469C61.8343 34.6927 61.8082 34.8038 61.8343 34.8561C61.8801 34.9477 62.0959 35.0261 62.1743 35.0915C62.2201 35.1373 62.3247 35.2615 62.3247 35.2615L62.4359 35.1373C62.4359 35.1373 62.3966 35.0131 62.4162 34.9477C62.4162 34.9019 62.5209 34.8038 62.5732 34.7842C62.6255 34.7842 62.7105 34.8692 62.7366 34.915C62.7824 34.9934 62.8282 35.1831 62.8478 35.2811C62.8935 35.5034 62.9786 35.6407 62.9851 35.8696C62.9982 36.033 62.8412 36.5627 62.8412 36.5627C62.8412 36.5627 62.8085 36.9288 62.7693 37.0465C62.7366 37.138 62.5928 37.3015 62.5536 37.393C62.5274 37.465 62.4947 37.635 62.4882 37.7134C62.4686 37.8376 62.4097 38.0861 62.4555 38.1907C62.4816 38.243 62.5339 38.328 62.5339 38.3803C62.5339 38.4523 62.4293 38.4588 62.4162 38.5242C62.3966 38.6027 62.5274 38.7661 62.5143 38.8446C62.5143 38.8903 62.4293 39.008 62.4293 39.008C62.4293 39.008 62.7889 39.6423 62.887 39.8646C63.0374 40.2438 63.0505 40.8519 63.2466 41.1853C63.3905 41.4665 63.8285 41.983 63.992 42.1661C64.162 42.3557 64.3778 42.663 64.5085 42.8134C64.6197 42.9311 64.8681 43.1469 64.9335 43.2842C65.0447 43.5588 65.0381 44.1734 65.1428 44.448C65.1689 44.5068 65.2474 44.6311 65.2735 44.6899C65.2735 44.7618 65.2081 44.9122 65.2147 44.9841C65.2278 45.0561 65.3455 45.2784 65.3455 45.2784C65.3455 45.2784 65.2932 46.0237 65.3978 46.2526C65.437 46.3572 65.6201 46.5141 65.6397 46.6187C65.6593 46.7233 65.5612 46.9391 65.5939 47.0307C65.6331 47.1483 65.7704 47.2203 65.8162 47.2857C65.862 47.3445 65.862 47.5145 65.8816 47.5799C65.9208 47.6714 65.9928 47.8676 66.0516 47.9395C66.117 48.0572 66.4178 48.3383 66.4178 48.3383C66.4178 48.3383 67.137 48.881 67.4247 48.9333C67.477 48.9399 67.647 48.9072 67.647 48.9072L67.6143 48.6914L67.8039 48.6391L67.6143 48.5214L67.5554 48.3776L67.9281 48.4364L67.8758 48.2468L68.5035 48.3383L68.7323 48.1291L68.5297 47.8872L68.6604 47.7499L68.8501 47.861L69.1181 47.6191L69.2423 47.2857L69.6412 47.0895L69.6804 46.7691L69.8897 46.6383C69.8897 46.6383 69.857 46.3637 69.87 46.2722C69.8831 46.1545 69.9943 45.8145 69.9943 45.8145L70.7854 45.4157L71.302 45.4745L71.2431 45.2457L71.7008 45.0561L71.57 44.8926L71.7923 44.4741L71.8446 44.1799L71.9819 44.0426L71.7662 43.938C71.7662 43.938 71.8839 43.5261 71.8839 43.4149C71.8969 43.1991 71.9035 42.5192 71.9035 42.5192C71.9035 42.5192 72.3285 42.0353 72.4527 41.8588C72.5573 41.7215 72.845 41.2638 72.845 41.2638L72.7992 39.8711L72.4266 39.943L71.3085 39.0211C71.3085 39.0211 71.0666 39.0865 70.9881 39.0669C70.9293 39.0473 70.8443 38.9296 70.805 38.9034C70.7135 38.8576 70.4258 38.7661 70.4258 38.7661L70.2493 38.4523L69.4843 38.1188L69.1966 37.3211L68.8043 37.1315C68.8043 37.1315 68.68 36.6738 68.595 36.543C68.4577 36.3338 67.8824 35.8696 67.8824 35.8696C67.8824 35.8696 67.6535 35.7454 67.5751 35.765C67.5162 35.7781 67.4574 35.8827 67.3985 35.8827C67.2874 35.9088 67.1108 35.7454 67.0193 35.6538C66.8493 35.4577 66.6924 34.9346 66.5158 34.7515C66.4635 34.7057 66.2478 34.7319 66.2478 34.7319L66.4439 34.49C66.4439 34.49 66.1431 34.49 66.0451 34.49C65.9666 34.49 65.6985 34.32 65.6985 34.32L65.4566 34.5096C65.4566 34.5096 65.2147 34.3985 65.1231 34.3919C65.0316 34.3854 64.757 34.4246 64.757 34.4246C64.757 34.4246 64.8224 34.1565 64.7701 34.0846C64.7374 34.0454 64.6001 34.065 64.5543 34.0258C64.4889 33.98 64.4628 33.7119 64.4628 33.7119C64.4628 33.7119 64.3647 33.7577 64.3516 33.7904C64.3189 33.8558 64.3647 34.0781 64.3647 34.0781L64.2993 34.0911L64.2274 33.6596C64.2274 33.6596 64.0378 33.8231 63.9593 33.8688C63.8874 33.9211 63.6389 34.0519 63.6389 34.0519C63.6389 34.0519 63.4166 34.2088 63.3578 34.2742C63.3055 34.3723 63.2728 34.5619 63.2401 34.6469C63.2074 34.7254 63.0505 34.9542 63.0505 34.9542C63.0505 34.9542 62.887 34.6469 62.7824 34.5684C62.7236 34.5292 62.5862 34.5292 62.5339 34.5619C62.4555 34.5946 62.3574 34.7908 62.2659 34.7842C62.122 34.7711 61.9847 34.4508 61.9324 34.3265C61.8932 34.235 61.8539 34.0454 61.9062 33.9146C61.9128 33.8231 62.0435 33.7054 62.0305 33.5681C62.0239 33.4765 61.8997 33.3327 61.9128 33.2215C61.9324 33.1365 62.122 32.9535 62.122 32.9535L62.1286 32.7311C62.1286 32.7311 61.9847 32.7508 61.9389 32.7311C61.8932 32.7115 61.8605 32.5546 61.8082 32.535C61.7297 32.5023 61.4943 32.6004 61.4943 32.6004C61.4943 32.6004 61.187 32.6331 61.1478 32.5546C61.0693 32.4108 61.3113 32.1165 61.3309 31.9596C61.3374 31.8746 61.3243 31.6131 61.3374 31.5215C61.357 31.4104 61.4682 31.3058 61.5009 31.2077C61.5205 31.09 61.5401 30.7696 61.5401 30.7696C61.5401 30.7696 61.3309 30.7304 61.272 30.7369C61.2132 30.75 61.102 30.835 61.0628 30.8742C60.9843 30.9527 60.9189 31.1685 60.8732 31.2731C60.8405 31.3515 60.762 31.6131 60.762 31.6131C60.762 31.6131 60.5332 31.9269 60.4155 31.9073C60.2651 31.9008 60.0428 31.4169 60.0428 31.4169C60.0428 31.4169 59.9316 30.9004 59.9316 30.7108C59.9316 30.5931 59.9382 30.2073 59.9513 30.0439C59.9643 29.8608 60.0036 29.5143 60.0624 29.3639C60.1213 29.2135 60.3959 28.795 60.3959 28.795C60.3959 28.795 60.7032 28.5269 60.834 28.5139C60.9255 28.5139 61.0955 28.6512 61.187 28.6512C61.259 28.6512 61.4551 28.5858 61.5009 28.5204C61.5205 28.4681 61.4943 28.3569 61.5205 28.3112C61.5924 28.2458 61.8016 28.2 61.8801 28.2C61.9586 28.2131 62.0501 28.2981 62.1089 28.2981C62.1482 28.2981 62.2201 28.2458 62.2593 28.2458C62.3378 28.2458 62.4359 28.3373 62.4751 28.3897C62.4816 28.442 62.4228 28.5793 62.4162 28.6381C62.4162 28.7231 62.4751 28.9977 62.4751 28.9977C62.4751 28.9977 62.4359 29.1546 62.4555 29.207C62.4555 29.2462 62.5209 29.3246 62.5209 29.3704C62.5339 29.4881 62.3966 29.8543 62.3966 29.8543L62.6647 29.8019C62.6647 29.8019 62.7955 29.5796 62.8347 29.4816C62.8674 29.3704 62.887 29.1481 62.9132 29.0173C62.9197 28.8996 62.9328 28.6577 62.9132 28.5466C62.9132 28.4158 62.8216 28.03 62.8216 28.03L63.0505 27.52L63.3185 27.1343C63.3185 27.1343 63.3643 26.8924 63.4362 26.8531C63.4689 26.8466 63.5735 26.912 63.6258 26.8662C63.6651 26.8204 63.6651 26.6962 63.7174 26.6504C63.7435 26.6112 63.8874 26.6243 63.9135 26.5916C63.9528 26.5458 63.9332 26.415 63.9789 26.3824C64.0247 26.3366 64.1293 26.3366 64.1685 26.3039C64.2797 26.1862 64.1685 25.892 64.2274 25.7285C64.2601 25.6435 64.3843 25.5127 64.4235 25.4212C64.4628 25.3297 64.4824 25.1139 64.5282 25.0289C64.5674 24.9701 64.6655 24.8981 64.6982 24.8197C64.7308 24.7543 64.7112 24.6104 64.7505 24.5581C64.8681 24.4078 65.4435 24.2378 65.4435 24.2378L65.6266 24.3031L65.6854 24.1462L65.6724 23.9108L65.5351 24.0678C65.5351 24.0678 65.4958 23.9239 65.522 23.8651C65.5547 23.7604 65.8751 23.4597 66.0124 23.3485C66.1301 23.2504 66.3916 23.0805 66.5289 22.9955C66.6204 22.9366 66.9212 22.7797 66.9212 22.7797L66.6205 23.087L66.6924 23.4008L66.9212 23.2701L67.1304 22.9628L67.5358 22.8712L67.7516 22.6751L67.9477 22.747L68.157 22.7012H67.9477L68.0654 22.2305L67.8954 22.2631L67.7254 22.5312L67.2154 22.6489L67.1697 22.5443L67.3854 22.5639L67.6143 22.4266L67.5228 22.3547L67.307 22.3939L67.2416 22.2631L67.0127 22.492L67.0324 22.3024L67.2154 21.9885L66.9866 22.2108L66.8493 22.0408L67.0324 21.9951L67.2154 21.8578L67.307 21.6289L66.9604 21.7009L66.1628 22.1389L66.6597 21.6616L66.9212 21.472L67.3527 21.2889L67.9935 21.2235L68.4381 21.1712L68.6604 20.7855L69.0724 20.622L69.4385 20.4389L69.3731 20.2428L69.687 19.9616L69.5889 19.942V19.4712H68.9089L68.6735 19.4843L68.5689 19.4059L68.4316 19.0463L68.3335 18.739L68.1766 18.3532L67.7581 18.8174L67.392 19.1443L67.2024 19.0986L67.0324 18.8697L67.2024 18.5689L66.882 18.909L66.8297 18.8109H66.6139L66.2151 18.7455L65.777 18.7651L65.6593 18.9351L65.4501 19.1639L65.6135 19.1247L65.6331 19.3209L65.2932 19.6478L65.5024 19.7066L65.4501 19.9682L65.3847 20.2363L65.1231 20.5174L64.7178 20.8312L64.7635 21.3412L64.6066 21.6943L64.5347 22.0735H64.3451L64.2535 21.4197H64.4235L64.4955 21.1451L64.3647 21.2693V20.962L64.3843 20.7528L64.1293 20.7201L63.9135 20.8966L63.7697 20.7528L63.5343 20.7201L63.2989 20.6416L62.9982 20.7789L62.9655 20.4324L62.7235 20.4978L63.1224 19.9224L63.6651 19.3536L64.0574 18.9155L64.7439 18.242L64.3058 18.7912H64.5608H64.9531H65.2147L65.3716 18.4643L65.3193 18.1374H65.0447L65.2539 17.9282L65.692 17.7124L65.9797 17.6863L65.8489 18.1636L66.4047 18.1374H66.7904L67.1697 18.1897L67.5751 18.2028L68.0131 18.0917L67.9739 17.902L68.1439 17.9282L68.3858 17.8955L68.2812 17.8563L68.3858 17.7647L68.5689 17.6078L68.4577 17.4836H68.242L68.085 17.2286L68.242 17.0978L68.4577 17.1632L68.7977 17.2678L68.8893 17.039L69.0462 17.0847L69.2293 16.9409L69.3273 16.8297H69.1639C69.1639 16.8297 68.8304 16.6074 68.7193 16.5878C68.6474 16.5747 68.4185 16.5878 68.4185 16.5878L68.4643 16.1301C68.4643 16.1301 68.1504 16.202 68.072 16.202C68.0001 16.202 67.7581 16.0974 67.6862 16.0974C67.5685 16.0778 67.405 16.202 67.405 16.202L67.1304 15.9928C67.1304 15.9928 66.7185 16.1105 66.5681 16.1759C66.2804 16.3067 65.5743 16.8428 65.5743 16.8428L65.7181 16.542C65.7181 16.542 65.6397 16.5813 65.5481 16.6336C65.8293 16.4178 66.1104 16.2151 66.4047 16.019L66.4635 15.9928L66.5551 15.9209C67.3724 15.3717 68.2354 14.8878 69.1247 14.4628L68.4708 14.8421L69.0397 14.9794C69.0397 14.9794 69.9354 14.7113 70.2427 14.7178C70.3604 14.7244 70.6154 14.7767 70.707 14.8486C70.792 14.9205 70.8246 15.1232 70.8246 15.1232L71.2889 15.0513L71.4981 15.3194L71.2496 15.6397L71.7073 15.4501L71.7858 15.6594C71.7858 15.6594 71.4981 15.764 71.4131 15.8228C71.2823 15.9013 70.9619 16.2217 70.9619 16.2217C70.9619 16.2217 71.5308 16.784 71.6354 17.0651C71.6877 17.2024 71.6877 17.7974 71.6877 17.7974L72.1912 17.6993L72.5115 17.9282C72.5115 17.9282 72.9627 17.6732 73.0542 17.5751C73.2439 17.379 73.2962 16.9801 73.4662 16.7578C73.6035 16.5813 73.95 16.2674 74.1658 16.1824C74.3031 16.1301 74.6235 16.1955 74.7608 16.1301C75.1988 15.9863 75.8919 15.3063 76.3365 15.169C76.6438 15.0905 77.3042 15.1624 77.6115 15.0774C77.7554 15.0513 78.1673 14.8486 78.1673 14.8486C78.1673 14.8486 77.6834 14.9794 77.6115 14.8486C77.5658 14.7767 77.7031 14.5544 77.7881 14.5282C77.8534 14.5217 78.0234 14.6263 78.0234 14.6263C78.0234 14.6263 78.1934 14.6655 78.2523 14.6655C78.3177 14.6655 78.5138 14.5805 78.5138 14.5805C78.5138 14.5805 78.1934 14.5282 78.2 14.4432C78.2131 14.3647 78.4746 14.4105 78.5138 14.3386C78.5596 14.2994 78.4419 14.1621 78.4811 14.1098C78.5269 14.0378 79.0238 14.1098 79.0238 14.1098L79.3442 13.7044L78.9453 13.4755L79.4554 13.1944L79.2854 12.9394C79.2854 12.9394 79.2984 12.7825 79.3442 12.7301C79.4292 12.6517 79.6777 12.7301 79.6777 12.7301L79.9588 12.5928C83.1103 12.9198 86.0461 13.9659 88.6091 15.5613C88.5307 15.5417 88.4522 15.522 88.3934 15.509C88.2561 15.4632 87.9487 15.3259 87.8376 15.3259C87.7068 15.3259 87.3211 15.4697 87.3211 15.4697L87.1511 15.607L86.4122 15.4894L86.0003 15.7836L86.4122 16.0582L86.0003 16.1955L85.8107 16.4309L85.5361 16.6924L85.2222 16.699L84.4834 17.1174L84.3461 17.4836L84.4834 17.8497L84.7122 18.1047C84.7122 18.1047 85.0588 18.1701 85.1765 18.1505C85.3138 18.1178 85.7322 17.9413 85.7322 17.9413L86.1376 18.4839C86.1376 18.4839 86.373 18.7259 86.3207 18.8109C86.2815 18.8762 86.0068 18.8109 86.0068 18.8109L85.8172 18.9416L85.7322 18.327L85.4249 18.4643C85.4249 18.4643 85.2026 18.4709 85.1765 18.5297C85.0719 18.6932 85.3726 19.0855 85.3007 19.262C85.2941 19.3274 85.0326 19.4451 84.928 19.4582C84.7842 19.4909 84.3134 19.5235 84.3134 19.5235C84.3134 19.5235 84.4049 19.6739 84.3853 19.7328C84.3788 19.8374 84.2153 20.0074 84.1172 20.0532C84.0322 20.1055 83.8296 20.1578 83.7446 20.2101C83.6596 20.2755 83.5222 20.4912 83.4503 20.537C83.3849 20.5893 83.228 20.6547 83.1496 20.6547C83.058 20.6547 82.7703 20.5436 82.7703 20.5436C82.7703 20.5436 82.6919 20.6547 82.6853 20.707C82.6788 20.7397 82.6984 20.877 82.6984 20.877C82.6984 20.877 82.4761 20.792 82.3911 20.7855C82.3126 20.7855 82.0903 20.9358 82.0903 20.9358C82.0903 20.9358 82.1557 21.0666 82.2015 21.0993C82.3126 21.1778 82.6069 21.3478 82.6396 21.4785C82.6723 21.6159 82.8684 21.7335 82.8684 21.7335C82.8684 21.7335 82.7376 22.0016 82.7115 22.0932C82.6919 22.2239 82.7442 22.5704 82.6592 22.6293C82.5742 22.6816 82.2407 22.577 82.2407 22.577L81.5542 22.5116L81.2273 22.3939C81.2273 22.3939 81.0507 22.5312 80.9788 22.5639C80.9134 22.5966 80.6453 22.6489 80.6453 22.6489L80.8219 23.1785C80.8219 23.1785 80.8611 23.4989 80.8284 23.6297C80.7892 23.7604 80.5669 24.1201 80.5669 24.1201L80.7042 24.2835L80.7892 24.8262L81.1423 24.7804L81.43 24.9897C81.43 24.9897 81.8026 24.8458 81.9334 24.8262C82.0642 24.7935 82.3388 24.8131 82.4761 24.7804C82.6003 24.7477 82.8553 24.6497 82.9338 24.5581C82.9926 24.4862 83.0515 24.1854 83.0515 24.1854C83.0515 24.1854 83.0515 23.7278 83.1234 23.6035C83.1953 23.4858 83.4634 23.3747 83.5746 23.2897C83.6595 23.2243 83.8753 23.1066 83.9211 23.0085C83.9603 22.917 83.8492 22.7666 83.8884 22.6685C83.9211 22.6162 84.0649 22.5835 84.1238 22.577C84.2415 22.5639 84.6534 22.6424 84.6534 22.6424L85.0849 22.5182C85.0849 22.5182 85.2288 22.3678 85.2811 22.3547C85.3791 22.3351 85.523 22.4005 85.523 22.4005C85.523 22.4005 85.9022 22.7601 85.9872 22.8908C86.0461 22.9824 86.118 23.2112 86.1834 23.2635C86.2749 23.342 86.5299 23.4205 86.6411 23.4793C86.7457 23.5578 86.8634 23.7735 86.968 23.852C87.0399 23.9305 87.2557 24.022 87.2818 24.1331C87.2949 24.2312 87.0922 24.5451 87.0922 24.5451C87.0922 24.5451 87.1249 24.6628 87.1641 24.6628C87.2491 24.6497 87.4322 24.2901 87.4322 24.2901C87.4322 24.2901 87.5695 24.2312 87.5695 24.1528C87.5695 24.0743 87.3734 23.9305 87.3734 23.9305L87.4388 23.7474L87.7526 23.9631L87.8899 23.8454C87.8899 23.8454 87.6414 23.6231 87.5434 23.5578C87.478 23.512 87.2426 23.4205 87.2426 23.4205C87.2426 23.4205 86.9484 23.2635 86.8699 23.172C86.8111 23.087 86.7588 22.8843 86.6999 22.8058C86.6215 22.7339 86.3926 22.6685 86.3272 22.577C86.2553 22.4855 86.2422 22.0997 86.2422 22.0997L86.6541 22.0474L86.9811 22.492L87.2099 22.8058L87.5761 22.9955L87.7984 23.2243C87.7984 23.2243 88.1645 23.172 88.1645 23.3093C88.1645 23.4531 88.0926 23.8324 88.1122 24.0024C88.1449 24.1201 88.2626 24.3358 88.3476 24.4143C88.4195 24.4927 88.6287 24.5777 88.6941 24.6758C88.7595 24.7674 88.838 25.1335 88.838 25.1335C88.838 25.1335 89.1518 24.8001 89.1584 24.6497C89.1714 24.4601 88.9034 24.1593 88.9361 24.0024C88.9491 23.9174 89.1649 23.7801 89.1649 23.7801C89.1649 23.7801 89.8187 23.8128 89.858 24.0024C89.8776 24.1201 89.5572 24.2704 89.6095 24.4143C89.6357 24.5124 89.8514 24.4078 89.9037 24.5189C89.9691 24.617 90.0868 24.6693 90.0868 24.6693H90.4137C90.4137 24.6693 90.4726 25.1008 90.5445 25.1139C90.6557 25.1335 90.7145 25.1466 90.8191 25.1466C90.9303 25.1466 91.133 25.5716 91.2768 25.5651C91.3683 25.5651 91.5122 25.3558 91.5122 25.3558C91.5122 25.3558 91.6757 25.4931 91.7345 25.4801C91.7868 25.4801 91.8718 25.3493 91.9176 25.382C92.1137 25.4604 92.0549 26.1862 92.0549 26.1862L91.656 27.1931L91.1395 27.18L90.891 27.0689C90.891 27.0689 90.538 27.1866 90.4464 27.1931C90.2372 27.1931 89.9233 26.9839 89.9233 26.9839L89.531 27.0754L89.3676 26.8335C89.3676 26.8335 89.0603 26.8139 89.008 26.7681C88.9295 26.7027 88.9491 26.5 88.8445 26.4347C88.6876 26.3562 88.2037 26.7093 88.2037 26.7093C88.2037 26.7093 88.243 27.1539 88.1384 27.2258C88.0403 27.2912 87.7068 27.0362 87.5695 26.9904C87.4387 26.9708 87.1641 27.0166 87.0987 26.9054C87.0661 26.8204 87.1576 26.6635 87.0987 26.5916C87.0203 26.4608 86.6934 26.3627 86.5626 26.33C86.4384 26.3104 86.0526 26.2516 86.0526 26.2516L85.6603 25.9377C85.6603 25.9377 86.0134 25.6566 86.0134 25.5193C86.0003 25.4147 85.7388 25.2512 85.7388 25.2512C85.7388 25.2512 86.0134 24.957 85.9676 24.8589C85.9022 24.7543 85.4576 24.8785 85.4576 24.8785C85.4576 24.8785 85.013 24.8851 84.8038 24.9243C84.7449 24.9374 84.3526 25.0158 84.3526 25.0158C84.3526 25.0158 83.9538 24.8524 83.8034 24.8524C83.6138 24.8654 83.0646 25.1335 83.0646 25.1335L82.5219 25.5127L81.4626 25.2708C81.4626 25.2708 81.3711 25.6043 81.2927 25.6762C81.2273 25.7808 81.0115 25.892 80.9069 25.9574C80.7826 26.0293 80.5473 26.2189 80.4492 26.3235C80.3315 26.4804 80.24 26.9185 80.2661 27.0754C80.3053 27.265 79.9915 27.7227 79.8084 27.8666C79.6842 27.9646 79.3638 28.0496 79.2657 28.1739C79.2069 28.2523 79.1153 28.5335 79.1153 28.5335L78.8473 28.71C78.8473 28.71 78.3896 29.4489 78.285 29.7104C78.1934 29.9393 78.0627 30.4165 78.0692 30.665C78.0692 30.8808 78.2131 31.3058 78.2457 31.5346C78.285 31.7439 78.2523 32.1688 78.1934 32.3781C78.1411 32.535 77.9123 32.8423 77.9319 33.0058C77.945 33.1104 78.0692 33.3196 78.0692 33.3196C78.0692 33.3196 77.8731 33.8884 77.9319 34.0584C78.0169 34.3004 78.5727 34.4769 78.7492 34.6992C78.893 34.8823 78.8342 35.3792 78.9388 35.5688C79.0434 35.7519 79.4815 35.9219 79.6515 36.0527C79.8477 36.2227 80.1484 36.7131 80.4165 36.7457C80.6323 36.7588 81.005 36.4777 81.2273 36.445C81.4496 36.4253 81.8942 36.6215 82.11 36.5823C82.3192 36.5431 82.6919 36.2227 82.6919 36.2227L83.1888 35.9611C83.1888 35.9611 83.6661 35.7781 83.8034 35.8434C84.0453 35.9611 84.0715 36.6607 84.3134 36.7588C84.4703 36.8307 84.8234 36.5431 84.9803 36.6019C85.1503 36.6804 85.3007 37.2688 85.3007 37.2688C85.3007 37.2688 84.9803 37.988 84.9345 38.2561C84.9215 38.3738 84.8888 38.6484 84.9476 38.7596C85.0784 38.995 85.6145 39.2761 85.6995 39.5246C85.7518 39.6815 85.6211 40.0803 85.6407 40.1653C85.6734 40.3549 85.9088 40.6819 85.9218 40.8649C85.9284 41.0088 85.8303 41.3161 85.8238 41.4076C85.8172 41.5515 85.9676 41.9569 85.9676 41.9569L85.6407 42.4995L85.3857 43.3757C85.3857 43.3757 85.2157 43.853 85.2288 44.023C85.2418 44.2322 85.4968 44.8011 85.4968 44.8011C85.4968 44.8011 85.778 45.3111 85.778 45.4484C85.778 45.5857 85.6799 46.0826 85.6799 46.0826C85.6799 46.0826 85.7126 46.6187 85.778 46.7887C85.8565 47.0045 86.1703 47.3837 86.2488 47.6191C86.2945 47.7564 86.2095 48.3056 86.2814 48.358C86.4188 48.4691 86.9745 48.1618 86.9745 48.1618C86.9745 48.1618 87.7265 47.9787 87.9553 47.8545C88.1384 47.7499 88.6222 47.3314 88.6222 47.3314L89.263 46.6383C89.263 46.6383 89.6291 46.2003 89.7207 46.0499C89.8122 45.8864 89.943 45.5399 90.0476 45.4418C90.1587 45.3241 90.5053 44.9449 90.6033 44.8207C90.7668 44.5591 90.6557 44.1341 90.8256 43.8268C90.9891 43.5326 91.5645 43.2188 91.7868 42.9115C91.9306 42.6892 92.1006 42.1726 92.1595 41.9503C92.2053 41.7542 92.3033 41.1265 92.3033 41.1265C92.3033 41.1265 92.3426 40.453 92.323 40.2896C92.3033 39.9692 92.1922 39.3284 92.2837 39.0146C92.3949 38.6746 92.8722 38.073 93.0749 37.818C93.3429 37.478 93.9052 36.8046 94.1341 36.4384C94.3237 36.1246 94.6179 35.425 94.7225 35.0719C94.8337 34.7254 95.0037 33.6858 95.0037 33.6858L93.6829 34.1173L93.5391 33.6531C93.5391 33.6531 94.2779 33.3131 94.546 33.13C94.8337 32.9404 95.4483 32.3912 95.6837 32.1492C95.9452 31.8877 96.3441 31.43 96.4552 31.0312C96.4945 30.8808 96.6122 30.2662 96.5141 30.1485C96.4552 30.07 96.0302 29.8346 96.0302 29.8346L96.0172 29.1939L95.5595 29.6908L95.056 29.4096V29.1285L94.6833 28.9062L94.6506 28.6316L94.4741 28.3047C94.4741 28.3047 94.6049 27.9581 94.6964 27.9646C94.9056 27.9646 95.0887 28.7035 95.0887 28.7035C95.0887 28.7035 95.2064 28.88 95.2979 28.9454C95.3698 29.0042 95.6706 29.1743 95.6706 29.1743C95.6706 29.1743 95.9125 29.0043 95.9975 29.037C96.0825 29.0762 96.1283 29.4096 96.1283 29.4096L96.6644 29.7431L97.0568 29.6842C97.0568 29.6842 97.3183 29.7431 97.3902 29.8085C97.4621 29.8869 97.5079 30.1419 97.5602 30.2466C97.6191 30.3839 97.8087 30.6192 97.8544 30.7566C97.9198 30.9462 97.946 31.5673 97.946 31.5673C97.9852 30.9854 97.9787 30.41 97.9525 29.8281C98.1029 30.835 98.1814 31.8615 98.1814 32.9012ZM91.2703 26.0358C91.2703 26.0358 91.2964 26.1012 91.3291 26.1012C91.3618 26.1077 91.4403 26.0423 91.4403 26.0423C91.4403 26.0423 91.5122 26.0227 91.5253 26.0162C91.558 26.0031 91.6626 25.9443 91.6626 25.9443C91.6626 25.9443 91.6037 25.9116 91.6037 25.8985C91.5841 25.8527 91.7083 25.7285 91.7083 25.7285C91.7083 25.7285 91.5449 25.8397 91.4926 25.8397C91.4599 25.8397 91.3749 25.8004 91.3749 25.8004C91.3749 25.8004 91.2899 25.8462 91.2833 25.8789C91.2572 25.9181 91.2703 26.0358 91.2703 26.0358ZM89.2041 25.5454L89.2237 25.6566L89.4264 25.6827L89.5637 25.7677L89.7926 25.7743L89.8187 25.7285C89.8187 25.7285 89.7599 25.722 89.7403 25.7154C89.7207 25.7154 89.6749 25.6762 89.6749 25.6762L89.2041 25.5454ZM86.3534 24.9308C86.373 24.9504 86.4711 24.9177 86.5103 24.9374C86.5626 24.97 86.6149 25.0289 86.6672 25.0616C86.7065 25.0877 86.798 25.1204 86.8111 25.1466C86.8438 25.1793 86.8699 25.2512 86.9157 25.2577C86.9353 25.2774 86.9941 25.2512 87.0138 25.2316C87.0399 25.2185 87.0988 25.127 87.0857 25.0877C87.0857 25.0551 87.0334 24.957 87.0334 24.957L86.9876 24.7674L86.7391 24.8066L86.5888 24.7216C86.5888 24.7216 86.4776 24.7543 86.458 24.7543C86.4253 24.7543 86.3599 24.7281 86.3599 24.7281C86.3599 24.7281 86.3141 24.8981 86.3534 24.9308ZM85.3203 23.6231L85.3922 23.6951L85.4576 23.8912L85.3792 24.022V24.1789C85.3792 24.1789 85.4641 24.192 85.4903 24.1789C85.5099 24.1789 85.5688 24.107 85.5688 24.107C85.5688 24.107 85.6668 24.1528 85.6995 24.1397C85.7322 24.107 85.6995 23.9239 85.6995 23.9239V23.7408C85.6995 23.7408 85.7322 23.7212 85.7322 23.7016C85.7453 23.6558 85.6734 23.5381 85.6734 23.5381L85.5949 23.4531C85.5949 23.4531 85.523 23.5708 85.4641 23.5839C85.4511 23.5905 85.3595 23.512 85.3595 23.512L85.3203 23.6231ZM81.6849 18.5624L81.868 18.739L82.0903 18.7847L81.9465 18.9547L82.3519 18.9678C82.3519 18.9678 82.4696 19.1312 82.4761 19.1966C82.5088 19.2816 82.4761 19.4909 82.4761 19.4909L82.1753 19.4712L82.2342 19.7393L81.9661 19.8439L82.2211 20.1185L81.8288 20.4389L82.3257 20.4062C82.3257 20.4062 82.4761 20.2951 82.5415 20.2886C82.6069 20.2559 82.8357 20.3212 82.8357 20.3212L83.0776 20.2363L83.3915 20.3147L83.7576 19.9878L83.7969 19.6936C83.7969 19.6936 83.4765 19.6216 83.398 19.5563C83.3196 19.4778 83.228 19.1966 83.1692 19.0855C83.1103 18.9874 82.9599 18.8566 82.8815 18.7912C82.8161 18.7455 82.6003 18.6539 82.6003 18.6539L82.8815 18.2355C82.8815 18.2355 82.6134 18.1636 82.5872 18.0655C82.548 17.9478 82.6722 17.7974 82.6722 17.7974C82.6722 17.7974 82.4042 17.8236 82.3257 17.8301C82.2865 17.8366 82.1623 17.8759 82.123 17.9086C82.0249 17.9805 81.8288 18.2878 81.8288 18.2878L81.6849 18.5624ZM80.8023 19.517L80.6388 19.7197L80.7827 19.9812C80.7827 19.9812 81.0769 19.9813 81.1749 19.9486C81.2403 19.9289 81.4103 19.7916 81.4103 19.7916C81.4103 19.7916 81.7242 19.7851 81.783 19.7132C81.8484 19.6151 81.783 19.3536 81.783 19.2489C81.77 19.1378 81.8223 18.8109 81.8223 18.8109C81.8223 18.8109 81.2926 18.8436 81.2273 18.8828C81.1619 18.922 81.09 19.1182 81.09 19.1182L80.8153 19.0855C80.8153 19.0855 80.678 19.2424 80.678 19.2882C80.678 19.3666 80.8023 19.517 80.8023 19.517ZM62.9785 30.2139C63.0635 30.3512 63.482 30.5996 63.482 30.5996C63.482 30.5996 63.4232 30.4689 63.4232 30.4165C63.4232 30.3773 63.4689 30.3054 63.5212 30.2792C63.5539 30.2596 63.6847 30.2792 63.6847 30.2792L63.6324 30.0962C63.6324 30.0962 63.2859 29.8673 63.3251 29.7693C63.3316 29.7496 63.3382 29.7496 63.3382 29.7496V29.5731C63.3382 29.5731 63.3316 29.5142 63.3055 29.5208C63.2532 29.5339 63.2662 29.6385 63.2466 29.6842C63.2336 29.7496 63.2989 29.9916 63.2989 29.9916C63.2989 29.9916 63.4035 29.9523 63.4232 29.9916C63.4428 30.0373 63.3316 30.1746 63.3316 30.1746C63.3316 30.1746 63.2466 30.0439 63.227 29.9981C63.1812 29.8739 63.1289 29.5012 63.1289 29.5012L62.9655 29.3704C62.9524 29.3639 62.887 30.0308 62.9785 30.2139ZM63.7566 31.175L63.2401 30.7369C63.2401 30.7369 62.9524 30.4165 62.8347 30.3381C62.7693 30.3054 62.6189 30.2727 62.547 30.2596C62.4424 30.2466 62.2397 30.2727 62.1547 30.325C62.0501 30.3839 61.8409 30.6977 61.8409 30.6977C61.8409 30.6977 62.0043 30.6781 62.037 30.6977C62.0762 30.7173 62.1743 30.8612 62.1743 30.8612C62.1743 30.8612 62.3509 30.8219 62.4097 30.7958C62.4424 30.7762 62.5143 30.6519 62.5143 30.6519L62.7235 30.7173C62.7235 30.7173 62.7432 30.9004 62.7693 30.9527C62.8151 31.0442 62.887 31.2339 62.9916 31.2469C63.0308 31.2469 63.1486 31.2077 63.1878 31.1946C63.2532 31.1946 63.4559 31.2731 63.4559 31.2731L63.7566 31.175ZM64.8158 31.5673L64.7178 31.4954L64.7766 31.4104L64.5216 31.3516L64.4759 31.2469L64.2862 31.2731L64.0639 31.1946L63.8809 31.2927C63.8809 31.2927 63.9985 31.3646 64.0182 31.4104C64.0508 31.4627 64.0574 31.6523 64.0574 31.6523L63.7174 31.6327L64.2143 31.8419L64.2862 31.7635L64.4497 31.8158L64.5412 31.7177L64.7962 31.6981L64.8158 31.5673ZM69.8897 21.6551L69.6804 21.6289L69.7523 21.4328L69.5496 21.3478V21.1712L69.275 21.2824L69.3535 21.0536L69.0527 21.1974L69.432 20.6024L69.0593 20.8051L68.8173 21.1712L68.5427 21.5374L68.3597 21.8055L68.242 22.0605L68.5427 22.0866H68.9808L69.1639 21.8774L69.0004 22.1651L69.4581 21.8839L69.3927 22.0932L69.6346 21.9689L69.8897 21.6551ZM94.036 41.2703L93.7614 41.6365C93.7614 41.6365 93.5979 41.9503 93.5326 42.0549C93.4606 42.1465 93.3037 42.3426 93.2122 42.4145C93.1272 42.4734 92.846 42.6238 92.846 42.6238C92.846 42.6238 92.6564 43.0095 92.6172 43.1534C92.5845 43.2907 92.6564 43.5718 92.6172 43.7026C92.5779 43.8334 92.3753 44.0034 92.3426 44.1603C92.3295 44.2584 92.3426 44.4611 92.3426 44.5788C92.3426 44.6703 92.1987 44.8926 92.2445 44.9841C92.2837 45.043 92.4603 45.0168 92.5256 44.9841C92.7153 44.8926 92.9833 44.533 93.0814 44.3434C93.2579 43.9838 93.4279 43.1795 93.6241 42.8265C93.6699 42.7545 93.8072 42.6434 93.8333 42.5715C93.8529 42.493 93.8268 42.3426 93.8399 42.2641C93.866 42.1791 94.0164 42.1269 94.036 42.0484C94.1145 41.8719 94.036 41.2703 94.036 41.2703ZM94.6375 25.5062C94.6637 25.5847 94.7552 25.722 94.8206 25.7612C94.9056 25.82 95.1018 26.0227 95.1018 26.0227C95.1018 26.0227 95.4287 26.0358 95.4679 25.9574C95.5464 25.7874 95.2979 25.4343 95.2391 25.2577C95.1998 25.1466 95.2195 24.872 95.1933 24.7412C95.1737 24.6039 95.1148 24.3293 95.0495 24.2051C94.971 24.0481 94.5918 23.7081 94.5918 23.7081C94.5918 23.7081 94.4545 23.4728 94.4545 23.3747C94.4348 23.2962 94.5133 23.0805 94.4545 23.0151C94.4087 22.9693 94.2125 22.9955 94.1537 23.0347C94.0949 23.087 94.0556 23.2439 94.036 23.3355C94.0229 23.4074 94.1537 23.5839 94.1733 23.6624C94.1995 23.7539 94.1406 23.9697 94.1733 24.0678C94.2322 24.2574 94.5395 24.532 94.5918 24.7281C94.6506 24.957 94.5525 25.3101 94.6375 25.5062ZM90.1914 23.7604C90.1914 23.7604 90.4856 23.7212 90.5968 23.7539C90.6753 23.7801 90.9303 23.9435 90.9303 23.9435L91.2506 23.7016L91.7214 23.8258L92.336 24.1854C92.336 24.1854 92.7545 24.3227 92.8918 24.2704C93.0029 24.2247 93.2056 23.9828 93.1729 23.8651C93.1337 23.7604 92.8395 23.7278 92.7937 23.6362C92.761 23.5381 92.9049 23.2897 92.9049 23.2897L92.5845 23.0804C92.5845 23.0804 92.2641 23.0805 92.2053 23.0674C92.0941 23.0478 91.9241 22.8908 91.9241 22.8908L91.388 22.8385C91.388 22.8385 91.3683 22.5508 91.2833 22.4789C91.2376 22.4332 91.0087 22.4331 91.0087 22.4331C91.0087 22.4331 90.793 22.1847 90.6883 22.2043C90.6099 22.2239 90.5968 22.4462 90.551 22.5312C90.4922 22.6293 90.2307 22.7731 90.198 22.8974C90.1653 22.9562 90.2437 23.087 90.2437 23.1654C90.2372 23.257 90.0607 23.3812 90.0541 23.4793C90.041 23.5512 90.1914 23.7604 90.1914 23.7604Z" fill="#00ADEE"/>
<path d="M77.7949 59.1791C77.2849 59.1791 76.7683 59.1661 76.2518 59.1334C69.138 58.7345 62.6061 55.583 57.8592 50.2673C53.1124 44.9515 50.7258 38.0993 51.1312 30.9855C51.9355 16.8756 63.6327 5.82568 77.7556 5.82568C78.2591 5.82568 78.7756 5.83876 79.2791 5.87145C93.9644 6.70836 105.237 19.3406 104.4 34.0259C103.602 48.1292 91.9113 59.1791 77.7949 59.1791ZM77.7556 8.8922C65.2607 8.8922 54.9104 18.6737 54.1977 31.162C53.8381 37.4585 55.9566 43.5196 60.1542 48.2273C64.3519 52.935 70.1319 55.7203 76.4283 56.0734C76.886 56.0995 77.3437 56.1126 77.7949 56.1126C90.2898 56.1126 100.634 46.3311 101.346 33.8493C102.085 20.8509 92.1075 9.67027 79.1156 8.93143C78.6579 8.90528 78.2068 8.8922 77.7556 8.8922Z" fill="white"/>
<path fill-rule="evenodd" clip-rule="evenodd" d="M80.0958 6.85225H75.4404L76.5389 0H78.9973L80.0958 6.85225Z" fill="white"/>
<path fill-rule="evenodd" clip-rule="evenodd" d="M97.5535 16.0126L94.2646 12.7173L99.8811 8.65039L101.62 10.3896L97.5535 16.0126Z" fill="white"/>
<path fill-rule="evenodd" clip-rule="evenodd" d="M103.425 34.8302V30.1748L110.271 31.2667V33.7317L103.425 34.8302Z" fill="white"/>
<path fill-rule="evenodd" clip-rule="evenodd" d="M94.2646 52.2876L97.5535 48.9922L101.62 54.6087L99.8811 56.3544L94.2646 52.2876Z" fill="white"/>
<path fill-rule="evenodd" clip-rule="evenodd" d="M75.4404 58.1523H80.0958L79.0039 64.9981H76.5389L75.4404 58.1523Z" fill="white"/>
<path fill-rule="evenodd" clip-rule="evenodd" d="M57.9837 48.9922L61.2791 52.2876L55.6626 56.3544L53.9233 54.6087L57.9837 48.9922Z" fill="white"/>
<path fill-rule="evenodd" clip-rule="evenodd" d="M52.1182 30.1748V34.8302L45.2725 33.7382V31.2667L52.1182 30.1748Z" fill="white"/>
<path fill-rule="evenodd" clip-rule="evenodd" d="M61.2783 12.7173L57.9829 16.0061L53.916 10.3961L55.6618 8.65039L61.2783 12.7173Z" fill="white"/>
<path fill-rule="evenodd" clip-rule="evenodd" d="M89.3607 9.50032L85.0322 7.78726L88.5695 1.82422L90.8579 2.73306L89.3607 9.50032Z" fill="white"/>
<path fill-rule="evenodd" clip-rule="evenodd" d="M102.235 24.434L100.385 20.1644L107.1 18.4448L108.08 20.7071L102.235 24.434Z" fill="white"/>
<path fill-rule="evenodd" clip-rule="evenodd" d="M100.777 44.095L102.49 39.7666L108.446 43.3039L107.544 45.5923L100.777 44.095Z" fill="white"/>
<path fill-rule="evenodd" clip-rule="evenodd" d="M85.8369 56.9692L90.113 55.1123L91.8326 61.8272L89.5703 62.8146L85.8369 56.9692Z" fill="white"/>
<path fill-rule="evenodd" clip-rule="evenodd" d="M66.1758 55.5044L70.5108 57.2109L66.9735 63.1805L64.6851 62.2717L66.1758 55.5044Z" fill="white"/>
<path fill-rule="evenodd" clip-rule="evenodd" d="M53.3077 40.5708L55.1581 44.8404L48.4432 46.56L47.4624 44.2977L53.3077 40.5708Z" fill="white"/>
<path fill-rule="evenodd" clip-rule="evenodd" d="M54.773 20.9034L53.0599 25.2383L47.0903 21.7076L48.0057 19.4126L54.773 20.9034Z" fill="white"/>
<path fill-rule="evenodd" clip-rule="evenodd" d="M69.7067 8.03557L65.4371 9.89249L63.7109 3.171L65.9798 2.19678L69.7067 8.03557Z" fill="white"/>
<path fill-rule="evenodd" clip-rule="evenodd" d="M138.693 41.9636C140.021 39.1128 140.138 35.7782 139.033 32.8294C137.948 29.874 135.679 27.4222 132.822 26.121C129.971 24.8002 126.63 24.676 123.688 25.7745C120.732 26.8598 118.28 29.1287 116.986 31.986C115.658 34.8367 115.541 38.1778 116.639 41.1201C117.725 44.0755 119.987 46.5208 122.851 47.822C125.708 49.1493 129.043 49.2735 131.985 48.1751C134.94 47.0962 137.392 44.8274 138.693 41.9636L141.897 43.4347C141.054 45.2785 139.844 46.9524 138.36 48.3254C136.876 49.7051 135.117 50.7773 133.214 51.4835C131.311 52.1896 129.278 52.5166 127.251 52.4381C125.224 52.3597 123.223 51.8758 121.38 51.0323C119.536 50.1889 117.862 48.9858 116.489 47.4951C115.109 46.0108 114.03 44.252 113.331 42.3493C112.625 40.4467 112.298 38.4132 112.376 36.3863C112.448 34.3594 112.932 32.3587 113.782 30.5148C114.625 28.671 115.835 26.9971 117.326 25.6241C118.81 24.2445 120.569 23.1656 122.471 22.466C124.368 21.7599 126.408 21.433 128.434 21.5114C130.461 21.5833 132.469 22.0672 134.306 22.9172C136.15 23.7606 137.824 24.9702 139.197 26.461C140.576 27.9452 141.649 29.704 142.355 31.6067C143.061 33.5094 143.388 35.5428 143.309 37.5698C143.237 39.5967 142.754 41.604 141.904 43.4413L138.693 41.9636Z" fill="white"/>
<path fill-rule="evenodd" clip-rule="evenodd" d="M140.445 45.8083C140.962 45.0564 141.413 44.2652 141.792 43.4414C142.956 44.2064 144.094 45.0237 145.199 45.8868C144.924 46.4295 144.617 46.9656 144.296 47.4821C142.982 46.9787 141.701 46.4164 140.445 45.8083Z" fill="white"/>
<path fill-rule="evenodd" clip-rule="evenodd" d="M134.476 50.8624C135.293 50.4701 136.078 49.9993 136.816 49.4697C137.451 50.712 138.039 51.987 138.569 53.2816C138.059 53.6216 137.536 53.9355 136.993 54.2166C136.104 53.1378 135.267 52.0132 134.476 50.8624Z" fill="white"/>
<path fill-rule="evenodd" clip-rule="evenodd" d="M126.787 52.3403C127.695 52.3991 128.604 52.3795 129.513 52.2749C129.454 53.6676 129.343 55.0668 129.173 56.4595C128.559 56.5053 127.95 56.5183 127.336 56.5053C127.087 55.1191 126.911 53.733 126.787 52.3403Z" fill="white"/>
<path fill-rule="evenodd" clip-rule="evenodd" d="M119.366 49.8359C120.131 50.3329 120.935 50.7578 121.772 51.1175C121.039 52.3009 120.248 53.4648 119.418 54.5959C118.869 54.3344 118.326 54.0467 117.796 53.7394C118.267 52.4121 118.79 51.1109 119.366 49.8359Z" fill="white"/>
<path fill-rule="evenodd" clip-rule="evenodd" d="M114.129 44.0103C114.547 44.821 115.037 45.586 115.593 46.3118C114.371 46.9787 113.109 47.5998 111.827 48.1752C111.474 47.6783 111.147 47.1552 110.84 46.6256C111.906 45.7102 113.004 44.8341 114.129 44.0103Z" fill="white"/>
<path fill-rule="evenodd" clip-rule="evenodd" d="M112.435 36.3604C112.402 37.2692 112.448 38.1846 112.579 39.0869C111.186 39.0673 109.787 38.9953 108.388 38.8646C108.329 38.2565 108.296 37.6419 108.29 37.0273C109.663 36.7461 111.049 36.5238 112.435 36.3604Z" fill="white"/>
<path fill-rule="evenodd" clip-rule="evenodd" d="M114.724 28.8607C114.246 29.6388 113.847 30.4561 113.507 31.3061C112.304 30.6065 111.121 29.848 109.97 29.0503C110.219 28.488 110.487 27.9388 110.788 27.4092C112.128 27.8407 113.442 28.3245 114.724 28.8607Z" fill="white"/>
<path fill-rule="evenodd" clip-rule="evenodd" d="M120.412 23.4599C119.614 23.8979 118.856 24.4145 118.15 24.9899C117.444 23.7803 116.79 22.551 116.182 21.2826C116.672 20.9164 117.182 20.5699 117.705 20.2495C118.653 21.2826 119.555 22.3549 120.412 23.4599Z" fill="white"/>
<path fill-rule="evenodd" clip-rule="evenodd" d="M128.016 21.5442C127.107 21.5377 126.192 21.6096 125.296 21.7665C125.276 20.3738 125.309 18.9681 125.394 17.5688C126.002 17.4904 126.617 17.4381 127.225 17.4185C127.552 18.7915 127.813 20.1646 128.016 21.5442Z" fill="white"/>
<path fill-rule="evenodd" clip-rule="evenodd" d="M135.587 23.6234C134.796 23.1657 133.966 22.7864 133.109 22.4791C133.776 21.2565 134.496 20.0534 135.267 18.8765C135.836 19.1053 136.392 19.3603 136.934 19.6415C136.535 20.9949 136.084 22.3222 135.587 23.6234Z" fill="white"/>
<path fill-rule="evenodd" clip-rule="evenodd" d="M141.152 29.1615C140.688 28.3769 140.152 27.6315 139.557 26.9384C140.74 26.1996 141.956 25.513 143.212 24.8657C143.591 25.3496 143.95 25.8465 144.284 26.363C143.277 27.3438 142.231 28.2788 141.152 29.1615Z" fill="white"/>
<path fill-rule="evenodd" clip-rule="evenodd" d="M143.283 36.72C143.263 35.8047 143.158 34.8958 142.982 34.0001C144.375 33.9347 145.78 33.9347 147.18 33.9804C147.278 34.5885 147.343 35.1966 147.382 35.8112C146.029 36.1773 144.656 36.4781 143.283 36.72Z" fill="white"/>
</svg>
