<svg width="46" height="43" viewBox="0 0 46 43" fill="none" xmlns="http://www.w3.org/2000/svg">
<g clip-path="url(#clip0_290_8542)">
<mask id="mask0_290_8542" style="mask-type:luminance" maskUnits="userSpaceOnUse" x="0" y="1" width="46" height="56">
<path d="M0.867188 1.4162H45.1029V56.5653H0.867188V1.4162Z" fill="white"/>
</mask>
<g mask="url(#mask0_290_8542)">
<path d="M16.0118 6.4586C16.435 5.34786 17.0168 4.32527 17.8807 3.49663C21.3363 0.129143 27.0487 0.975421 29.3936 5.20681C31.1567 8.41562 33.0255 11.5539 34.8415 14.7274L43.939 30.5599C46.4602 34.9852 43.7274 40.5742 38.7203 41.3323C35.6525 41.7907 32.7787 40.3803 31.1919 37.6299L23.1876 23.7368C23.1347 23.631 23.0641 23.5428 22.9936 23.4547C22.7115 23.2255 22.5881 22.8905 22.4118 22.5908L16.5231 12.3825C15.8355 11.1837 15.5182 9.87898 15.5534 8.50377C15.6063 7.79854 15.6945 7.09331 16.0118 6.4586Z" fill="#3C8BD9"/>
<path d="M16.0119 6.4586C15.8532 7.09331 15.7122 7.72802 15.6769 8.39799C15.624 9.87898 15.9943 11.2542 16.7348 12.5412L22.5353 22.5732C22.7116 22.8729 22.8526 23.1726 23.029 23.4547L19.8378 28.9379L15.3772 36.6249C15.3067 36.6249 15.289 36.5896 15.2714 36.5367C15.2538 36.3957 15.3067 36.2723 15.3419 36.1312C16.0648 33.4866 15.4653 31.1417 13.6494 29.1318C12.5386 27.9153 11.1282 27.2277 9.50613 26.9985C7.39044 26.6988 5.52157 27.2453 3.84665 28.5676C3.54692 28.7968 3.35298 29.1318 3.00037 29.3081C2.92985 29.3081 2.89458 29.2729 2.87695 29.22L5.39816 24.8299L15.8885 6.65254C15.9237 6.58202 15.9766 6.52913 16.0119 6.4586Z" fill="#FABC04"/>
<path d="M2.94747 29.2729L3.95243 28.3737C8.23671 24.9886 14.672 27.4393 15.6064 32.799C15.8356 34.0861 15.7122 35.3202 15.3243 36.5544C15.3067 36.6602 15.289 36.7483 15.2538 36.8541C15.0951 37.1362 14.954 37.4359 14.7777 37.718C13.2086 40.3097 10.899 41.5968 7.86646 41.4029C4.3932 41.156 1.66042 38.5467 1.18439 35.091C0.95519 33.4161 1.29018 31.847 2.15408 30.4012C2.33039 30.0839 2.54196 29.8018 2.7359 29.4844C2.82406 29.4139 2.78879 29.2729 2.94747 29.2729Z" fill="#34A852"/>
<path d="M2.94766 29.2729C2.87713 29.3434 2.87713 29.4668 2.75372 29.4844C2.73609 29.361 2.80661 29.2905 2.87713 29.2023L2.94766 29.2729Z" fill="#FABC04"/>
<path d="M15.2538 36.8541C15.1833 36.7307 15.2538 36.6425 15.3243 36.5544L15.3949 36.6249L15.2538 36.8541Z" fill="#E1C025"/>
</g>
</g>
<defs>
<clipPath id="clip0_290_8542">
<rect width="45" height="42" fill="white" transform="translate(0.5 0.5)"/>
</clipPath>
</defs>
</svg>
