<svg width="52" height="52" viewBox="0 0 52 52" fill="none" xmlns="http://www.w3.org/2000/svg">
<path d="M23.4021 18.1531C23.4021 19.1058 24.1816 19.8852 25.1343 19.8852C26.0869 19.8852 26.8664 19.1058 26.8664 18.1531V16.4209H28.5986C29.5513 16.4209 30.3308 15.6414 30.3308 14.6887C30.3308 13.736 29.5513 12.9565 28.5986 12.9565H9.54468C8.59198 12.9565 7.8125 13.736 7.8125 14.6887C7.8125 15.6414 8.59198 16.4209 9.54468 16.4209H23.4021V18.1531Z" fill="#26A9E0"/>
<path d="M39.4246 26.866C38.3853 26.866 37.3633 27.0046 36.3933 27.2471V23.419L36.8956 23.2631C37.6231 23.0379 38.1254 22.3624 38.1254 21.6002V11.2072C38.1254 8.34909 35.787 6.01065 32.9289 6.01065H30.3306V4.33044C30.3306 1.94004 28.3906 0 26.0002 0H12.1428C9.7524 0 7.81237 1.94004 7.81237 4.33044V6.01065H5.2141C2.35601 6.01065 0.0175781 8.34909 0.0175781 11.2072V21.6002C0.0175781 22.3624 0.519909 23.0379 1.24742 23.2631L1.74975 23.419V33.7428C1.74975 36.6009 4.08819 38.9393 6.94628 38.9393H26.8836C26.8836 39.1125 26.8663 39.2684 26.8663 39.4416C26.8663 46.3703 32.4959 51.9999 39.4246 51.9999C46.3533 51.9999 51.9828 46.3703 51.9828 39.4416C51.9828 32.5129 46.3533 26.8834 39.4246 26.8834V26.866ZM11.2767 4.34776C11.2767 3.86275 11.6578 3.48167 12.1428 3.48167H26.0002C26.4852 3.48167 26.8663 3.86275 26.8663 4.34776V6.02797H11.2767V4.34776ZM3.48193 11.2245C3.48193 10.2718 4.26141 9.49232 5.2141 9.49232H32.9289C33.8816 9.49232 34.6611 10.2718 34.6611 11.2245V20.3357L19.0715 25.0126L3.48193 20.3357V11.2245ZM6.94628 35.4749C5.99358 35.4749 5.2141 34.6955 5.2141 33.7428V24.4583L17.4259 28.1132C17.3913 28.2518 17.3393 28.3904 17.3393 28.5289V30.2611C17.3393 31.2138 18.1188 31.9933 19.0715 31.9933C20.0242 31.9933 20.8037 31.2138 20.8037 30.2611V28.5289C20.8037 28.373 20.7517 28.2518 20.7171 28.1132L32.9289 24.4583V28.7021C30.3999 30.2438 28.4599 32.6169 27.5072 35.4749H6.94628ZM39.4246 48.5356C34.4013 48.5356 30.3306 44.4476 30.3306 39.4416C30.3306 34.4356 34.4013 30.3477 39.4246 30.3477C44.4479 30.3477 48.5185 34.4356 48.5185 39.4416C48.5185 44.4476 44.4479 48.5356 39.4246 48.5356Z" fill="#26A9E0"/>
<path d="M41.1567 38.4888V35.3882C41.1567 34.4355 40.3773 33.656 39.4246 33.656C38.4719 33.656 37.6924 34.4355 37.6924 35.3882V39.4068C37.6924 39.9784 37.9869 40.5327 38.4719 40.8445L40.9662 42.5074C41.2607 42.698 41.5898 42.8019 41.9189 42.8019C42.4732 42.8019 43.0275 42.5247 43.3566 42.0224C43.8936 41.2256 43.6684 40.1517 42.8716 39.6147L41.1394 38.4541L41.1567 38.4888Z" fill="#26A9E0"/>
</svg>
