<svg width="60" height="60" viewBox="0 0 60 60" fill="none" xmlns="http://www.w3.org/2000/svg">
<path d="M23.7 37.2563C23.8313 36.6938 23.9062 36.1313 23.9062 35.5313V31.875C23.9062 28.1625 20.8687 25.125 17.1562 25.125H14.7188C11.0062 25.125 7.96875 28.1625 7.96875 31.875V35.5313C7.96875 36.1313 8.04375 36.6938 8.175 37.2563C4.275 39.8438 1.875 44.175 1.875 48.9375V52.5938C1.875 55.65 4.35 58.125 7.40625 58.125H24.4688C27.525 58.125 30 55.65 30 52.5938V48.9375C30 44.175 27.6187 39.8438 23.7 37.2563ZM11.7188 31.875C11.7188 30.225 13.0687 28.875 14.7188 28.875H17.1562C18.8062 28.875 20.1562 30.225 20.1562 31.875V35.5313C20.1562 37.8563 18.2625 39.75 15.9375 39.75C13.6125 39.75 11.7188 37.8563 11.7188 35.5313V31.875ZM26.25 52.5938C26.25 53.5687 25.4438 54.375 24.4688 54.375H22.9688V50.625C22.9688 49.5938 22.125 48.75 21.0938 48.75C20.0625 48.75 19.2188 49.5938 19.2188 50.625V54.375H12.6562V50.625C12.6562 49.5938 11.8125 48.75 10.7812 48.75C9.75 48.75 8.90625 49.5938 8.90625 50.625V54.375H7.40625C6.43125 54.375 5.625 53.5687 5.625 52.5938V48.9375C5.625 45.6 7.21875 42.5438 9.8625 40.6313C11.325 42.375 13.5 43.5 15.9375 43.5C18.375 43.5 20.55 42.375 22.0125 40.6313C24.6562 42.5625 26.25 45.6 26.25 48.9375V52.5938Z" fill="#26A9E0"/>
<path d="M36.5625 13.6313C35.5312 13.6313 34.6875 14.4751 34.6875 15.5063V17.3813C34.6875 18.4126 35.5312 19.2563 36.5625 19.2563C37.5938 19.2563 38.4375 18.4126 38.4375 17.3813V15.5063C38.4375 14.4751 37.5938 13.6313 36.5625 13.6313Z" fill="#26A9E0"/>
<path d="M43.125 13.6313C42.0938 13.6313 41.25 14.4751 41.25 15.5063V17.3813C41.25 18.4126 42.0938 19.2563 43.125 19.2563C44.1562 19.2563 45 18.4126 45 17.3813V15.5063C45 14.4751 44.1562 13.6313 43.125 13.6313Z" fill="#26A9E0"/>
<path d="M49.6875 13.6313C48.6562 13.6313 47.8125 14.4751 47.8125 15.5063V17.3813C47.8125 18.4126 48.6562 19.2563 49.6875 19.2563C50.7188 19.2563 51.5625 18.4126 51.5625 17.3813V15.5063C51.5625 14.4751 50.7188 13.6313 49.6875 13.6313Z" fill="#26A9E0"/>
<path d="M53.4371 31.8748V29.2498C53.4371 28.106 53.9996 27.206 54.4684 26.6623C56.8309 23.9435 58.1246 20.456 58.1246 16.856C58.1246 12.356 56.1371 8.13728 52.6684 5.28728C49.1996 2.41853 44.6246 1.27478 40.1434 2.15603C34.0871 3.33728 29.3434 8.21228 28.3309 14.3248C27.5996 18.7873 28.8559 23.2685 31.7621 26.6623C32.2309 27.206 32.8121 28.106 32.8121 29.2498V31.856C31.7809 31.856 30.9371 32.6998 30.9371 33.731C30.9371 34.7623 31.7809 35.606 32.8121 35.606H35.6246V41.231C35.6246 42.2623 36.4684 43.106 37.4996 43.106H48.7496C49.7809 43.106 50.6246 42.2623 50.6246 41.231V35.606H53.4371C54.4684 35.606 55.3121 34.7623 55.3121 33.731C55.3121 32.6998 54.4684 31.856 53.4371 31.856V31.8748ZM46.8746 39.3748H39.3746V35.6248H46.8746V39.3748ZM51.6371 24.2248C50.3809 25.6873 49.6871 27.4685 49.6871 29.2498V31.8748H36.5621V29.2685C36.5621 27.4685 35.8684 25.6873 34.6121 24.2248C32.4184 21.6935 31.4809 18.3185 32.0434 14.9623C32.7934 10.4623 36.4121 6.73103 40.8559 5.86853C44.2309 5.21228 47.6809 6.07478 50.2871 8.21228C52.8934 10.3685 54.3934 13.5185 54.3934 16.8935C54.3934 19.5935 53.4184 22.1998 51.6559 24.2435L51.6371 24.2248Z" fill="#26A9E0"/>
</svg>
