<svg width="55" height="54" viewBox="0 0 55 54" fill="none" xmlns="http://www.w3.org/2000/svg">
<path d="M52.2011 43.2H51.3551L41.9951 29.574C41.3291 28.602 39.6911 28.602 39.0251 29.574L37.7291 31.464L28.8191 20.934V16.2H41.4191C42.4091 16.2 43.2191 15.39 43.2191 14.4V3.6C43.2191 2.61 42.4091 1.8 41.4191 1.8H28.8191C28.8191 0.81 28.0091 0 27.0191 0C26.0291 0 25.2191 0.81 25.2191 1.8V20.934L16.3091 31.464L15.0131 29.574C14.3471 28.602 12.7091 28.602 12.0431 29.574L2.68311 43.2H1.83711C0.847109 43.2 0.0371094 44.01 0.0371094 45V49.5C0.0371094 51.984 2.05311 54 4.53711 54H49.5371C52.0211 54 54.0371 51.984 54.0371 49.5V45C54.0371 44.01 53.2271 43.2 52.2371 43.2H52.2011ZM46.9811 43.2H34.0211L40.5011 33.786L46.9811 43.2ZM39.6011 5.4V12.6H28.8011V5.4H39.6011ZM27.0011 24.39L35.6051 34.56L29.6651 43.218H24.3551L18.4151 34.56L27.0191 24.39H27.0011ZM13.5011 33.786L19.9811 43.2H7.02111L13.5011 33.786ZM50.4011 49.5C50.4011 50.004 50.0051 50.4 49.5011 50.4H4.50111C3.99711 50.4 3.60111 50.004 3.60111 49.5V46.8H50.4011V49.5Z" fill="#26A9E0"/>
</svg>
