<svg width="54" height="54" viewBox="0 0 54 54" fill="none" xmlns="http://www.w3.org/2000/svg">
<path d="M11 27H9C7.9 27 7 27.9 7 29C7 30.1 7.9 31 9 31H11C12.1 31 13 30.1 13 29C13 27.9 12.1 27 11 27Z" fill="#26A9E0"/>
<path d="M20 27H18C16.9 27 16 27.9 16 29C16 30.1 16.9 31 18 31H20C21.1 31 22 30.1 22 29C22 27.9 21.1 27 20 27Z" fill="#26A9E0"/>
<path d="M31 29C31 27.9 30.1 27 29 27H27C25.9 27 25 27.9 25 29C25 30.1 25.9 31 27 31H29C30.1 31 31 30.1 31 29Z" fill="#26A9E0"/>
<path d="M11 33H9C7.9 33 7 33.9 7 35C7 36.1 7.9 37 9 37H11C12.1 37 13 36.1 13 35C13 33.9 12.1 33 11 33Z" fill="#26A9E0"/>
<path d="M20 33H18C16.9 33 16 33.9 16 35C16 36.1 16.9 37 18 37H20C21.1 37 22 36.1 22 35C22 33.9 21.1 33 20 33Z" fill="#26A9E0"/>
<path d="M11 40H9C7.9 40 7 40.675 7 41.5C7 42.325 7.9 43 9 43H11C12.1 43 13 42.325 13 41.5C13 40.675 12.1 40 11 40Z" fill="#26A9E0"/>
<path d="M20 40H18C16.9 40 16 40.675 16 41.5C16 42.325 16.9 43 18 43H20C21.1 43 22 42.325 22 41.5C22 40.675 21.1 40 20 40Z" fill="#26A9E0"/>
<path d="M50.4 32.598V9C50.4 8.01 49.59 7.2 48.6 7.2H42.3V4.5C42.3 2.016 40.284 0 37.8 0H36C33.516 0 31.5 2.016 31.5 4.5V7.2H18.9V4.5C18.9 2.016 16.884 0 14.4 0H12.6C10.116 0 8.1 2.016 8.1 4.5V7.2H1.8C0.81 7.2 0 8.01 0 9V47.7C0 48.69 0.81 49.5 1.8 49.5H31.77C34.092 52.254 37.548 54 41.4 54C48.348 54 54 48.348 54 41.4C54 37.98 52.632 34.866 50.4 32.598ZM35.1 4.5C35.1 3.996 35.496 3.6 36 3.6H37.8C38.304 3.6 38.7 3.996 38.7 4.5V7.2H35.1V4.5ZM11.7 4.5C11.7 3.996 12.096 3.6 12.6 3.6H14.4C14.904 3.6 15.3 3.996 15.3 4.5V7.2H11.7V4.5ZM8.1 10.8V13.5C8.1 15.984 10.116 18 12.6 18H15.3C16.29 18 17.1 17.19 17.1 16.2C17.1 15.21 16.29 14.4 15.3 14.4H12.6C12.096 14.4 11.7 14.004 11.7 13.5V10.8H31.5V13.5C31.5 15.984 33.516 18 36 18H38.7C39.69 18 40.5 17.19 40.5 16.2C40.5 15.21 39.69 14.4 38.7 14.4H36C35.496 14.4 35.1 14.004 35.1 13.5V10.8H46.8V19.8H3.6V10.8H8.1ZM3.6 45.9V23.4H46.8V30.042C45.162 29.268 43.326 28.8 41.4 28.8C34.452 28.8 28.8 34.452 28.8 41.4C28.8 42.984 29.106 44.496 29.646 45.9H3.6ZM41.4 50.4C36.432 50.4 32.4 46.368 32.4 41.4C32.4 36.432 36.432 32.4 41.4 32.4C46.368 32.4 50.4 36.432 50.4 41.4C50.4 46.368 46.368 50.4 41.4 50.4Z" fill="#26A9E0"/>
<path d="M43.5514 40.7184V37.7476C43.5514 36.7864 42.7523 36 41.7757 36C40.7991 36 40 36.7864 40 37.7476V41.6447C40 42.2214 40.3019 42.7806 40.7991 43.0951L43.2495 44.7029C43.5514 44.8951 43.8888 45 44.2261 45C44.7944 45 45.3626 44.7204 45.7 44.2136C46.2504 43.4097 46.0196 42.3262 45.2028 41.7845L43.5336 40.6835L43.5514 40.7184Z" fill="#26A9E0"/>
</svg>
