<svg width="50" height="50" viewBox="0 0 50 50" fill="none" xmlns="http://www.w3.org/2000/svg">
<path d="M10.8333 21.6667C16.8 21.6667 21.6667 16.8 21.6667 10.8333C21.6667 4.86667 16.8 0 10.8333 0C4.86667 0 0 4.86667 0 10.8333C0 16.8 4.86667 21.6667 10.8333 21.6667ZM10.8333 3.33333C14.9667 3.33333 18.3333 6.7 18.3333 10.8333C18.3333 14.9667 14.9667 18.3333 10.8333 18.3333C6.7 18.3333 3.33333 14.9667 3.33333 10.8333C3.33333 6.7 6.7 3.33333 10.8333 3.33333Z" fill="#26A9E0"/>
<path d="M10.8346 16.2498C13.818 16.2498 16.2513 13.8165 16.2513 10.8332C16.2513 7.84984 13.818 5.4165 10.8346 5.4165C7.8513 5.4165 5.41797 7.84984 5.41797 10.8332C5.41797 13.8165 7.8513 16.2498 10.8346 16.2498ZM10.8346 8.74984C11.9846 8.74984 12.918 9.68317 12.918 10.8332C12.918 11.9832 11.9846 12.9165 10.8346 12.9165C9.68464 12.9165 8.7513 11.9832 8.7513 10.8332C8.7513 9.68317 9.68464 8.74984 10.8346 8.74984Z" fill="#26A9E0"/>
<path d="M39.1654 28.3335C33.1987 28.3335 28.332 33.2002 28.332 39.1668C28.332 45.1335 33.1987 50.0002 39.1654 50.0002C45.132 50.0002 49.9987 45.1335 49.9987 39.1668C49.9987 33.2002 45.132 28.3335 39.1654 28.3335ZM39.1654 46.6668C35.032 46.6668 31.6654 43.3002 31.6654 39.1668C31.6654 35.0335 35.032 31.6668 39.1654 31.6668C43.2987 31.6668 46.6654 35.0335 46.6654 39.1668C46.6654 43.3002 43.2987 46.6668 39.1654 46.6668Z" fill="#26A9E0"/>
<path d="M25.3492 18.8165C24.6992 18.1665 23.6492 18.1665 22.9992 18.8165L17.9992 23.8165C17.3492 24.4665 17.3492 25.5165 17.9992 26.1665L22.9992 31.1665C23.3326 31.4998 23.7492 31.6498 24.1826 31.6498C24.6159 31.6498 25.0326 31.4832 25.3659 31.1665C26.0159 30.5165 26.0159 29.4665 25.3659 28.8165L23.2159 26.6665H42.1492C45.8326 26.6665 48.8159 23.6832 48.8159 19.9998V15.8332C48.8159 12.1498 45.8326 9.1665 42.1492 9.1665H25.4826C24.5659 9.1665 23.8159 9.9165 23.8159 10.8332C23.8159 11.7498 24.5659 12.4998 25.4826 12.4998H42.1492C43.9826 12.4998 45.4826 13.9998 45.4826 15.8332V19.9998C45.4826 21.8332 43.9826 23.3332 42.1492 23.3332H23.2159L25.3659 21.1832C26.0159 20.5332 26.0159 19.4832 25.3659 18.8332L25.3492 18.8165Z" fill="#26A9E0"/>
<path d="M41.0495 36.1166L38.4661 38.6999L37.2828 37.5166C36.6328 36.8666 35.5828 36.8666 34.9328 37.5166C34.2828 38.1666 34.2828 39.2166 34.9328 39.8666L37.2995 42.2333C37.6328 42.5666 38.0495 42.7166 38.4828 42.7166C38.9161 42.7166 39.3328 42.5499 39.6661 42.2333L43.4161 38.4833C44.0661 37.8333 44.0661 36.7833 43.4161 36.1333C42.7661 35.4833 41.7161 35.4833 41.0661 36.1333L41.0495 36.1166Z" fill="#26A9E0"/>
<path d="M18.3333 37.4999H6.66667C4.83333 37.4999 3.33333 35.9999 3.33333 34.1666V29.9999C3.33333 28.1666 4.83333 26.6666 6.66667 26.6666H13.3333C14.25 26.6666 15 25.9166 15 24.9999C15 24.0833 14.25 23.3333 13.3333 23.3333H6.66667C2.98333 23.3333 0 26.3166 0 29.9999V34.1666C0 37.8499 2.98333 40.8333 6.66667 40.8333H18.3333C19.25 40.8333 20 40.0833 20 39.1666C20 38.2499 19.25 37.4999 18.3333 37.4999Z" fill="#26A9E0"/>
<path d="M25 37.5H24.1667C23.25 37.5 22.5 38.25 22.5 39.1667C22.5 40.0833 23.25 40.8333 24.1667 40.8333H25C25.9167 40.8333 26.6667 40.0833 26.6667 39.1667C26.6667 38.25 25.9167 37.5 25 37.5Z" fill="#26A9E0"/>
</svg>
