<svg width="49" height="48" viewBox="0 0 49 48" fill="none" xmlns="http://www.w3.org/2000/svg">
<path d="M45.5 28.5H41.75V12C41.75 11.595 41.585 11.22 41.315 10.935L32.315 1.935C32.03 1.65 31.655 1.5 31.25 1.5H8.75C7.925 1.5 7.25 2.175 7.25 3V28.5H3.5C2.675 28.5 2 29.175 2 30V45C2 45.825 2.675 46.5 3.5 46.5H45.5C46.325 46.5 47 45.825 47 45V30C47 29.175 46.325 28.5 45.5 28.5ZM32.75 6.615L36.635 10.5H32.75V6.615ZM10.25 4.5H29.75V12C29.75 12.825 30.425 13.5 31.25 13.5H38.75V28.5H35C34.535 28.5 34.085 28.725 33.8 29.1L29.75 34.5H19.25L15.2 29.1C14.915 28.725 14.465 28.5 14 28.5H10.25V4.5ZM44 43.5H5V31.5H13.25L15.5 34.5H11.75C10.925 34.5 10.25 35.175 10.25 36C10.25 36.825 10.925 37.5 11.75 37.5H37.25C38.075 37.5 38.75 36.825 38.75 36C38.75 35.175 38.075 34.5 37.25 34.5H33.5L35.75 31.5H44V43.5Z" fill="#26A9E0"/>
<path d="M34.25 25.5C35.075 25.5 35.75 24.825 35.75 24C35.75 23.175 35.075 22.5 34.25 22.5H14.75C13.925 22.5 13.25 23.175 13.25 24C13.25 24.825 13.925 25.5 14.75 25.5H34.25Z" fill="#26A9E0"/>
<path d="M14.75 19.5H34.25C35.075 19.5 35.75 18.825 35.75 18C35.75 17.175 35.075 16.5 34.25 16.5H14.75C13.925 16.5 13.25 17.175 13.25 18C13.25 18.825 13.925 19.5 14.75 19.5Z" fill="#26A9E0"/>
<path d="M14.75 13.5H25.25C26.075 13.5 26.75 12.825 26.75 12C26.75 11.175 26.075 10.5 25.25 10.5H14.75C13.925 10.5 13.25 11.175 13.25 12C13.25 12.825 13.925 13.5 14.75 13.5Z" fill="#26A9E0"/>
</svg>
