<svg width="48" height="48" viewBox="0 0 48 48" fill="none" xmlns="http://www.w3.org/2000/svg">
<path d="M46.065 36.0001L41.34 31.2751C40.185 30.1201 38.49 29.7151 36.93 30.2401L33.495 31.3801L31.11 28.9951C32.925 26.7751 34.125 24.0301 34.425 21.0151H36C36.825 21.0151 37.5 20.3401 37.5 19.5151C37.5 18.6901 36.825 18.0151 36 18.0151H34.425C33.72 10.9351 28.08 5.29514 21 4.59014V3.01514C21 2.19014 20.325 1.51514 19.5 1.51514C18.675 1.51514 18 2.19014 18 3.01514V4.59014C10.92 5.28014 5.28 10.9201 4.575 18.0001H3C2.175 18.0001 1.5 18.6751 1.5 19.5001C1.5 20.3251 2.175 21.0001 3 21.0001H4.575C5.28 28.0801 10.92 33.7201 18 34.4251V36.0001C18 36.8251 18.675 37.5001 19.5 37.5001C20.325 37.5001 21 36.8251 21 36.0001V34.4251C24.015 34.1251 26.76 32.9251 28.98 31.1101L31.365 33.4951L30.225 36.9301C29.7 38.4901 30.105 40.1851 31.275 41.3401L36 46.0651C36.285 46.3501 36.675 46.5001 37.065 46.5001C37.185 46.5001 37.29 46.5001 37.41 46.4551C37.92 46.3351 38.325 45.9601 38.49 45.4651L40.245 40.2151L45.495 38.4601C45.99 38.2951 46.365 37.8901 46.485 37.3801C46.605 36.8701 46.455 36.3451 46.08 35.9701L46.065 36.0001ZM19.5 31.5001C12.885 31.5001 7.5 26.1151 7.5 19.5001C7.5 12.8851 12.885 7.50014 19.5 7.50014C26.115 7.50014 31.5 12.8851 31.5 19.5001C31.5 22.2751 30.555 24.8101 28.965 26.8501L26.82 24.7051C27.87 23.2351 28.485 21.4351 28.485 19.5001C28.485 14.5351 24.45 10.5001 19.485 10.5001C14.52 10.5001 10.485 14.5351 10.485 19.5001C10.485 24.4651 14.52 28.5001 19.485 28.5001C21.42 28.5001 23.22 27.8701 24.69 26.8351L26.835 28.9801C24.795 30.5551 22.26 31.5151 19.485 31.5151L19.5 31.5001ZM20.565 18.4351C19.98 17.8501 19.035 17.8501 18.45 18.4351C17.865 19.0201 17.865 19.9651 18.45 20.5501L22.545 24.6451C21.66 25.1701 20.625 25.5001 19.515 25.5001C16.2 25.5001 13.515 22.8151 13.515 19.5001C13.515 16.1851 16.2 13.5001 19.515 13.5001C22.83 13.5001 25.515 16.1851 25.515 19.5001C25.515 20.6101 25.185 21.6301 24.66 22.5301L20.565 18.4351ZM36.405 42.2251L33.39 39.2101C33.03 38.8651 32.91 38.3401 33.075 37.8751L33.75 35.8651L37.335 39.4501L36.405 42.2251ZM39.45 37.3201L35.865 33.7351L37.875 33.0601C38.355 32.9101 38.865 33.0301 39.21 33.3751L42.225 36.3901L39.45 37.3201Z" fill="#26A9E0"/>
</svg>
