<svg width="49" height="48" viewBox="0 0 49 48" fill="none" xmlns="http://www.w3.org/2000/svg">
<path d="M45.5 30H44C43.175 30 42.5 30.675 42.5 31.5C42.5 32.325 43.175 33 44 33H45.5C46.325 33 47 32.325 47 31.5C47 30.675 46.325 30 45.5 30Z" fill="#26A9E0"/>
<path d="M42.5438 22.4249C42.7688 22.4249 42.9788 22.3799 43.1888 22.2749L44.5988 21.5999C45.3488 21.2399 45.6638 20.3399 45.3038 19.6049C44.9438 18.8549 44.0438 18.5399 43.3088 18.8999L41.8988 19.5749C41.1488 19.9349 40.8338 20.8349 41.1938 21.5699C41.4488 22.1099 41.9888 22.4249 42.5438 22.4249Z" fill="#26A9E0"/>
<path d="M44.5988 41.4001L43.1888 40.7251C42.4388 40.3651 41.5538 40.6801 41.1938 41.4301C40.8338 42.1801 41.1488 43.0651 41.8988 43.4251L43.3088 44.1001C43.5188 44.2051 43.7438 44.2501 43.9538 44.2501C44.5088 44.2501 45.0488 43.9351 45.3038 43.3951C45.6638 42.6451 45.3488 41.7601 44.5988 41.4001Z" fill="#26A9E0"/>
<path d="M6.5 31.5C6.5 30.675 5.825 30 5 30H3.5C2.675 30 2 30.675 2 31.5C2 32.325 2.675 33 3.5 33H5C5.825 33 6.5 32.325 6.5 31.5Z" fill="#26A9E0"/>
<path d="M7.09883 19.5749L5.68883 18.8999C4.93883 18.5399 4.05383 18.8549 3.69383 19.6049C3.33383 20.3549 3.64883 21.2399 4.39883 21.5999L5.80883 22.2749C6.01883 22.3799 6.24383 22.4249 6.45383 22.4249C7.00883 22.4249 7.54883 22.1099 7.80383 21.5699C8.16383 20.8199 7.84883 19.9349 7.09883 19.5749Z" fill="#26A9E0"/>
<path d="M5.80883 40.7251L4.39883 41.4001C3.64883 41.7601 3.33383 42.6601 3.69383 43.3951C3.94883 43.9351 4.48883 44.2501 5.04383 44.2501C5.26883 44.2501 5.47883 44.2051 5.68883 44.1001L7.09883 43.4251C7.84883 43.0651 8.16383 42.1651 7.80383 41.4301C7.44383 40.6801 6.54383 40.3651 5.80883 40.7251Z" fill="#26A9E0"/>
<path d="M26 16.575V13.5H31.25C35.39 13.5 38.75 10.14 38.75 6V3C38.75 2.175 38.075 1.5 37.25 1.5H30.5C28.04 1.5 25.865 2.715 24.5 4.545C23.135 2.7 20.96 1.5 18.5 1.5H11.75C10.925 1.5 10.25 2.175 10.25 3V6C10.25 10.14 13.61 13.5 17.75 13.5H23V16.575C15.425 17.325 9.5 23.73 9.5 31.5C9.5 39.765 16.235 46.5 24.5 46.5C32.765 46.5 39.5 39.765 39.5 31.5C39.5 23.73 33.575 17.325 26 16.575ZM30.5 4.5H35.75V6C35.75 8.475 33.725 10.5 31.25 10.5H26V9C26 6.525 28.025 4.5 30.5 4.5ZM13.25 6V4.5H18.5C20.975 4.5 23 6.525 23 9V10.5H17.75C15.275 10.5 13.25 8.475 13.25 6ZM24.5 43.5C17.885 43.5 12.5 38.115 12.5 31.5C12.5 24.885 17.885 19.5 24.5 19.5C31.115 19.5 36.5 24.885 36.5 31.5C36.5 38.115 31.115 43.5 24.5 43.5Z" fill="#26A9E0"/>
<path d="M23.1492 27.6001H28.5492C29.3742 27.6001 30.0492 26.9251 30.0492 26.1001C30.0492 25.2751 29.3742 24.6001 28.5492 24.6001H25.9992V23.4001C25.9992 22.5751 25.3242 21.9001 24.4992 21.9001C23.6742 21.9001 22.9992 22.5751 22.9992 23.4001V24.6151C20.7492 24.6901 18.9492 26.5351 18.9492 28.8001C18.9492 31.0651 20.8392 33.0001 23.1492 33.0001H25.8492C26.5092 33.0001 27.0492 33.5401 27.0492 34.2001C27.0492 34.8601 26.5092 35.4001 25.8492 35.4001H20.4492C19.6242 35.4001 18.9492 36.0751 18.9492 36.9001C18.9492 37.7251 19.6242 38.4001 20.4492 38.4001H22.9992V39.6001C22.9992 40.4251 23.6742 41.1001 24.4992 41.1001C25.3242 41.1001 25.9992 40.4251 25.9992 39.6001V38.3851C28.2492 38.3101 30.0492 36.4651 30.0492 34.2001C30.0492 31.9351 28.1592 30.0001 25.8492 30.0001H23.1492C22.4892 30.0001 21.9492 29.4601 21.9492 28.8001C21.9492 28.1401 22.4892 27.6001 23.1492 27.6001Z" fill="#26A9E0"/>
</svg>
