<svg width="32" height="32" viewBox="0 0 32 32" fill="none" xmlns="http://www.w3.org/2000/svg">
<path d="M25 19C21.69 19 19 21.69 19 25C19 28.31 21.69 31 25 31C28.31 31 31 28.31 31 25C31 21.69 28.31 19 25 19ZM25 29C22.79 29 21 27.21 21 25C21 22.79 22.79 21 25 21C27.21 21 29 22.79 29 25C29 27.21 27.21 29 25 29Z" fill="#26A9E0"/>
<path d="M26.0303 23.23L24.6003 24.66L23.9603 24.02C23.5703 23.63 22.9403 23.63 22.5503 24.02C22.1603 24.41 22.1603 25.04 22.5503 25.43L23.8903 26.77C24.0803 26.96 24.3303 27.06 24.6003 27.06C24.8703 27.06 25.1203 26.95 25.3103 26.77L27.4403 24.64C27.8303 24.25 27.8303 23.62 27.4403 23.23C27.0503 22.84 26.4203 22.84 26.0303 23.23Z" fill="#26A9E0"/>
<path d="M7 13C10.31 13 13 10.31 13 7C13 3.69 10.31 1 7 1C3.69 1 1 3.69 1 7C1 10.31 3.69 13 7 13ZM7 3C9.21 3 11 4.79 11 7C11 9.21 9.21 11 7 11C4.79 11 3 9.21 3 7C3 4.79 4.79 3 7 3Z" fill="#26A9E0"/>
<path d="M6.45 7.82997L7.71 8.66997C7.88 8.77997 8.07 8.83997 8.26 8.83997C8.58 8.83997 8.9 8.67997 9.09 8.38997C9.4 7.92997 9.27 7.30997 8.81 6.99997L8 6.45997V4.96997C8 4.41997 7.55 3.96997 7 3.96997C6.45 3.96997 6 4.41997 6 4.96997V6.99997C6 7.32997 6.17 7.64997 6.45 7.82997Z" fill="#26A9E0"/>
<path d="M30 17C30.55 17 31 16.55 31 16C31 15.45 30.55 15 30 15H26V14C26 13.45 25.55 13 25 13C24.45 13 24 13.45 24 14V15H19.86C19.41 13.28 17.86 12 16 12C14.14 12 12.59 13.28 12.14 15H2C1.45 15 1 15.45 1 16C1 16.55 1.45 17 2 17H6V18C6 18.55 6.45 19 7 19C7.55 19 8 18.55 8 18V17H12.14C12.59 18.72 14.14 20 16 20C17.86 20 19.41 18.72 19.86 17H30ZM16 18C14.9 18 14 17.1 14 16C14 14.9 14.9 14 16 14C17.1 14 18 14.9 18 16C18 17.1 17.1 18 16 18Z" fill="#26A9E0"/>
</svg>
