<svg width="30" height="30" viewBox="0 0 30 30" fill="none" xmlns="http://www.w3.org/2000/svg">
<path d="M28.4409 23.64H27.9897L22.9977 16.3728C22.6425 15.8544 21.7689 15.8544 21.4137 16.3728L20.7225 17.3808L15.9705 11.7648V9.24001H22.6905C23.2185 9.24001 23.6505 8.80801 23.6505 8.28001V2.52001C23.6505 1.99201 23.2185 1.56001 22.6905 1.56001H15.9705C15.9705 1.03201 15.5385 0.600006 15.0105 0.600006C14.4825 0.600006 14.0505 1.03201 14.0505 1.56001V11.7648L9.29852 17.3808L8.60732 16.3728C8.25212 15.8544 7.37852 15.8544 7.02332 16.3728L2.03132 23.64H1.58012C1.05212 23.64 0.620117 24.072 0.620117 24.6V27C0.620117 28.3248 1.69532 29.4 3.02012 29.4H27.0201C28.3449 29.4 29.4201 28.3248 29.4201 27V24.6C29.4201 24.072 28.9881 23.64 28.4601 23.64H28.4409ZM25.6569 23.64H18.7449L22.2009 18.6192L25.6569 23.64ZM21.7209 3.48001V7.32001H15.9609V3.48001H21.7209ZM15.0009 13.608L19.5897 19.032L16.4217 23.6496H13.5897L10.4217 19.032L15.0105 13.608H15.0009ZM7.80092 18.6192L11.2569 23.64H4.34492L7.80092 18.6192ZM27.4809 27C27.4809 27.2688 27.2697 27.48 27.0009 27.48H3.00092C2.73212 27.48 2.52092 27.2688 2.52092 27V25.56H27.4809V27Z" fill="#26A9E0"/>
</svg>
