<svg width="30" height="38" viewBox="0 0 30 38" fill="none" xmlns="http://www.w3.org/2000/svg">
<path d="M15 20.25C16.3261 20.25 17.5979 19.7232 18.5355 18.7855C19.4732 17.8479 20 16.5761 20 15.25C20 13.9239 19.4732 12.6521 18.5355 11.7145C17.5979 10.7768 16.3261 10.25 15 10.25C13.6739 10.25 12.4021 10.7768 11.4645 11.7145C10.5268 12.6521 10 13.9239 10 15.25C10 16.5761 10.5268 17.8479 11.4645 18.7855C12.4021 19.7232 13.6739 20.25 15 20.25V20.25Z" stroke="#26A9E0" stroke-width="3" stroke-linecap="round" stroke-linejoin="round"/>
<path d="M28.3337 15.1534C28.3337 26.6917 15.0003 35.6667 15.0003 35.6667C15.0003 35.6667 1.66699 26.6917 1.66699 15.1534C1.66699 11.7534 3.07199 8.49337 5.57199 6.08837C8.07199 3.68337 11.4637 2.33337 15.0003 2.33337C18.537 2.33337 21.9287 3.68337 24.4287 6.08837C26.9287 8.49337 28.3337 11.755 28.3337 15.155V15.1534Z" stroke="#26A9E0" stroke-width="3" stroke-linecap="round" stroke-linejoin="round"/>
</svg>
