<svg width="151" height="72" viewBox="0 0 151 72" fill="none" xmlns="http://www.w3.org/2000/svg">
<path d="M0 57.9739H3.48284L5.95154 67.7924H5.98227L8.93244 57.9739H12.236L15.1862 67.7924H15.2169L17.6856 57.9739H21.1633L17.3988 71.3315H13.3065L10.597 62.5118H10.5663L7.85686 71.3315H3.76453L0 57.9739Z" fill="#26A9E0"/>
<path d="M22.4849 57.9739H35.1818V61.0726H26.0445V63.2135H34.7004V65.9793H26.0445V68.1202H35.3918V71.3315H22.4849V57.9739Z" fill="#26A9E0"/>
<path d="M37.5427 57.9739H47.7863C50.6238 57.9739 52.0016 58.8599 52.0016 61.4823C52.0016 63.7718 51.2794 64.2122 50.2858 64.5451V64.6015C51.8428 64.8217 52.4165 65.7846 52.4165 67.7924C52.4165 70.7272 50.9106 71.3367 48.8722 71.3367H37.5376V57.9739H37.5427ZM41.1024 63.2698H47.4022C48.0578 63.2698 48.4419 62.9932 48.4419 62.2352C48.4419 61.4618 48.0578 61.1852 47.4022 61.1852H41.1024V63.2698ZM41.1024 68.1202H47.4841C48.2524 68.1202 48.7646 67.9153 48.7646 67.1368C48.7646 66.2353 48.2524 66.0305 47.4841 66.0305H41.1024V68.1202Z" fill="#26A9E0"/>
<path d="M54.3628 66.9575H57.9224C57.9429 68.3762 58.4346 68.4889 59.4641 68.4889H63.8228C64.5757 68.4889 65.344 68.3967 65.344 67.3621C65.344 66.1994 64.9291 66.1277 60.3399 66.1277C54.9876 66.1277 54.3782 65.3902 54.3782 62.1071C54.3782 59.6896 54.5677 57.8253 59.0595 57.8253H64.0276C68.1302 57.8253 68.5195 59.4284 68.5195 61.7742V62.1993H64.9598C64.9598 61.2211 64.8625 60.8164 63.2286 60.8164H59.2848C58.4858 60.8164 57.9378 61.134 57.9378 61.851C57.9378 63.0137 58.3732 63.0495 62.1889 63.029C67.7205 63.0137 69.0009 63.3978 69.0009 67.2904C69.0009 70.8859 67.9458 71.48 63.2133 71.48H58.9007C55.6637 71.48 54.3628 70.7784 54.3628 67.8845V66.9575Z" fill="#929497"/>
<path d="M75.3522 66.681L68.9243 57.9688H73.2215L77.1346 63.4286L81.0476 57.9688H85.3448L78.9118 66.681V71.3316H75.3522V66.681Z" fill="#929497"/>
<path d="M85.4319 66.9575H88.9915C89.0069 68.3762 89.5037 68.4889 90.5281 68.4889H94.8919C95.6448 68.4889 96.413 68.3967 96.413 67.3621C96.413 66.1994 95.9931 66.1277 91.409 66.1277C86.0516 66.1277 85.4421 65.3902 85.4421 62.1071C85.4421 59.6896 85.6367 57.8253 90.1234 57.8253H95.0916C99.1942 57.8253 99.5834 59.4284 99.5834 61.7742V62.1993H96.0238C96.0238 61.2211 95.9316 60.8164 94.2926 60.8164H90.3488C89.5447 60.8164 89.0018 61.134 89.0018 61.851C89.0018 63.0137 89.432 63.0495 93.2529 63.029C98.7844 63.0137 100.065 63.3978 100.065 67.2904C100.065 70.8859 99.0098 71.48 94.2772 71.48H89.9647C86.7226 71.48 85.4268 70.7784 85.4268 67.8845V66.9575H85.4319Z" fill="#929497"/>
<path d="M101.361 57.9739H114.929V61.2979H109.924V71.3367H106.365V61.2979H101.361V57.9739Z" fill="#929497"/>
<path d="M116.957 57.9739H129.654V61.0726H120.516V63.2135H129.172V65.9793H120.516V68.1202H129.864V71.3315H116.957V57.9739Z" fill="#929497"/>
<path d="M131.989 57.9739H137.459L141.48 66.5734L145.506 57.9739H150.976V71.3315H147.513V61.7384H147.483L142.817 71.3315H140.153L135.487 61.7384H135.457V71.3315H131.994V57.9739H131.989Z" fill="#929497"/>
<path d="M50.8906 13.3782C50.8137 13.4704 50.742 13.5574 50.742 13.5574L50.8752 13.6701L51.121 13.5933L50.8291 13.9774L50.701 13.916L50.3272 14.0235L50.4142 13.8033L50.3937 13.7982C50.5576 13.6599 50.7215 13.5165 50.8906 13.3782ZM54.7985 11.1451L54.5117 11.1655C54.3939 11.2168 54.2709 11.2731 54.1531 11.3294L54.7985 11.1451ZM61.8666 9.85436C61.8871 9.84924 61.9178 9.84412 61.9485 9.84412C61.7693 9.83388 61.59 9.82875 61.4056 9.82363C61.4568 9.86972 61.5183 9.92095 61.549 9.94143C61.59 9.94143 61.7795 9.87485 61.8666 9.85436ZM49.733 14.4794L49.7945 14.3564C49.7433 14.4077 49.6869 14.4589 49.6357 14.5101L49.733 14.4794ZM71.0244 13.5421L70.881 13.4908L71.1729 13.9774L71.4034 13.9569L71.2037 13.7213C71.2037 13.7213 71.3932 13.7367 71.4597 13.7725C71.3266 13.6547 71.1934 13.5421 71.0602 13.4294C70.8912 13.3884 70.6966 13.3269 70.6966 13.3269L71.0244 13.5421ZM76.9093 25.773C76.9093 34.5927 69.749 41.7325 60.9447 41.7325C52.13 41.7325 44.98 34.5927 44.98 25.773C44.98 24.2313 45.2053 22.746 45.61 21.3375C45.61 21.3784 45.6151 21.4143 45.6202 21.445C45.6305 21.5475 45.866 21.8906 45.9019 21.9931C45.9378 22.1723 45.8148 22.5616 45.8251 22.746C45.8353 22.7921 45.8609 22.8894 45.8609 22.9303C45.8609 22.9969 45.8148 23.1096 45.8148 23.1557C45.82 23.2274 45.9173 23.4169 45.9173 23.4169L45.9019 23.6372L45.9736 24.0315C45.9736 24.0315 46.0402 23.9803 46.0402 23.9496C46.0504 23.8779 45.9839 23.7959 45.9685 23.7242C45.9531 23.6525 46.0095 23.4989 46.0095 23.4169C46.0095 23.335 45.9378 23.1916 45.9378 23.1096C45.9326 23.043 45.9173 22.7664 45.9531 22.8228C46.0146 22.915 46.0299 23.0277 46.0299 23.0277C46.0299 23.0277 46.1017 23.212 46.1119 23.2735C46.1273 23.3452 46.0914 23.5296 46.1017 23.6115C46.1119 23.6781 46.1631 23.8984 46.1938 23.9906C46.2195 24.0623 46.3014 24.2364 46.3219 24.3184C46.3373 24.431 46.2656 24.6718 46.2809 24.7844C46.3065 24.9074 46.4653 25.1276 46.5473 25.2249C46.6394 25.3325 46.8187 25.5476 46.9468 25.563C47.0082 25.5681 47.1107 25.4451 47.1721 25.4605C47.2438 25.4708 47.3565 25.6859 47.3565 25.6859L47.4999 26.0137C47.4999 26.0137 47.6792 26.0188 47.7202 26.0393C47.8072 26.0495 47.8943 26.1366 47.9506 26.1929C48.0172 26.2749 48.1248 26.3978 48.1401 26.4951C48.1555 26.5822 48.1196 26.7768 48.1401 26.8383C48.1504 26.8997 48.2374 27.0022 48.2887 27.038C48.3245 27.0688 48.386 27.1046 48.4116 27.1405C48.4372 27.1763 48.4167 27.2634 48.4372 27.3044C48.4731 27.3761 48.6421 27.4375 48.7035 27.4888C48.7394 27.5246 48.8213 27.6219 48.8213 27.6219L48.9084 27.5246C48.9084 27.5246 48.8777 27.4273 48.893 27.3761C48.893 27.3402 48.975 27.2634 49.016 27.248C49.0569 27.248 49.1235 27.3146 49.144 27.3505C49.1799 27.4119 49.2157 27.5605 49.2311 27.6373C49.2669 27.8114 49.3335 27.919 49.3386 28.0982C49.3489 28.2263 49.226 28.6412 49.226 28.6412C49.226 28.6412 49.2003 28.928 49.1696 29.0202C49.144 29.0919 49.0313 29.2199 49.0006 29.2916C48.9801 29.348 48.9545 29.4811 48.9494 29.5426C48.934 29.6399 48.8879 29.8345 48.9238 29.9165C48.9443 29.9575 48.9852 30.0241 48.9852 30.065C48.9852 30.1214 48.9033 30.1265 48.893 30.1777C48.8777 30.2392 48.9801 30.3672 48.9699 30.4287C48.9699 30.4645 48.9033 30.5567 48.9033 30.5567C48.9033 30.5567 49.185 31.0535 49.2618 31.2277C49.3796 31.5247 49.3899 32.0011 49.5435 32.2623C49.6562 32.4825 49.9993 32.8871 50.1274 33.0306C50.2606 33.1791 50.4296 33.4198 50.532 33.5376C50.6191 33.6298 50.8137 33.7988 50.8649 33.9064C50.952 34.1215 50.9469 34.603 51.0288 34.8181C51.0493 34.8642 51.1108 34.9615 51.1313 35.0076C51.1313 35.0639 51.08 35.1817 51.0852 35.238C51.0954 35.2944 51.1876 35.4685 51.1876 35.4685C51.1876 35.4685 51.1466 36.0524 51.2286 36.2317C51.2593 36.3136 51.4027 36.4366 51.4181 36.5185C51.4335 36.6005 51.3566 36.7695 51.3822 36.8412C51.413 36.9334 51.5205 36.9897 51.5564 37.0409C51.5922 37.087 51.5922 37.2202 51.6076 37.2714C51.6383 37.3431 51.6947 37.4968 51.7408 37.5531C51.792 37.6453 52.0276 37.8655 52.0276 37.8655C52.0276 37.8655 52.591 38.2907 52.8163 38.3316C52.8573 38.3367 52.9905 38.3111 52.9905 38.3111L52.9649 38.1421L53.1134 38.1011L52.9649 38.0089L52.9188 37.8963L53.2107 37.9424L53.1698 37.7938L53.6615 37.8655L53.8407 37.7016L53.6819 37.5121L53.7844 37.4046L53.9329 37.4917L54.1429 37.3021L54.2402 37.0409L54.5526 36.8873L54.5834 36.6363L54.7473 36.5339C54.7473 36.5339 54.7217 36.3188 54.7319 36.247C54.7422 36.1549 54.8292 35.8885 54.8292 35.8885L55.449 35.5761L55.8536 35.6222L55.8075 35.4429L56.166 35.2944L56.0636 35.1664L56.2377 34.8385L56.2787 34.6081L56.3862 34.5005L56.2172 34.4186C56.2172 34.4186 56.3094 34.0959 56.3094 34.0088C56.3197 33.8398 56.3248 33.3071 56.3248 33.3071C56.3248 33.3071 56.6577 32.9281 56.755 32.7898C56.837 32.6823 57.0623 32.3237 57.0623 32.3237L57.0265 31.2328L56.7345 31.2891L55.8587 30.567C55.8587 30.567 55.6692 30.6182 55.6077 30.6028C55.5616 30.5875 55.4951 30.4953 55.4643 30.4748C55.3926 30.4389 55.1673 30.3672 55.1673 30.3672L55.029 30.1214L54.4297 29.8601L54.2044 29.2353L53.8971 29.0868C53.8971 29.0868 53.7997 28.7282 53.7332 28.6258C53.6256 28.4619 53.1749 28.0982 53.1749 28.0982C53.1749 28.0982 52.9956 28.0009 52.9342 28.0163C52.8881 28.0266 52.842 28.1085 52.7959 28.1085C52.7088 28.129 52.5705 28.0009 52.4988 27.9292C52.3656 27.7756 52.2427 27.3658 52.1044 27.2224C52.0634 27.1866 51.8944 27.2071 51.8944 27.2071L52.0481 27.0175C52.0481 27.0175 51.8125 27.0175 51.7356 27.0175C51.6742 27.0175 51.4642 26.8844 51.4642 26.8844L51.2747 27.0329C51.2747 27.0329 51.0852 26.9458 51.0135 26.9407C50.9418 26.9356 50.7267 26.9663 50.7267 26.9663C50.7267 26.9663 50.7779 26.7563 50.7369 26.7C50.7113 26.6693 50.6037 26.6846 50.5679 26.6539C50.5167 26.6181 50.4962 26.4081 50.4962 26.4081C50.4962 26.4081 50.4193 26.4439 50.4091 26.4695C50.3835 26.5207 50.4193 26.6949 50.4193 26.6949L50.3681 26.7051L50.3118 26.3671C50.3118 26.3671 50.1633 26.4951 50.1018 26.531C50.0455 26.5719 49.8508 26.6744 49.8508 26.6744C49.8508 26.6744 49.6767 26.7973 49.6306 26.8485C49.5896 26.9254 49.564 27.0739 49.5384 27.1405C49.5128 27.2019 49.3899 27.3812 49.3899 27.3812C49.3899 27.3812 49.2618 27.1405 49.1799 27.079C49.1338 27.0483 49.0262 27.0483 48.9852 27.0739C48.9238 27.0995 48.8469 27.2532 48.7752 27.248C48.6626 27.2378 48.555 26.9868 48.514 26.8895C48.4833 26.8178 48.4526 26.6693 48.4935 26.5668C48.4987 26.4951 48.6011 26.4029 48.5909 26.2954C48.5857 26.2237 48.4884 26.111 48.4987 26.0239C48.514 25.9573 48.6626 25.8139 48.6626 25.8139L48.6677 25.6398C48.6677 25.6398 48.555 25.6551 48.5192 25.6398C48.4833 25.6244 48.4577 25.5015 48.4167 25.4861C48.3552 25.4605 48.1709 25.5373 48.1709 25.5373C48.1709 25.5373 47.9301 25.563 47.8994 25.5015C47.838 25.3888 48.0275 25.1583 48.0428 25.0354C48.048 24.9688 48.0377 24.7639 48.0479 24.6922C48.0633 24.6052 48.1504 24.5232 48.176 24.4464C48.1914 24.3542 48.2067 24.1032 48.2067 24.1032C48.2067 24.1032 48.0428 24.0725 47.9967 24.0776C47.9506 24.0879 47.8636 24.1545 47.8328 24.1852C47.7714 24.2466 47.7201 24.4157 47.6843 24.4976C47.6587 24.5591 47.5972 24.764 47.5972 24.764C47.5972 24.764 47.418 25.0098 47.3258 24.9944C47.208 24.9893 47.0338 24.6103 47.0338 24.6103C47.0338 24.6103 46.9468 24.2057 46.9468 24.0571C46.9468 23.965 46.9519 23.6628 46.9621 23.5347C46.9724 23.3913 47.0031 23.1199 47.0492 23.0021C47.0953 22.8842 47.3104 22.5565 47.3104 22.5565C47.3104 22.5565 47.5511 22.3464 47.6536 22.3362C47.7253 22.3362 47.8584 22.4438 47.9301 22.4438C47.9865 22.4438 48.1401 22.3926 48.176 22.3413C48.1914 22.3004 48.1709 22.2133 48.1913 22.1774C48.2477 22.1262 48.4116 22.0904 48.4731 22.0904C48.5345 22.1006 48.6062 22.1672 48.6523 22.1672C48.683 22.1672 48.7394 22.1262 48.7701 22.1262C48.8316 22.1262 48.9084 22.1979 48.9391 22.2389C48.9443 22.2799 48.8982 22.3874 48.893 22.4335C48.893 22.5001 48.9391 22.7152 48.9391 22.7152C48.9391 22.7152 48.9084 22.8382 48.9238 22.8791C48.9238 22.9099 48.975 22.9713 48.975 23.0072C48.9852 23.0994 48.8777 23.3862 48.8777 23.3862L49.0877 23.3452C49.0877 23.3452 49.1901 23.1711 49.2208 23.0942C49.2464 23.0072 49.2618 22.833 49.2823 22.7306C49.2874 22.6384 49.2977 22.4489 49.2823 22.3618C49.2823 22.2594 49.2106 21.9572 49.2106 21.9572L49.3899 21.5577L49.5998 21.2555C49.5998 21.2555 49.6357 21.066 49.6921 21.0353C49.7177 21.0302 49.7996 21.0814 49.8406 21.0455C49.8713 21.0097 49.8713 20.9124 49.9123 20.8765C49.9328 20.8458 50.0454 20.856 50.0659 20.8304C50.0967 20.7946 50.0813 20.6921 50.1172 20.6665C50.153 20.6307 50.235 20.6307 50.2657 20.605C50.3528 20.5129 50.2657 20.2824 50.3118 20.1543C50.3374 20.0877 50.4347 19.9853 50.4654 19.9136C50.4962 19.8419 50.5115 19.6729 50.5474 19.6063C50.5781 19.5602 50.6549 19.5038 50.6806 19.4424C50.7062 19.3912 50.6908 19.2785 50.7215 19.2375C50.8137 19.1197 51.2644 18.9866 51.2644 18.9866L51.4078 19.0378L51.4539 18.9148L51.4437 18.7305L51.3361 18.8534C51.3361 18.8534 51.3054 18.7407 51.3259 18.6946C51.3515 18.6127 51.6025 18.3771 51.71 18.29C51.8022 18.2132 52.0071 18.08 52.1147 18.0134C52.1864 17.9673 52.422 17.8444 52.422 17.8444L52.1864 18.0851L52.2427 18.331L52.422 18.2285L52.5859 17.9878L52.9034 17.9161L53.0724 17.7624L53.2261 17.8188L53.39 17.7829H53.2261L53.3183 17.4142L53.1851 17.4398L53.052 17.6498L52.6525 17.7419L52.6166 17.66L52.7856 17.6754L52.9649 17.5678L52.8932 17.5115L52.7242 17.5422L52.6729 17.4398L52.4937 17.619L52.509 17.4705L52.6525 17.2246L52.4732 17.3988L52.3656 17.2656L52.509 17.2298L52.6525 17.1222L52.7242 16.9429L52.4527 16.9993L51.8278 17.3424L52.2171 16.9686L52.422 16.82L52.76 16.6766L53.2619 16.6254L53.6102 16.5844L53.7844 16.2822L54.107 16.1542L54.3939 16.0108L54.3426 15.8571L54.5885 15.6369L54.5117 15.6215V15.2527H53.979L53.7946 15.263L53.7127 15.2015L53.6051 14.9198L53.5283 14.6791L53.4054 14.3769L53.0776 14.7406L52.7907 14.9967L52.6422 14.9608L52.509 14.7815L52.6422 14.5459L52.3912 14.8123L52.3503 14.7354H52.1812L51.8688 14.6842L51.5257 14.6996L51.4335 14.8328L51.2696 15.012L51.3976 14.9813L51.413 15.1349L51.1466 15.391L51.3105 15.4371L51.2696 15.642L51.2183 15.852L51.0135 16.0722L50.6959 16.3181L50.7318 16.7176L50.6088 16.9942L50.5525 17.2912H50.404L50.3323 16.7791H50.4654L50.5218 16.5639L50.4193 16.6612V16.4205L50.4347 16.2566L50.235 16.231L50.0659 16.3693L49.9533 16.2566L49.7689 16.231L49.5845 16.1696L49.3489 16.2771L49.3233 16.0057L49.1338 16.0569L49.4462 15.6062L49.8713 15.1606L50.1786 14.8174L50.7164 14.2898L50.3732 14.7201H50.573H50.8803H51.0852L51.2081 14.464L51.1671 14.2079H50.952L51.1159 14.044L51.4591 13.875L51.6844 13.8545L51.582 14.2284L52.0173 14.2079H52.3195L52.6166 14.2489L52.9342 14.2591L53.2773 14.1721L53.2466 14.0235L53.3797 14.044L53.5693 14.0184L53.4873 13.9877L53.5693 13.916L53.7127 13.793L53.6256 13.6957H53.4566L53.3337 13.496L53.4566 13.3935L53.6256 13.4448L53.8919 13.5267L53.9636 13.3474L54.0866 13.3833L54.23 13.2706L54.3068 13.1835H54.1787C54.1787 13.1835 53.9175 13.0094 53.8305 12.994C53.7741 12.9838 53.5949 12.994 53.5949 12.994L53.6307 12.6355C53.6307 12.6355 53.3849 12.6918 53.3234 12.6918C53.2671 12.6918 53.0776 12.6099 53.0212 12.6099C52.929 12.5945 52.801 12.6918 52.801 12.6918L52.5859 12.5279C52.5859 12.5279 52.2632 12.6201 52.1454 12.6714C51.92 12.7738 51.3669 13.1938 51.3669 13.1938L51.4796 12.9582C51.4796 12.9582 51.4181 12.9889 51.3464 13.0299C51.5666 12.8609 51.7869 12.7021 52.0173 12.5484L52.0634 12.5279L52.1352 12.4716C52.7754 12.0414 53.4515 11.6624 54.148 11.3294L53.6358 11.6265L54.0814 11.7341C54.0814 11.7341 54.7831 11.5241 55.0238 11.5292C55.116 11.5343 55.3158 11.5753 55.3875 11.6316C55.4541 11.688 55.4797 11.8467 55.4797 11.8467L55.8433 11.7904L56.0072 12.0004L55.8126 12.2514L56.1711 12.1028L56.2326 12.2667C56.2326 12.2667 56.0072 12.3487 55.9407 12.3948C55.8382 12.4562 55.5872 12.7072 55.5872 12.7072C55.5872 12.7072 56.0328 13.1477 56.1148 13.3679C56.1558 13.4755 56.1558 13.9416 56.1558 13.9416L56.5501 13.8647L56.8011 14.044C56.8011 14.044 57.1545 13.8443 57.2262 13.7674C57.3748 13.6138 57.4157 13.3013 57.5489 13.1272C57.6565 12.9889 57.9279 12.7431 58.0969 12.6765C58.2045 12.6355 58.4555 12.6867 58.563 12.6355C58.9062 12.5228 59.4491 11.9902 59.7974 11.8826C60.0381 11.8211 60.5554 11.8775 60.7961 11.8109C60.9088 11.7904 61.2315 11.6316 61.2315 11.6316C61.2315 11.6316 60.8525 11.7341 60.7961 11.6316C60.7603 11.5753 60.8678 11.4011 60.9344 11.3807C60.9856 11.3755 61.1188 11.4575 61.1188 11.4575C61.1188 11.4575 61.252 11.4882 61.2981 11.4882C61.3493 11.4882 61.5029 11.4216 61.5029 11.4216C61.5029 11.4216 61.252 11.3807 61.2571 11.3141C61.2673 11.2526 61.4722 11.2885 61.5029 11.2321C61.5388 11.2014 61.4466 11.0938 61.4773 11.0529C61.5132 10.9965 61.9024 11.0529 61.9024 11.0529L62.1534 10.7353L61.841 10.5561L62.2405 10.3358L62.1073 10.1361C62.1073 10.1361 62.1176 10.0131 62.1534 9.97216C62.22 9.9107 62.4146 9.97216 62.4146 9.97216L62.6349 9.8646C65.1036 10.1207 67.4033 10.9402 69.411 12.1899C69.3496 12.1745 69.2881 12.1592 69.242 12.1489C69.1344 12.1131 68.8937 12.0055 68.8066 12.0055C68.7042 12.0055 68.402 12.1182 68.402 12.1182L68.2689 12.2258L67.6901 12.1336L67.3674 12.364L67.6901 12.5792L67.3674 12.6867L67.2189 12.8711L67.0038 13.076L66.7579 13.0811L66.1791 13.4089L66.0716 13.6957L66.1791 13.9825L66.3584 14.1823C66.3584 14.1823 66.6299 14.2335 66.7221 14.2181C66.8296 14.1925 67.1574 14.0542 67.1574 14.0542L67.475 14.4794C67.475 14.4794 67.6594 14.6689 67.6184 14.7354C67.5877 14.7867 67.3725 14.7354 67.3725 14.7354L67.224 14.8379L67.1574 14.3564L66.9167 14.464C66.9167 14.464 66.7426 14.4691 66.7221 14.5152C66.6401 14.6433 66.8757 14.9506 66.8194 15.0888C66.8143 15.1401 66.6094 15.2323 66.5274 15.2425C66.4148 15.2681 66.046 15.2937 66.046 15.2937C66.046 15.2937 66.1177 15.4115 66.1023 15.4576C66.0972 15.5396 65.9692 15.6727 65.8923 15.7086C65.8257 15.7496 65.667 15.7905 65.6004 15.8315C65.5338 15.8827 65.4262 16.0518 65.3699 16.0876C65.3187 16.1286 65.1958 16.1798 65.1343 16.1798C65.0626 16.1798 64.8372 16.0927 64.8372 16.0927C64.8372 16.0927 64.7758 16.1798 64.7706 16.2208C64.7655 16.2464 64.7809 16.3539 64.7809 16.3539C64.7809 16.3539 64.6068 16.2874 64.5402 16.2822C64.4787 16.2822 64.3046 16.4 64.3046 16.4C64.3046 16.4 64.3558 16.5025 64.3916 16.5281C64.4787 16.5895 64.7092 16.7227 64.7348 16.8251C64.7604 16.9327 64.9141 17.0249 64.9141 17.0249C64.9141 17.0249 64.8116 17.2349 64.7911 17.3066C64.7758 17.409 64.8168 17.6805 64.7502 17.7266C64.6836 17.7676 64.4224 17.6856 64.4224 17.6856L63.8846 17.6344L63.6285 17.5422C63.6285 17.5422 63.4902 17.6498 63.4339 17.6754C63.3826 17.701 63.1726 17.7419 63.1726 17.7419L63.3109 18.1568C63.3109 18.1568 63.3417 18.4078 63.3161 18.5102C63.2853 18.6126 63.1112 18.8943 63.1112 18.8943L63.2187 19.0224L63.2853 19.4475L63.5619 19.4117L63.7873 19.5756C63.7873 19.5756 64.0792 19.4629 64.1816 19.4475C64.2841 19.4219 64.4992 19.4373 64.6068 19.4117C64.7041 19.386 64.9038 19.3092 64.9653 19.2375C65.0114 19.1812 65.0575 18.9456 65.0575 18.9456C65.0575 18.9456 65.0575 18.5871 65.1138 18.4897C65.1702 18.3975 65.3802 18.3105 65.4672 18.2439C65.5338 18.1927 65.7028 18.1005 65.7387 18.0237C65.7694 17.9519 65.6823 17.8341 65.7131 17.7573C65.7387 17.7163 65.8514 17.6907 65.8975 17.6856C65.9896 17.6754 66.3123 17.7368 66.3123 17.7368L66.6504 17.6395C66.6504 17.6395 66.763 17.5217 66.804 17.5115C66.8808 17.4961 66.9935 17.5473 66.9935 17.5473C66.9935 17.5473 67.2906 17.829 67.3572 17.9315C67.4033 18.0032 67.4596 18.1824 67.5108 18.2234C67.5825 18.2849 67.7823 18.3463 67.8694 18.3924C67.9513 18.4539 68.0435 18.6229 68.1254 18.6844C68.1818 18.7458 68.3508 18.8175 68.3713 18.9046C68.3815 18.9814 68.2228 19.2273 68.2228 19.2273C68.2228 19.2273 68.2484 19.3195 68.2791 19.3195C68.3457 19.3092 68.4891 19.0275 68.4891 19.0275C68.4891 19.0275 68.5966 18.9814 68.5966 18.92C68.5966 18.8585 68.443 18.7458 68.443 18.7458L68.4942 18.6024L68.7401 18.7714L68.8476 18.6792C68.8476 18.6792 68.653 18.5051 68.5762 18.4539C68.5249 18.418 68.3405 18.3463 68.3405 18.3463C68.3405 18.3463 68.1101 18.2234 68.0486 18.1517C68.0025 18.0851 67.9615 17.9263 67.9154 17.8649C67.854 17.8085 67.6747 17.7573 67.6235 17.6856C67.5672 17.6139 67.5569 17.3117 67.5569 17.3117L67.8796 17.2707L68.1357 17.619L68.3149 17.8649L68.6018 18.0134L68.7759 18.1927C68.7759 18.1927 69.0627 18.1517 69.0627 18.2592C69.0627 18.3719 69.0064 18.669 69.0218 18.8022C69.0474 18.8944 69.1396 19.0634 69.2061 19.1248C69.2625 19.1863 69.4264 19.2529 69.4776 19.3297C69.5288 19.4014 69.5903 19.6882 69.5903 19.6882C69.5903 19.6882 69.8361 19.427 69.8413 19.3092C69.8515 19.1607 69.6415 18.9251 69.6671 18.8022C69.6774 18.7356 69.8464 18.628 69.8464 18.628C69.8464 18.628 70.3585 18.6536 70.3893 18.8022C70.4046 18.8944 70.1537 19.0122 70.1947 19.1248C70.2151 19.2017 70.3842 19.1197 70.4251 19.2068C70.4763 19.2836 70.5685 19.3246 70.5685 19.3246H70.8246C70.8246 19.3246 70.8707 19.6626 70.9271 19.6729C71.0141 19.6882 71.0602 19.6985 71.1422 19.6985C71.2293 19.6985 71.388 20.0314 71.5007 20.0263C71.5724 20.0263 71.6851 19.8624 71.6851 19.8624C71.6851 19.8624 71.8132 19.9699 71.8592 19.9597C71.9002 19.9597 71.9668 19.8573 72.0027 19.8829C72.1563 19.9443 72.1102 20.5128 72.1102 20.5128L71.7978 21.3016L71.3932 21.2914L71.1985 21.2043C71.1985 21.2043 70.922 21.2965 70.8503 21.3016C70.6864 21.3016 70.4405 21.1377 70.4405 21.1377L70.1332 21.2094L70.0051 21.0199C70.0051 21.0199 69.7644 21.0045 69.7234 20.9687C69.662 20.9175 69.6773 20.7587 69.5954 20.7075C69.4725 20.646 69.0935 20.9226 69.0935 20.9226C69.0935 20.9226 69.1242 21.2709 69.0423 21.3272C68.9654 21.3784 68.7042 21.1787 68.5966 21.1428C68.4942 21.1275 68.2791 21.1633 68.2279 21.0762C68.2023 21.0097 68.274 20.8867 68.2279 20.8304C68.1664 20.728 67.9103 20.6511 67.8079 20.6255C67.7106 20.6102 67.4084 20.5641 67.4084 20.5641L67.1011 20.3182C67.1011 20.3182 67.3777 20.098 67.3777 19.9904C67.3674 19.9085 67.1625 19.7804 67.1625 19.7804C67.1625 19.7804 67.3777 19.5499 67.3418 19.4731C67.2906 19.3912 66.9423 19.4885 66.9423 19.4885C66.9423 19.4885 66.594 19.4936 66.4301 19.5243C66.384 19.5346 66.0767 19.5961 66.0767 19.5961C66.0767 19.5961 65.7643 19.468 65.6465 19.468C65.498 19.4782 65.0677 19.6882 65.0677 19.6882L64.6426 19.9853L63.8129 19.7958C63.8129 19.7958 63.7412 20.057 63.6797 20.1133C63.6285 20.1953 63.4595 20.2824 63.3775 20.3336C63.2802 20.3899 63.0958 20.5385 63.019 20.6204C62.9268 20.7433 62.8551 21.0865 62.8756 21.2094C62.9063 21.358 62.6605 21.7165 62.5171 21.8292C62.4197 21.906 62.1688 21.9726 62.092 22.0699C62.0459 22.1313 61.9741 22.3516 61.9741 22.3516L61.7641 22.4899C61.7641 22.4899 61.4056 23.0686 61.3237 23.2735C61.252 23.4528 61.1495 23.8267 61.1547 24.0213C61.1547 24.1903 61.2673 24.5232 61.2929 24.7025C61.3237 24.8664 61.2981 25.1993 61.252 25.3632C61.211 25.4861 61.0317 25.7269 61.0471 25.8549C61.0573 25.9369 61.1547 26.1007 61.1547 26.1007C61.1547 26.1007 61.001 26.5463 61.0471 26.6795C61.1137 26.869 61.549 27.0073 61.6873 27.1814C61.8 27.3249 61.7539 27.7141 61.8359 27.8626C61.9178 28.0061 62.261 28.1392 62.3941 28.2417C62.5478 28.3748 62.7834 28.759 62.9934 28.7846C63.1624 28.7948 63.4544 28.5746 63.6285 28.549C63.8026 28.5336 64.1509 28.6873 64.3199 28.6565C64.4838 28.6258 64.7758 28.3748 64.7758 28.3748L65.165 28.17C65.165 28.17 65.5389 28.0265 65.6465 28.0778C65.836 28.17 65.8565 28.718 66.046 28.7948C66.1689 28.8512 66.4455 28.6258 66.5684 28.6719C66.7016 28.7334 66.8194 29.1943 66.8194 29.1943C66.8194 29.1943 66.5684 29.7577 66.5326 29.9677C66.5223 30.0599 66.4967 30.275 66.5428 30.3621C66.6452 30.5465 67.0652 30.7667 67.1318 30.9613C67.1728 31.0843 67.0704 31.3967 67.0857 31.4633C67.1113 31.6118 67.2957 31.8679 67.306 32.0113C67.3111 32.124 67.2342 32.3647 67.2291 32.4364C67.224 32.5491 67.3418 32.8667 67.3418 32.8667L67.0857 33.2918L66.886 33.9781C66.886 33.9781 66.7528 34.352 66.763 34.4851C66.7733 34.649 66.973 35.0946 66.973 35.0946C66.973 35.0946 67.1933 35.4942 67.1933 35.6017C67.1933 35.7093 67.1164 36.0985 67.1164 36.0985C67.1164 36.0985 67.1421 36.5185 67.1933 36.6517C67.2547 36.8207 67.5006 37.1178 67.562 37.3021C67.5979 37.4097 67.5313 37.8399 67.5876 37.8809C67.6952 37.968 68.1306 37.7273 68.1306 37.7273C68.1306 37.7273 68.7196 37.5838 68.8988 37.4865C69.0423 37.4046 69.4213 37.0768 69.4213 37.0768L69.9232 36.5339C69.9232 36.5339 70.21 36.1907 70.2817 36.0729C70.3534 35.9449 70.4559 35.6734 70.5378 35.5966C70.6249 35.5044 70.8963 35.2073 70.9732 35.11C71.1012 34.9051 71.0141 34.5722 71.1473 34.3315C71.2754 34.101 71.7261 33.8552 71.9002 33.6144C72.0129 33.4403 72.1461 33.0357 72.1922 32.8615C72.228 32.7079 72.3048 32.2162 72.3048 32.2162C72.3048 32.2162 72.3356 31.6886 72.3202 31.5606C72.3048 31.3096 72.2178 30.8077 72.2895 30.5618C72.3765 30.2955 72.7504 29.8243 72.9092 29.6245C73.1192 29.3582 73.5597 28.8307 73.7389 28.5439C73.8875 28.298 74.118 27.75 74.1999 27.4734C74.287 27.2019 74.4202 26.3876 74.4202 26.3876L73.3855 26.7256L73.2729 26.362C73.2729 26.362 73.8516 26.0956 74.0616 25.9522C74.287 25.8037 74.7684 25.3735 74.9528 25.1839C75.1577 24.9791 75.4701 24.6205 75.5572 24.3081C75.5879 24.1903 75.6801 23.7089 75.6033 23.6167C75.5572 23.5552 75.2243 23.3708 75.2243 23.3708L75.214 22.8689L74.8555 23.2581L74.4611 23.0379V22.8177L74.1692 22.6435L74.1436 22.4284L74.0053 22.1723C74.0053 22.1723 74.1077 21.9009 74.1794 21.906C74.3433 21.906 74.4867 22.4847 74.4867 22.4847C74.4867 22.4847 74.5789 22.623 74.6506 22.6742C74.707 22.7203 74.9426 22.8535 74.9426 22.8535C74.9426 22.8535 75.1321 22.7204 75.1987 22.746C75.2652 22.7767 75.3011 23.0379 75.3011 23.0379L75.7211 23.2991L76.0284 23.253C76.0284 23.253 76.2333 23.2991 76.2896 23.3503C76.3459 23.4118 76.3818 23.6116 76.4228 23.6935C76.4689 23.8011 76.6174 23.9854 76.6533 24.093C76.7045 24.2415 76.725 24.7281 76.725 24.7281C76.7557 24.2723 76.7506 23.8215 76.7301 23.3657C76.8479 24.1545 76.9093 24.9586 76.9093 25.773ZM71.4956 20.3951C71.4956 20.3951 71.5161 20.4463 71.5417 20.4463C71.5673 20.4514 71.6288 20.4002 71.6288 20.4002C71.6288 20.4002 71.6851 20.3848 71.6953 20.3797C71.721 20.3694 71.8029 20.3233 71.8029 20.3233C71.8029 20.3233 71.7568 20.2977 71.7568 20.2875C71.7414 20.2516 71.8388 20.1543 71.8388 20.1543C71.8388 20.1543 71.7107 20.2414 71.6697 20.2414C71.6441 20.2414 71.5775 20.2107 71.5775 20.2107C71.5775 20.2107 71.511 20.2465 71.5058 20.2721C71.4854 20.3028 71.4956 20.3951 71.4956 20.3951ZM69.8771 20.0109L69.8925 20.098L70.0512 20.1185L70.1588 20.1851L70.3381 20.1902L70.3585 20.1543C70.3585 20.1543 70.3125 20.1492 70.2971 20.1441C70.2817 20.1441 70.2459 20.1133 70.2459 20.1133L69.8771 20.0109ZM67.644 19.5295C67.6594 19.5448 67.7362 19.5192 67.7669 19.5346C67.8079 19.5602 67.8489 19.6063 67.8898 19.6319C67.9206 19.6524 67.9923 19.678 68.0025 19.6985C68.0281 19.7241 68.0486 19.7804 68.0845 19.7856C68.0998 19.8009 68.1459 19.7804 68.1613 19.7651C68.1818 19.7548 68.2279 19.6831 68.2176 19.6524C68.2176 19.6268 68.1767 19.55 68.1767 19.55L68.1408 19.4014L67.9462 19.4321L67.8284 19.3656C67.8284 19.3656 67.7413 19.3912 67.7259 19.3912C67.7003 19.3912 67.6491 19.3707 67.6491 19.3707C67.6491 19.3707 67.6133 19.5039 67.644 19.5295ZM66.8347 18.5051L66.8911 18.5614L66.9423 18.7151L66.8808 18.8175V18.9405C66.8808 18.9405 66.9474 18.9507 66.9679 18.9405C66.9833 18.9405 67.0294 18.8841 67.0294 18.8841C67.0294 18.8841 67.1062 18.92 67.1318 18.9097C67.1574 18.8841 67.1318 18.7407 67.1318 18.7407V18.5973C67.1318 18.5973 67.1574 18.5819 67.1574 18.5666C67.1677 18.5307 67.1113 18.4385 67.1113 18.4385L67.0499 18.3719C67.0499 18.3719 66.9935 18.4641 66.9474 18.4744C66.9372 18.4795 66.8655 18.418 66.8655 18.418L66.8347 18.5051ZM63.987 14.5408L64.1304 14.6791L64.3046 14.715L64.1919 14.8481L64.5094 14.8584C64.5094 14.8584 64.6016 14.9864 64.6068 15.0376C64.6324 15.1042 64.6068 15.2681 64.6068 15.2681L64.3711 15.2527L64.4173 15.4627L64.2073 15.5447L64.407 15.7598L64.0997 16.0108L64.489 15.9852C64.489 15.9852 64.6067 15.8981 64.658 15.893C64.7092 15.8674 64.8885 15.9186 64.8885 15.9186L65.078 15.852L65.3238 15.9135L65.6106 15.6574L65.6414 15.4269C65.6414 15.4269 65.3904 15.3706 65.3289 15.3193C65.2675 15.2579 65.1958 15.0376 65.1497 14.9506C65.1036 14.8737 64.9858 14.7713 64.9243 14.7201C64.8731 14.6842 64.7041 14.6125 64.7041 14.6125L64.9243 14.2847C64.9243 14.2847 64.7143 14.2284 64.6938 14.1516C64.6631 14.0594 64.7604 13.9416 64.7604 13.9416C64.7604 13.9416 64.5504 13.962 64.489 13.9672C64.4582 13.9723 64.3609 14.003 64.3302 14.0286C64.2534 14.085 64.0997 14.3257 64.0997 14.3257L63.987 14.5408ZM63.2956 15.2886L63.1675 15.4474L63.2802 15.6523C63.2802 15.6523 63.5107 15.6523 63.5875 15.6266C63.6387 15.6113 63.7719 15.5037 63.7719 15.5037C63.7719 15.5037 64.0178 15.4986 64.0639 15.4423C64.1151 15.3654 64.0639 15.1606 64.0639 15.0786C64.0536 14.9915 64.0946 14.7354 64.0946 14.7354C64.0946 14.7354 63.6797 14.7611 63.6285 14.7918C63.5773 14.8225 63.5209 14.9762 63.5209 14.9762L63.3058 14.9506C63.3058 14.9506 63.1983 15.0735 63.1983 15.1093C63.1983 15.1708 63.2956 15.2886 63.2956 15.2886ZM49.3335 23.6679C49.4001 23.7754 49.7279 23.9701 49.7279 23.9701C49.7279 23.9701 49.6818 23.8676 49.6818 23.8267C49.6818 23.7959 49.7176 23.7396 49.7586 23.7191C49.7842 23.7037 49.8867 23.7191 49.8867 23.7191L49.8457 23.5757C49.8457 23.5757 49.5742 23.3964 49.605 23.3196C49.6101 23.3042 49.6152 23.3042 49.6152 23.3042V23.166C49.6152 23.166 49.6101 23.1198 49.5896 23.125C49.5486 23.1352 49.5589 23.2172 49.5435 23.253C49.5333 23.3042 49.5845 23.4937 49.5845 23.4937C49.5845 23.4937 49.6664 23.463 49.6818 23.4937C49.6972 23.5296 49.6101 23.6372 49.6101 23.6372C49.6101 23.6372 49.5435 23.5347 49.5282 23.4989C49.4923 23.4016 49.4513 23.1096 49.4513 23.1096L49.3233 23.0072C49.313 23.0021 49.2618 23.5245 49.3335 23.6679ZM49.943 24.4208L49.5384 24.0776C49.5384 24.0776 49.313 23.8267 49.2208 23.7652C49.1696 23.7396 49.0518 23.714 48.9955 23.7037C48.9135 23.6935 48.7547 23.714 48.6882 23.755C48.6062 23.8011 48.4423 24.0469 48.4423 24.0469C48.4423 24.0469 48.5704 24.0315 48.596 24.0469C48.6267 24.0623 48.7035 24.175 48.7035 24.175C48.7035 24.175 48.8418 24.1442 48.8879 24.1237C48.9135 24.1084 48.9699 24.011 48.9699 24.011L49.1338 24.0623C49.1338 24.0623 49.1491 24.2057 49.1696 24.2466C49.2055 24.3184 49.2618 24.4669 49.3438 24.4771C49.3745 24.4771 49.4667 24.4464 49.4974 24.4362C49.5486 24.4362 49.7074 24.4976 49.7074 24.4976L49.943 24.4208ZM50.7727 24.7281L50.6959 24.6718L50.742 24.6052L50.5423 24.5591L50.5064 24.4771L50.3579 24.4976L50.1837 24.4362L50.0403 24.513C50.0403 24.513 50.1325 24.5693 50.1479 24.6052C50.1735 24.6462 50.1786 24.7947 50.1786 24.7947L49.9123 24.7793L50.3015 24.9432L50.3579 24.8817L50.4859 24.9227L50.5576 24.8459L50.7574 24.8305L50.7727 24.7281ZM54.7473 16.9634L54.5834 16.9429L54.6397 16.7893L54.4809 16.7227V16.5844L54.2658 16.6715L54.3273 16.4922L54.0917 16.6049L54.3887 16.1388L54.0968 16.2976L53.9073 16.5844L53.6922 16.8712L53.5488 17.0812L53.4566 17.281L53.6922 17.3015H54.0353L54.1787 17.1376L54.0507 17.3629L54.4092 17.1427L54.358 17.3066L54.5475 17.2093L54.7473 16.9634ZM73.6621 32.3289L73.447 32.6157C73.447 32.6157 73.319 32.8615 73.2677 32.9435C73.2114 33.0152 73.0885 33.1688 73.0168 33.2252C72.9502 33.2713 72.7299 33.3891 72.7299 33.3891C72.7299 33.3891 72.5814 33.6913 72.5507 33.8039C72.5251 33.9115 72.5814 34.1317 72.5507 34.2342C72.5199 34.3366 72.3612 34.4698 72.3356 34.5927C72.3253 34.6695 72.3356 34.8283 72.3356 34.9205C72.3356 34.9922 72.2229 35.1663 72.2587 35.238C72.2895 35.2841 72.4278 35.2637 72.479 35.238C72.6275 35.1663 72.8375 34.8847 72.9143 34.7361C73.0526 34.4544 73.1858 33.8244 73.3394 33.5479C73.3753 33.4915 73.4829 33.4044 73.5033 33.3481C73.5187 33.2866 73.4982 33.1688 73.5085 33.1074C73.529 33.0408 73.6468 32.9998 73.6621 32.9384C73.7236 32.8001 73.6621 32.3289 73.6621 32.3289ZM74.1333 19.9802C74.1538 20.0416 74.2255 20.1492 74.2767 20.1799C74.3433 20.226 74.497 20.3848 74.497 20.3848C74.497 20.3848 74.7531 20.3951 74.7838 20.3336C74.8453 20.2004 74.6506 19.9238 74.6045 19.7856C74.5738 19.6985 74.5892 19.4834 74.5687 19.3809C74.5533 19.2734 74.5072 19.0582 74.456 18.9609C74.3945 18.838 74.0975 18.5717 74.0975 18.5717C74.0975 18.5717 73.9899 18.3873 73.9899 18.3105C73.9745 18.249 74.036 18.08 73.9899 18.0288C73.9541 17.9929 73.8004 18.0134 73.7543 18.0441C73.7082 18.0851 73.6775 18.208 73.6621 18.2797C73.6519 18.3361 73.7543 18.4744 73.7697 18.5358C73.7902 18.6075 73.7441 18.7766 73.7697 18.8534C73.8158 19.0019 74.0565 19.217 74.0975 19.3707C74.1436 19.55 74.0667 19.8265 74.1333 19.9802ZM70.6505 18.6127C70.6505 18.6127 70.881 18.5819 70.968 18.6075C71.0295 18.628 71.2293 18.7561 71.2293 18.7561L71.4802 18.5666L71.849 18.6639L72.3304 18.9456C72.3304 18.9456 72.6582 19.0531 72.7658 19.0122C72.8529 18.9763 73.0116 18.7868 72.986 18.6946C72.9553 18.6127 72.7248 18.587 72.689 18.5153C72.6634 18.4385 72.776 18.2439 72.776 18.2439L72.5251 18.08C72.5251 18.08 72.2741 18.08 72.228 18.0697C72.1409 18.0544 72.0078 17.9315 72.0078 17.9315L71.5878 17.8905C71.5878 17.8905 71.5724 17.6651 71.5058 17.6088C71.47 17.5729 71.2907 17.5729 71.2907 17.5729C71.2907 17.5729 71.1217 17.3783 71.0398 17.3937C70.9783 17.409 70.968 17.5832 70.9322 17.6498C70.8861 17.7266 70.6812 17.8393 70.6556 17.9366C70.63 17.9827 70.6915 18.0851 70.6915 18.1466C70.6864 18.2183 70.5481 18.3156 70.5429 18.3924C70.5327 18.4488 70.6505 18.6127 70.6505 18.6127Z" fill="#00ADEE"/>
<path d="M60.94 46.3575C60.5405 46.3575 60.1359 46.3473 59.7313 46.3217C54.1587 46.0092 49.042 43.5405 45.3236 39.3765C41.6052 35.2125 39.7357 29.8448 40.0533 24.2723C40.6832 13.2194 49.8462 4.56354 60.9093 4.56354C61.3037 4.56354 61.7083 4.57378 62.1027 4.59939C73.6062 5.25498 82.4363 15.1503 81.7807 26.6539C81.1558 37.7017 71.998 46.3575 60.94 46.3575ZM60.9093 6.96567C51.1215 6.96567 43.0137 14.6279 42.4554 24.4106C42.1737 29.3429 43.8332 34.0908 47.1214 37.7785C50.4096 41.4662 54.9373 43.6481 59.8696 43.9247C60.2281 43.9451 60.5866 43.9554 60.94 43.9554C70.7278 43.9554 78.8305 36.2932 79.3888 26.5156C79.9675 16.3335 72.1516 7.57517 61.9746 6.9964C61.6161 6.97591 61.2627 6.96567 60.9093 6.96567Z" fill="#929497"/>
<path fill-rule="evenodd" clip-rule="evenodd" d="M62.7424 5.36766H59.0957L59.9562 0H61.882L62.7424 5.36766Z" fill="#929497"/>
<path fill-rule="evenodd" clip-rule="evenodd" d="M76.4176 12.5433L73.8413 9.96194L78.2409 6.77617L79.6033 8.13857L76.4176 12.5433Z" fill="#929497"/>
<path fill-rule="evenodd" clip-rule="evenodd" d="M81.0176 27.2839V23.6372L86.3801 24.4925V26.4235L81.0176 27.2839Z" fill="#929497"/>
<path fill-rule="evenodd" clip-rule="evenodd" d="M73.8413 40.9591L76.4176 38.3777L79.6033 42.7773L78.2409 44.1449L73.8413 40.9591Z" fill="#929497"/>
<path fill-rule="evenodd" clip-rule="evenodd" d="M59.0957 45.5533H62.7424L61.8871 50.9159H59.9562L59.0957 45.5533Z" fill="#929497"/>
<path fill-rule="evenodd" clip-rule="evenodd" d="M45.4209 38.3777L48.0023 40.9591L43.6026 44.1449L42.2402 42.7773L45.4209 38.3777Z" fill="#929497"/>
<path fill-rule="evenodd" clip-rule="evenodd" d="M40.8264 23.6372V27.2839L35.4639 26.4286V24.4925L40.8264 23.6372Z" fill="#929497"/>
<path fill-rule="evenodd" clip-rule="evenodd" d="M48.002 9.96194L45.4206 12.5382L42.2349 8.14369L43.6024 6.77617L48.002 9.96194Z" fill="#929497"/>
<path fill-rule="evenodd" clip-rule="evenodd" d="M70 7.44202L66.6094 6.10011L69.3803 1.42901L71.1729 2.14094L70 7.44202Z" fill="#929497"/>
<path fill-rule="evenodd" clip-rule="evenodd" d="M80.0852 19.1402L78.6357 15.7956L83.8959 14.4486L84.6641 16.2208L80.0852 19.1402Z" fill="#929497"/>
<path fill-rule="evenodd" clip-rule="evenodd" d="M78.9429 34.5415L80.2848 31.1509L84.9508 33.9218L84.2439 35.7144L78.9429 34.5415Z" fill="#929497"/>
<path fill-rule="evenodd" clip-rule="evenodd" d="M67.2397 44.6263L70.5894 43.1717L71.9365 48.4318L70.1643 49.2052L67.2397 44.6263Z" fill="#929497"/>
<path fill-rule="evenodd" clip-rule="evenodd" d="M51.8387 43.4791L55.2344 44.8159L52.4635 49.4921L50.6709 48.7801L51.8387 43.4791Z" fill="#929497"/>
<path fill-rule="evenodd" clip-rule="evenodd" d="M41.7586 31.7809L43.2081 35.1254L37.948 36.4725L37.1797 34.7003L41.7586 31.7809Z" fill="#929497"/>
<path fill-rule="evenodd" clip-rule="evenodd" d="M42.9058 16.3744L41.5639 19.7702L36.8877 17.0044L37.6047 15.2066L42.9058 16.3744Z" fill="#929497"/>
<path fill-rule="evenodd" clip-rule="evenodd" d="M54.6044 6.2947L51.2599 7.7493L49.9077 2.48408L51.685 1.72093L54.6044 6.2947Z" fill="#929497"/>
<path fill-rule="evenodd" clip-rule="evenodd" d="M108.644 32.8718C109.684 30.6387 109.776 28.0266 108.911 25.7166C108.06 23.4016 106.283 21.4809 104.045 20.4617C101.812 19.427 99.1945 19.3297 96.8897 20.1902C94.5746 21.0404 92.654 22.8177 91.6398 25.0559C90.6001 27.289 90.5079 29.9063 91.3684 32.2111C92.2186 34.5261 93.9908 36.4417 96.2341 37.4609C98.4723 38.5007 101.084 38.598 103.389 37.7375C105.704 36.8924 107.625 35.1151 108.644 32.8718L111.154 34.0242C110.493 35.4685 109.546 36.7797 108.383 37.8553C107.22 38.936 105.843 39.776 104.352 40.3291C102.862 40.8823 101.269 41.1384 99.6811 41.0769C98.0933 41.0155 96.5261 40.6365 95.0817 39.9757C93.6374 39.315 92.3262 38.3726 91.2506 37.2048C90.1699 36.0422 89.3248 34.6644 88.7768 33.174C88.2236 31.6835 87.9675 30.0906 88.029 28.5029C88.0853 26.9151 88.4643 25.3479 89.1302 23.9035C89.7909 22.4592 90.7384 21.148 91.9062 20.0724C93.0688 18.9917 94.4466 18.1466 95.937 17.5985C97.4224 17.0454 99.0204 16.7893 100.608 16.8508C102.196 16.9071 103.768 17.2861 105.208 17.952C106.652 18.6127 107.963 19.5602 109.039 20.728C110.119 21.8906 110.959 23.2684 111.512 24.7588C112.066 26.2493 112.322 27.8422 112.26 29.4299C112.204 31.0177 111.825 32.5901 111.159 34.0293L108.644 32.8718Z" fill="#929497"/>
<path fill-rule="evenodd" clip-rule="evenodd" d="M110.017 35.8835C110.422 35.2945 110.775 34.6747 111.072 34.0294C111.984 34.6286 112.875 35.2688 113.741 35.9449C113.526 36.37 113.285 36.79 113.034 37.1946C112.004 36.8003 111 36.3598 110.017 35.8835Z" fill="#929497"/>
<path fill-rule="evenodd" clip-rule="evenodd" d="M105.341 39.8426C105.981 39.5353 106.596 39.1665 107.174 38.7517C107.671 39.7248 108.132 40.7235 108.547 41.7377C108.148 42.004 107.738 42.2499 107.313 42.4701C106.616 41.625 105.961 40.744 105.341 39.8426Z" fill="#929497"/>
<path fill-rule="evenodd" clip-rule="evenodd" d="M99.3179 41.0001C100.03 41.0462 100.742 41.0309 101.454 40.9489C101.408 42.0399 101.32 43.1359 101.187 44.2269C100.706 44.2627 100.23 44.273 99.7481 44.2627C99.5535 43.1769 99.4152 42.0911 99.3179 41.0001Z" fill="#929497"/>
<path fill-rule="evenodd" clip-rule="evenodd" d="M93.5046 39.0385C94.1039 39.4277 94.7338 39.7606 95.3894 40.0423C94.8158 40.9694 94.1961 41.8811 93.5456 42.7671C93.1154 42.5623 92.6903 42.3369 92.2754 42.0962C92.6442 41.0564 93.0539 40.0372 93.5046 39.0385Z" fill="#929497"/>
<path fill-rule="evenodd" clip-rule="evenodd" d="M89.402 34.475C89.7297 35.1101 90.1139 35.7093 90.5492 36.2778C89.5915 36.8003 88.6029 37.2868 87.5991 37.7376C87.3225 37.3483 87.0664 36.9386 86.8257 36.5237C87.6605 35.8066 88.521 35.1203 89.402 34.475Z" fill="#929497"/>
<path fill-rule="evenodd" clip-rule="evenodd" d="M88.0754 28.4824C88.0497 29.1944 88.0856 29.9114 88.188 30.6182C87.0971 30.6029 86.001 30.5465 84.905 30.4441C84.8589 29.9678 84.8332 29.4863 84.8281 29.0049C85.9037 28.7846 86.9895 28.6105 88.0754 28.4824Z" fill="#929497"/>
<path fill-rule="evenodd" clip-rule="evenodd" d="M89.8681 22.6077C89.4942 23.2172 89.1818 23.8574 88.9154 24.5233C87.973 23.9752 87.046 23.3811 86.1445 22.7562C86.3392 22.3157 86.5492 21.8855 86.7848 21.4707C87.8347 21.8087 88.8642 22.1877 89.8681 22.6077Z" fill="#929497"/>
<path fill-rule="evenodd" clip-rule="evenodd" d="M94.3241 18.3771C93.6992 18.7202 93.1051 19.1249 92.5519 19.5756C91.9988 18.6281 91.4866 17.6651 91.0103 16.6715C91.3944 16.3847 91.7939 16.1132 92.2036 15.8623C92.9463 16.6715 93.6531 17.5115 94.3241 18.3771Z" fill="#929497"/>
<path fill-rule="evenodd" clip-rule="evenodd" d="M100.281 16.8764C99.569 16.8713 98.852 16.9276 98.1503 17.0505C98.135 15.9596 98.1606 14.8584 98.2272 13.7623C98.7035 13.7009 99.1849 13.6599 99.6613 13.6445C99.9173 14.7201 100.122 15.7957 100.281 16.8764Z" fill="#929497"/>
<path fill-rule="evenodd" clip-rule="evenodd" d="M106.212 18.5051C105.592 18.1466 104.941 17.8495 104.271 17.6088C104.793 16.651 105.356 15.7086 105.961 14.7867C106.406 14.9659 106.842 15.1657 107.267 15.3859C106.954 16.4462 106.601 17.4859 106.212 18.5051Z" fill="#929497"/>
<path fill-rule="evenodd" clip-rule="evenodd" d="M110.571 22.8433C110.207 22.2287 109.787 21.6448 109.321 21.1019C110.248 20.5231 111.201 19.9853 112.184 19.4783C112.481 19.8573 112.763 20.2466 113.024 20.6512C112.235 21.4194 111.416 22.1519 110.571 22.8433Z" fill="#929497"/>
<path fill-rule="evenodd" clip-rule="evenodd" d="M112.24 28.7641C112.225 28.0471 112.143 27.3352 112.004 26.6335C113.095 26.5823 114.197 26.5823 115.293 26.6181C115.369 27.0944 115.421 27.5708 115.451 28.0522C114.391 28.339 113.316 28.5746 112.24 28.7641Z" fill="#929497"/>
</svg>
