<svg width="49" height="48" viewBox="0 0 49 48" fill="none" xmlns="http://www.w3.org/2000/svg">
<path d="M12.5 25.5C6.71 25.5 2 30.21 2 36C2 41.79 6.71 46.5 12.5 46.5C18.29 46.5 23 41.79 23 36C23 30.21 18.29 25.5 12.5 25.5ZM12.5 43.5C8.36 43.5 5 40.14 5 36C5 31.86 8.36 28.5 12.5 28.5C16.64 28.5 20 31.86 20 36C20 40.14 16.64 43.5 12.5 43.5Z" fill="#26A9E0"/>
<path d="M18.5 1.5H6.5C4.025 1.5 2 3.525 2 6V18C2 20.475 4.025 22.5 6.5 22.5H18.5C20.975 22.5 23 20.475 23 18V6C23 3.525 20.975 1.5 18.5 1.5ZM20 18C20 18.825 19.325 19.5 18.5 19.5H6.5C5.675 19.5 5 18.825 5 18V6C5 5.175 5.675 4.5 6.5 4.5H18.5C19.325 4.5 20 5.175 20 6V18Z" fill="#26A9E0"/>
<path d="M16.25 13.5H8.75C7.925 13.5 7.25 14.175 7.25 15C7.25 15.825 7.925 16.5 8.75 16.5H16.25C17.075 16.5 17.75 15.825 17.75 15C17.75 14.175 17.075 13.5 16.25 13.5Z" fill="#26A9E0"/>
<path d="M16.25 7.5H8.75C7.925 7.5 7.25 8.175 7.25 9C7.25 9.825 7.925 10.5 8.75 10.5H16.25C17.075 10.5 17.75 9.825 17.75 9C17.75 8.175 17.075 7.5 16.25 7.5Z" fill="#26A9E0"/>
<path d="M36.5 25.5C30.71 25.5 26 30.21 26 36C26 41.79 30.71 46.5 36.5 46.5C42.29 46.5 47 41.79 47 36C47 30.21 42.29 25.5 36.5 25.5ZM36.5 43.5C32.36 43.5 29 40.14 29 36C29 31.86 32.36 28.5 36.5 28.5C40.64 28.5 44 31.86 44 36C44 40.14 40.64 43.5 36.5 43.5Z" fill="#26A9E0"/>
<path d="M42.5 1.5H30.5C28.025 1.5 26 3.525 26 6V18C26 20.475 28.025 22.5 30.5 22.5H42.5C44.975 22.5 47 20.475 47 18V6C47 3.525 44.975 1.5 42.5 1.5ZM44 18C44 18.825 43.325 19.5 42.5 19.5H30.5C29.675 19.5 29 18.825 29 18V6C29 5.175 29.675 4.5 30.5 4.5H42.5C43.325 4.5 44 5.175 44 6V18Z" fill="#26A9E0"/>
<path d="M40.25 13.5H32.75C31.925 13.5 31.25 14.175 31.25 15C31.25 15.825 31.925 16.5 32.75 16.5H40.25C41.075 16.5 41.75 15.825 41.75 15C41.75 14.175 41.075 13.5 40.25 13.5Z" fill="#26A9E0"/>
<path d="M40.25 7.5H32.75C31.925 7.5 31.25 8.175 31.25 9C31.25 9.825 31.925 10.5 32.75 10.5H40.25C41.075 10.5 41.75 9.825 41.75 9C41.75 8.175 41.075 7.5 40.25 7.5Z" fill="#26A9E0"/>
<path d="M40.5651 31.9351C39.9801 31.3501 39.0351 31.3501 38.4501 31.9351L36.5151 33.8701L34.5801 31.9351C33.9951 31.3501 33.0501 31.3501 32.4651 31.9351C31.8801 32.5201 31.8801 33.4651 32.4651 34.0501L34.4001 35.9851L32.4651 37.9201C31.8801 38.5051 31.8801 39.4501 32.4651 40.0351C32.7651 40.3351 33.1401 40.4701 33.5301 40.4701C33.9201 40.4701 34.2951 40.3201 34.5951 40.0351L36.5301 38.1001L38.4651 40.0351C38.7651 40.3351 39.1401 40.4701 39.5301 40.4701C39.9201 40.4701 40.2951 40.3201 40.5951 40.0351C41.1801 39.4501 41.1801 38.5051 40.5951 37.9201L38.6601 35.9851L40.5951 34.0501C41.1801 33.4651 41.1801 32.5201 40.5951 31.9351H40.5651Z" fill="#26A9E0"/>
<path d="M14.7504 38.2501H14.0004V32.2501C14.0004 31.6951 13.7004 31.1851 13.2054 30.9301C12.7104 30.6751 12.1254 30.6901 11.6604 31.0051L9.41035 32.5051C8.72035 32.9701 8.54035 33.9001 8.99035 34.5901C9.42535 35.2501 10.3104 35.4451 10.9854 35.0551V38.2501H10.2354C9.41035 38.2501 8.73535 38.9251 8.73535 39.7501C8.73535 40.5751 9.41035 41.2501 10.2354 41.2501H14.7354C15.5604 41.2501 16.2354 40.5751 16.2354 39.7501C16.2354 38.9251 15.5604 38.2501 14.7354 38.2501H14.7504Z" fill="#26A9E0"/>
</svg>
