<svg width="50" height="50" viewBox="0 0 50 50" fill="none" xmlns="http://www.w3.org/2000/svg">
<path d="M48.7536 6.12998L43.8363 1.21266C42.2194 -0.404221 39.4023 -0.404221 37.7854 1.21266L34.1016 4.89649C33.4515 5.54657 33.0181 6.41336 32.8848 7.31348L32.4681 10.2139L27.5341 15.1479L25.0171 12.6309C23.0168 10.6139 19.7497 10.6139 17.7328 12.6309L16.4493 13.9144L14.499 11.9641C13.8489 11.314 12.7988 11.314 12.1487 11.9641C11.4986 12.6142 11.4986 13.6643 12.1487 14.3144L12.5988 14.7645C5.24777 17.0481 -0.00292969 23.849 -0.00292969 31.9501C-0.00292969 41.9014 8.08148 49.9858 18.0328 49.9858C25.9839 49.9858 32.8848 44.6851 35.2018 37.3508L35.6352 37.7842C35.9685 38.1176 36.3853 38.2676 36.8187 38.2676C37.252 38.2676 37.6688 38.1009 38.0021 37.7842C38.6522 37.1341 38.6522 36.084 38.0021 35.4339L36.0519 33.4836L37.3354 32.2001C39.3357 30.1999 39.3357 26.9328 37.3354 24.9158L34.8184 22.3988L39.7524 17.4648L42.6528 17.0481C43.5696 16.9148 44.4197 16.4814 45.0698 15.8313L48.7536 12.1475C49.5704 11.3307 50.0037 10.2639 50.0037 9.13039C50.0037 7.9969 49.5537 6.91342 48.7536 6.11332V6.12998ZM26.6173 28.783C27.0007 29.7998 27.2007 30.8666 27.2007 31.9501C27.2007 37.0008 23.0835 41.118 18.0328 41.118C12.9821 41.118 8.86492 37.0008 8.86492 31.9501C8.86492 26.8994 12.9821 22.7822 18.0328 22.7822C19.1163 22.7822 20.1831 22.9822 21.1999 23.3656L26.6173 28.783ZM18.0328 46.6687C9.93173 46.6687 3.33085 40.0678 3.33085 31.9668C3.33085 24.7325 8.46487 18.7817 15.3658 17.5482L17.316 19.4984C10.7485 19.8652 5.51447 25.3159 5.51447 31.9668C5.51447 38.6177 11.1152 44.4684 18.0161 44.4684C24.9171 44.4684 30.1178 39.2344 30.4845 32.6669L32.4514 34.6338C31.1846 41.4847 25.1004 46.6521 18.0161 46.6521L18.0328 46.6687ZM34.9684 27.2995C35.6685 27.9996 35.6685 29.1497 34.9684 29.8665L33.6849 31.15L18.8162 16.2813L20.0998 14.9978C20.7998 14.2977 21.9667 14.2977 22.6668 14.9978L34.9684 27.2995ZM46.3866 9.83048L42.7028 13.5143C42.5528 13.6643 42.3694 13.7477 42.1694 13.781L38.7189 14.2811C38.3689 14.3311 38.0355 14.4978 37.7688 14.7478L32.4514 20.0652L29.8844 17.4982L35.2018 12.1808C35.4518 11.9308 35.6185 11.5974 35.6685 11.2307L36.1686 7.78021C36.2019 7.58018 36.2852 7.39682 36.4353 7.2468L40.1191 3.56298C40.4858 3.19626 41.1026 3.21293 41.4526 3.56298L46.3699 8.4803C46.5533 8.66366 46.6533 8.89702 46.6533 9.14705C46.6533 9.39709 46.5533 9.63045 46.3699 9.81381L46.3866 9.83048Z" fill="#26A9E0"/>
<path d="M41.9853 6.74684C41.3353 6.09676 40.2851 6.09676 39.635 6.74684C38.9849 7.39693 38.9849 8.44707 39.635 9.09716L40.8685 10.3307C41.2019 10.664 41.6186 10.8141 42.052 10.8141C42.4854 10.8141 42.9021 10.6474 43.2355 10.3307C43.8856 9.68057 43.8856 8.63043 43.2355 7.98034L42.002 6.74684H41.9853Z" fill="#26A9E0"/>
<path d="M20.6323 28.4665L17.1818 31.917L15.4482 30.1834C14.7981 29.5333 13.748 29.5333 13.0979 30.1834C12.4478 30.8335 12.4478 31.8836 13.0979 32.5337L16.015 35.4508C16.3317 35.7675 16.7484 35.9342 17.1985 35.9342C17.6485 35.9342 18.0652 35.7508 18.382 35.4508L22.9992 30.8335C23.6493 30.1834 23.6493 29.1333 22.9992 28.4832C22.3492 27.8331 21.299 27.8331 20.6489 28.4832L20.6323 28.4665Z" fill="#26A9E0"/>
</svg>
