<svg width="48" height="48" viewBox="0 0 48 48" fill="none" xmlns="http://www.w3.org/2000/svg">
<path d="M46.4 8H38V4.8C38 2.16 35.84 0 33.2 0H14.8C12.16 0 10 2.16 10 4.8V8H1.6C0.72 8 0 8.72 0 9.6V25.6C0 26.176 0.304 26.704 0.8 26.992L1.6 27.44V46.4C1.6 47.28 2.32 48 3.2 48H44.8C45.68 48 46.4 47.28 46.4 46.4V27.44L47.2 26.992C47.696 26.704 48 26.176 48 25.6V9.6C48 8.72 47.28 8 46.4 8ZM34.8 4.8V8H32.4V3.2H33.2C34.08 3.2 34.8 3.92 34.8 4.8ZM18.8 8V3.2H29.2V8H18.8ZM13.2 4.8C13.2 3.92 13.92 3.2 14.8 3.2H15.6V8H13.2V4.8ZM3.2 11.2H44.8V24.672L34.768 30.4H13.216L3.184 24.672V11.2H3.2ZM21.232 33.6H26.032V36.8C26.032 37.68 25.312 38.4 24.432 38.4H22.832C21.952 38.4 21.232 37.68 21.232 36.8V33.6ZM4.8 40H6.4C8.16 40 9.6 41.44 9.6 43.2V44.8H4.8V40ZM38.4 44.8V43.2C38.4 41.44 39.84 40 41.6 40H43.2V44.8H38.4ZM43.2 36.8H41.6C38.064 36.8 35.2 39.664 35.2 43.2V44.8H12.8V43.2C12.8 39.664 9.936 36.8 6.4 36.8H4.8V29.264L12 33.376C12.24 33.52 12.512 33.584 12.8 33.584H18.032V36.784C18.032 39.424 20.192 41.584 22.832 41.584H24.432C27.072 41.584 29.232 39.424 29.232 36.784V33.584H35.2C35.472 33.584 35.76 33.504 36 33.376L43.2 29.264V36.8Z" fill="#26A9E0"/>
<path d="M28.7364 19.7601C28.4484 21.2001 28.8164 22.6721 29.7444 23.8081C30.6724 24.9441 32.0484 25.6001 33.5204 25.6001C34.9924 25.6001 36.3684 24.9441 37.2964 23.8081C38.2244 22.6721 38.5924 21.2001 38.3044 19.7601L37.8724 17.6001H40.0004C40.8804 17.6001 41.6004 16.8801 41.6004 16.0001C41.6004 15.1201 40.8804 14.4001 40.0004 14.4001H8.00039C7.12039 14.4001 6.40039 15.1201 6.40039 16.0001C6.40039 16.8801 7.12039 17.6001 8.00039 17.6001H29.1684L28.7364 19.7601ZM35.1684 20.3841C35.2644 20.8801 35.1364 21.3921 34.8164 21.7761C34.1764 22.5601 32.8644 22.5601 32.2244 21.7761C31.9044 21.3921 31.7764 20.8801 31.8724 20.3841L32.4324 17.5841H34.6084L35.1684 20.3841Z" fill="#26A9E0"/>
</svg>
