<svg width="60" height="60" viewBox="0 0 60 60" fill="none" xmlns="http://www.w3.org/2000/svg">
<path d="M38.4375 35.625C38.4375 36.6562 39.2812 37.5 40.3125 37.5H42.1875C43.2188 37.5 44.0625 36.6562 44.0625 35.625C44.0625 34.5938 43.2188 33.75 42.1875 33.75H40.3125C39.2812 33.75 38.4375 34.5938 38.4375 35.625Z" fill="#26A9E0"/>
<path d="M56.25 3.75H43.125C43.125 2.71875 42.2812 1.875 41.25 1.875C40.2188 1.875 39.375 2.71875 39.375 3.75V26.25H33.75C32.7188 26.25 31.875 27.0938 31.875 28.125V37.5H18.75C17.7188 37.5 16.875 38.3438 16.875 39.375V43.125H3.75C2.71875 43.125 1.875 43.9688 1.875 45V56.25C1.875 57.2812 2.71875 58.125 3.75 58.125H48.75C49.7812 58.125 50.625 57.2812 50.625 56.25V28.125C50.625 27.0938 49.7812 26.25 48.75 26.25H43.125V18.75H56.25C57.2812 18.75 58.125 17.9062 58.125 16.875V5.625C58.125 4.59375 57.2812 3.75 56.25 3.75ZM5.625 46.875H16.875V54.375H5.625V46.875ZM20.625 54.375V41.25H31.875V54.375H20.625ZM46.875 54.375H35.625V30H46.875V54.375ZM54.375 15H43.125V7.5H54.375V15Z" fill="#26A9E0"/>
</svg>
