<svg width="50" height="50" viewBox="0 0 50 50" fill="none" xmlns="http://www.w3.org/2000/svg">
<path d="M45 0H5C2.25 0 0 2.25 0 5V36.6667C0 39.4167 2.25 41.6667 5 41.6667H23.3333V46.6667H20.8333C19.9167 46.6667 19.1667 47.4167 19.1667 48.3333C19.1667 49.25 19.9167 50 20.8333 50H29.1667C30.0833 50 30.8333 49.25 30.8333 48.3333C30.8333 47.4167 30.0833 46.6667 29.1667 46.6667H26.6667V41.6667H45C47.75 41.6667 50 39.4167 50 36.6667V5C50 2.25 47.75 0 45 0ZM46.6667 36.6667C46.6667 37.5833 45.9167 38.3333 45 38.3333H5C4.08333 38.3333 3.33333 37.5833 3.33333 36.6667V5C3.33333 4.08333 4.08333 3.33333 5 3.33333H45C45.9167 3.33333 46.6667 4.08333 46.6667 5V36.6667Z" fill="#26A9E0"/>
<path d="M17.4997 11.6668C17.4997 8.45016 14.883 5.8335 11.6663 5.8335C8.44967 5.8335 5.83301 8.45016 5.83301 11.6668C5.83301 14.8835 8.44967 17.5002 11.6663 17.5002C14.883 17.5002 17.4997 14.8835 17.4997 11.6668ZM9.16634 11.6668C9.16634 10.2835 10.283 9.16683 11.6663 9.16683C13.0497 9.16683 14.1663 10.2835 14.1663 11.6668C14.1663 13.0502 13.0497 14.1668 11.6663 14.1668C10.283 14.1668 9.16634 13.0502 9.16634 11.6668Z" fill="#26A9E0"/>
<path d="M38.3333 24.1665C35.1167 24.1665 32.5 26.7832 32.5 29.9998C32.5 33.2165 35.1167 35.8332 38.3333 35.8332C41.55 35.8332 44.1667 33.2165 44.1667 29.9998C44.1667 26.7832 41.55 24.1665 38.3333 24.1665ZM38.3333 32.4998C36.95 32.4998 35.8333 31.3832 35.8333 29.9998C35.8333 28.6165 36.95 27.4998 38.3333 27.4998C39.7167 27.4998 40.8333 28.6165 40.8333 29.9998C40.8333 31.3832 39.7167 32.4998 38.3333 32.4998Z" fill="#26A9E0"/>
<path d="M43.6838 6.3166C43.0338 5.6666 41.9838 5.6666 41.3338 6.3166L39.1838 8.4666L37.0338 6.3166C36.3838 5.6666 35.3338 5.6666 34.6838 6.3166C34.0338 6.9666 34.0338 8.0166 34.6838 8.6666L36.8338 10.8166L34.6838 12.9666C34.0338 13.6166 34.0338 14.6666 34.6838 15.3166C35.0171 15.6499 35.4338 15.7999 35.8671 15.7999C36.3005 15.7999 36.7171 15.6333 37.0505 15.3166L39.2005 13.1666L41.3505 15.3166C41.6838 15.6499 42.1005 15.7999 42.5338 15.7999C42.9671 15.7999 43.3838 15.6333 43.7171 15.3166C44.3671 14.6666 44.3671 13.6166 43.7171 12.9666L41.5671 10.8166L43.7171 8.6666C44.3671 8.0166 44.3671 6.9666 43.7171 6.3166H43.6838Z" fill="#26A9E0"/>
<path d="M30.8333 9.16675H25C22.25 9.16675 20 11.4167 20 14.1667V30.0001C20 30.9167 19.25 31.6667 18.3333 31.6667H15C14.0833 31.6667 13.3333 30.9167 13.3333 30.0001V22.5001C13.3333 21.5834 12.5833 20.8334 11.6667 20.8334C10.75 20.8334 10 21.5834 10 22.5001V30.0001C10 32.7501 12.25 35.0001 15 35.0001H18.3333C21.0833 35.0001 23.3333 32.7501 23.3333 30.0001V14.1667C23.3333 13.2501 24.0833 12.5001 25 12.5001H30.8333C31.75 12.5001 32.5 11.7501 32.5 10.8334C32.5 9.91675 31.75 9.16675 30.8333 9.16675Z" fill="#26A9E0"/>
<path d="M29.5833 28.3333H26.6667C25.75 28.3333 25 29.0833 25 29.9999C25 30.9166 25.75 31.6666 26.6667 31.6666H29.5833C30.5 31.6666 31.25 30.9166 31.25 29.9999C31.25 29.0833 30.5 28.3333 29.5833 28.3333Z" fill="#26A9E0"/>
</svg>
