<svg width="47" height="48" viewBox="0 0 47 48" fill="none" xmlns="http://www.w3.org/2000/svg">
<path d="M45.4808 25.5345H44.2224L46.4782 11.9842C46.6777 10.7719 46.3401 9.5289 45.5422 8.59282C44.7442 7.65673 43.5779 7.11963 42.3503 7.11963C40.2939 7.11963 38.5599 8.59282 38.2223 10.6184L35.7363 25.5345H12.242L9.75598 10.6184C9.41837 8.59282 7.68431 7.11963 5.62798 7.11963C4.40033 7.11963 3.23405 7.65673 2.43608 8.59282C1.6381 9.5289 1.3005 10.7719 1.49999 11.9842L3.75581 25.5345H2.49746C1.65345 25.5345 0.962891 26.225 0.962891 27.069V33.2073C0.962891 34.0513 1.65345 34.7419 2.49746 34.7419H4.03203V42.4147C4.03203 44.9468 6.1037 47.0185 8.63574 47.0185H39.3271C41.8592 47.0185 43.9309 44.9468 43.9309 42.4147V34.7419H45.4654C46.3094 34.7419 47 34.0513 47 33.2073V27.069C47 26.225 46.3094 25.5345 45.4654 25.5345H45.4808ZM41.2607 11.1249C41.3528 10.5878 41.8132 10.1888 42.3656 10.1888C42.8106 10.1888 43.0868 10.4343 43.2096 10.5878C43.3324 10.7412 43.5319 11.0481 43.4551 11.4932L41.1073 25.5345H38.8514L41.2607 11.1249ZM4.55379 11.4932C4.47706 11.0481 4.67655 10.7412 4.79932 10.5878C4.92208 10.4343 5.1983 10.1888 5.64333 10.1888C6.19578 10.1888 6.65615 10.5724 6.74822 11.1249L9.1575 25.5345H6.90168L4.55379 11.4778V11.4932ZM40.8924 42.4301C40.8924 43.2741 40.2019 43.9647 39.3578 43.9647H8.65109C7.80707 43.9647 7.11652 43.2741 7.11652 42.4301V34.7572H40.8771V42.4301H40.8924ZM43.9616 31.6881H4.04738V28.619H43.9462V31.6881H43.9616Z" fill="#26A9E0"/>
<path d="M23.9969 22.4654C29.9203 22.4654 34.7389 17.6469 34.7389 11.7234C34.7389 5.8 29.9203 0.981445 23.9969 0.981445C18.0734 0.981445 13.2549 5.8 13.2549 11.7234C13.2549 17.6469 18.0734 22.4654 23.9969 22.4654ZM23.9969 4.05059C28.2323 4.05059 31.6697 7.48802 31.6697 11.7234C31.6697 15.9589 28.2323 19.3963 23.9969 19.3963C19.7615 19.3963 16.324 15.9589 16.324 11.7234C16.324 7.48802 19.7615 4.05059 23.9969 4.05059Z" fill="#26A9E0"/>
<path d="M20.1605 13.2581H22.4624V15.56C22.4624 16.404 23.153 17.0945 23.997 17.0945C24.841 17.0945 25.5315 16.404 25.5315 15.56V13.2581H27.8334C28.6774 13.2581 29.368 12.5675 29.368 11.7235C29.368 10.8795 28.6774 10.189 27.8334 10.189H25.5315V7.88711C25.5315 7.0431 24.841 6.35254 23.997 6.35254C23.153 6.35254 22.4624 7.0431 22.4624 7.88711V10.189H20.1605C19.3165 10.189 18.626 10.8795 18.626 11.7235C18.626 12.5675 19.3165 13.2581 20.1605 13.2581Z" fill="#26A9E0"/>
<path d="M13.2553 41.2639C14.0993 41.2639 14.7898 40.5734 14.7898 39.7293V38.9621C14.7898 38.118 14.0993 37.4275 13.2553 37.4275C12.4113 37.4275 11.7207 38.118 11.7207 38.9621V39.7293C11.7207 40.5734 12.4113 41.2639 13.2553 41.2639Z" fill="#26A9E0"/>
<path d="M20.4203 41.2639C21.2643 41.2639 21.9549 40.5734 21.9549 39.7293V38.9621C21.9549 38.118 21.2643 37.4275 20.4203 37.4275C19.5763 37.4275 18.8857 38.118 18.8857 38.9621V39.7293C18.8857 40.5734 19.5763 41.2639 20.4203 41.2639Z" fill="#26A9E0"/>
<path d="M27.5727 41.2639C28.4167 41.2639 29.1072 40.5734 29.1072 39.7293V38.9621C29.1072 38.118 28.4167 37.4275 27.5727 37.4275C26.7286 37.4275 26.0381 38.118 26.0381 38.9621V39.7293C26.0381 40.5734 26.7286 41.2639 27.5727 41.2639Z" fill="#26A9E0"/>
<path d="M34.7387 41.2639C35.5827 41.2639 36.2732 40.5734 36.2732 39.7293V38.9621C36.2732 38.118 35.5827 37.4275 34.7387 37.4275C33.8947 37.4275 33.2041 38.118 33.2041 38.9621V39.7293C33.2041 40.5734 33.8947 41.2639 34.7387 41.2639Z" fill="#26A9E0"/>
</svg>
