<svg width="49" height="48" viewBox="0 0 49 48" fill="none" xmlns="http://www.w3.org/2000/svg">
<path d="M46.5646 19.08C46.2046 18.705 45.6646 18.57 45.1696 18.675L32.0746 21.705C31.5496 21.825 31.1146 22.23 30.9646 22.755C30.8146 23.28 30.9646 23.85 31.3396 24.225L33.3046 26.19L25.0546 34.44L23.8096 31.56C23.2546 30.27 22.1146 29.34 20.7496 29.055C19.3696 28.77 17.9596 29.175 16.9396 30.135L5.47965 40.935C5.19465 41.205 5.01465 41.58 5.01465 41.985C5.01465 42.39 5.14965 42.765 5.41965 43.065L7.41465 45.18C8.25465 46.08 9.39465 46.53 10.5346 46.53C11.5846 46.53 12.6496 46.14 13.4746 45.36L18.3196 40.8L19.6396 43.875C20.2096 45.18 21.3796 46.125 22.7746 46.395C24.1696 46.665 25.6096 46.23 26.6146 45.21L39.4696 32.355L41.4346 34.32C41.8246 34.71 42.3796 34.86 42.9046 34.695C43.4296 34.545 43.8346 34.125 43.9546 33.585L46.9696 20.49C47.0896 19.98 46.9396 19.455 46.5646 19.095V19.08ZM41.6296 30.27L40.5196 29.16C39.9346 28.575 38.9896 28.575 38.4046 29.16L24.4846 43.08C24.1696 43.38 23.7496 43.515 23.3296 43.44C22.9096 43.365 22.5646 43.08 22.3846 42.69L20.2246 37.65C20.0296 37.2 19.6246 36.87 19.1596 36.78C18.6796 36.675 18.1846 36.825 17.8246 37.155L11.4196 43.185C10.9096 43.665 10.0846 43.65 9.60465 43.125L8.62965 42.09L19.0096 32.325C19.3246 32.025 19.7446 31.92 20.1496 31.995C20.5696 32.085 20.8996 32.355 21.0646 32.745L23.1796 37.665C23.3746 38.115 23.7796 38.445 24.2746 38.55C24.7696 38.655 25.2646 38.49 25.6246 38.145L36.4996 27.27C37.0846 26.685 37.0846 25.74 36.4996 25.155L35.3896 24.045L43.5196 22.17L41.6446 30.3L41.6296 30.27Z" fill="#26A9E0"/>
<path d="M13.25 24C14.705 24 16.085 23.715 17.345 23.22L21.305 27.18C22.175 28.05 23.33 28.5 24.485 28.5C25.64 28.5 26.795 28.065 27.665 27.18C28.52 26.325 28.985 25.2 28.985 24C28.985 22.8 28.52 21.675 27.665 20.82L23.705 16.86C24.2 15.585 24.485 14.205 24.485 12.765C24.485 6.55501 19.445 1.51501 13.235 1.51501C7.025 1.51501 2 6.54001 2 12.75C2 18.96 7.04 24 13.25 24ZM25.565 22.935C25.85 23.22 26 23.595 26 24C26 24.405 25.85 24.78 25.565 25.065C24.98 25.65 24.035 25.65 23.45 25.065L20.075 21.69C20.87 21.075 21.59 20.37 22.19 19.575L25.565 22.95V22.935ZM13.25 4.50001C17.795 4.50001 21.5 8.20501 21.5 12.75C21.5 17.295 17.795 21 13.25 21C8.705 21 5 17.295 5 12.75C5 8.20501 8.705 4.50001 13.25 4.50001Z" fill="#26A9E0"/>
<path d="M10.894 16.4552C11.194 16.7552 11.569 16.8902 11.959 16.8902C12.349 16.8902 12.724 16.7402 13.024 16.4552L18.319 11.1602C18.904 10.5752 18.904 9.6302 18.319 9.0452C17.734 8.4602 16.789 8.4602 16.204 9.0452L11.959 13.2902L10.294 11.6252C9.70898 11.0402 8.76398 11.0402 8.17898 11.6252C7.59398 12.2102 7.59398 13.1552 8.17898 13.7402L10.894 16.4552Z" fill="#26A9E0"/>
</svg>
