<svg width="52" height="52" viewBox="0 0 52 52" fill="none" xmlns="http://www.w3.org/2000/svg">
<path d="M51.502 22.515C51.0859 22.0816 50.4618 21.9255 49.8896 22.0469L35.9161 25.2716C35.3093 25.4103 34.8065 25.8784 34.6331 26.4852C34.4598 27.0919 34.6331 27.7508 35.0666 28.1842L37.0603 30.1779L28.4959 38.7424L27.2476 35.8471C26.6408 34.4428 25.3925 33.4026 23.8842 33.0905C22.3759 32.7611 20.8156 33.2119 19.706 34.2694L7.46616 45.7812C7.13675 46.0932 6.92871 46.5267 6.92871 46.9948C6.92871 47.4629 7.08474 47.8963 7.39681 48.243L9.52925 50.5141C10.4481 51.5024 11.6964 51.9878 12.962 51.9878C14.1235 51.9878 15.2851 51.5717 16.1866 50.7049L21.2143 45.9719L22.5493 49.0752C23.1561 50.5141 24.4564 51.5544 25.982 51.8491C27.525 52.1438 29.0853 51.6584 30.1949 50.5488L43.8217 36.922L45.8155 38.9157C46.2662 39.3665 46.9077 39.5399 47.5145 39.3492C48.1213 39.1758 48.5894 38.6904 48.7281 38.0662L51.9527 24.0927C52.0914 23.5032 51.9181 22.8964 51.4846 22.4803L51.502 22.515ZM46.0582 34.2868L45.0526 33.2812C44.3765 32.6051 43.2843 32.6051 42.6081 33.2812L27.7504 48.139C27.3343 48.5551 26.8315 48.5204 26.6408 48.4857C26.4501 48.4511 25.9647 48.295 25.7393 47.7576L23.4335 42.3831C23.2081 41.863 22.74 41.4816 22.2026 41.3776C21.6478 41.2736 21.0757 41.4296 20.6596 41.811L13.8288 48.243C13.326 48.7111 12.5459 48.6938 12.0778 48.191L11.1416 47.1855L22.1159 36.8526C22.5493 36.4539 23.0347 36.5059 23.2081 36.5406C23.3988 36.5753 23.8669 36.7313 24.0923 37.2687L26.3461 42.5218C26.5715 43.0419 27.0396 43.4407 27.6117 43.5447C28.1838 43.6487 28.7559 43.4754 29.172 43.0593L40.7704 31.4609C41.0998 31.1315 41.2732 30.698 41.2732 30.2299C41.2732 29.7618 41.0825 29.3284 40.7704 28.999L39.7649 27.9935L47.9826 26.1037L46.0928 34.3215L46.0582 34.2868Z" fill="#26A9E0"/>
<path d="M9.78951 19.4985L12.9968 20.4867V25.9998C12.9968 28.8604 15.3373 31.2009 18.1979 31.2009H21.6653C24.5259 31.2009 26.8664 28.8604 26.8664 25.9998V24.7515L30.6979 25.9305C30.8712 25.9825 31.0446 25.9998 31.2006 25.9998C31.5647 25.9998 31.9288 25.8784 32.2235 25.6531C32.6743 25.3237 32.9343 24.8036 32.9343 24.2661V1.7281C32.9343 1.17332 32.6743 0.653208 32.2235 0.341143C31.7901 0.0117417 31.218 -0.0749432 30.6805 0.0810893L9.78951 6.51309C9.04402 5.21282 7.65707 4.34598 6.06207 4.34598H1.72783C0.774303 4.34598 -0.00585938 5.12614 -0.00585938 6.07967V19.9492C-0.00585938 20.9027 0.774303 21.6829 1.72783 21.6829H6.06207C7.65707 21.6829 9.04402 20.7987 9.78951 19.5158V19.4985ZM23.399 25.9998C23.399 26.9533 22.6188 27.7335 21.6653 27.7335H18.1979C17.2444 27.7335 16.4642 26.9533 16.4642 25.9998V21.5442L23.399 23.6767V25.9998ZM10.3963 9.9458L20.7985 6.73847V13.864C20.7985 14.8175 21.5786 15.5976 22.5322 15.5976C23.4857 15.5976 24.2659 14.8175 24.2659 13.864V5.68092L29.4669 4.08592V21.9256L10.3963 16.0657V9.96314V9.9458ZM6.92892 17.3313C6.92892 17.8168 6.5475 18.1982 6.06207 18.1982H3.46153V7.79603H6.06207C6.5475 7.79603 6.92892 8.17744 6.92892 8.66287V17.3313Z" fill="#26A9E0"/>
</svg>
