<svg width="49" height="48" viewBox="0 0 49 48" fill="none" xmlns="http://www.w3.org/2000/svg">
<path d="M42.7259 27.885C43.5359 25.74 44.0009 23.43 44.0009 21C44.0009 10.245 35.2559 1.5 24.5009 1.5C13.7459 1.5 5.00087 10.245 5.00087 21C5.00087 23.43 5.46588 25.74 6.27588 27.885C2.73588 32.385 1.37088 37.605 2.27088 43.455C2.34588 43.95 2.66088 44.37 3.11088 44.58C3.56088 44.79 4.08588 44.775 4.50588 44.52L8.75088 42.075L12.6809 46.065C12.9659 46.35 13.3559 46.515 13.7459 46.515C13.9259 46.515 14.1059 46.485 14.2859 46.425C14.8409 46.215 15.2159 45.69 15.2459 45.105C15.2459 45.075 15.4259 42.12 16.6859 38.88C19.0859 39.93 21.7109 40.53 24.4859 40.53C27.2609 40.53 29.9009 39.945 32.2859 38.88C33.5459 42.12 33.7259 45.075 33.7259 45.105C33.7559 45.69 34.1309 46.215 34.6859 46.425C34.8659 46.485 35.0459 46.515 35.2259 46.515C35.6159 46.515 36.0059 46.365 36.2909 46.065L40.2209 42.075L44.4659 44.52C44.9009 44.775 45.4109 44.79 45.8609 44.58C46.3109 44.37 46.6109 43.95 46.7009 43.455C47.6009 37.605 46.2359 32.385 42.6959 27.885H42.7259ZM12.7109 41.805L10.0709 39.135C9.59088 38.655 8.84088 38.55 8.25588 38.895L5.01588 40.755C4.86588 37.155 5.79588 33.87 7.74588 30.93C9.30587 33.555 11.4659 35.775 14.0309 37.425C13.3859 39.015 12.9509 40.545 12.6959 41.805H12.7109ZM8.00088 21C8.00088 11.895 15.3959 4.5 24.5009 4.5C33.6059 4.5 41.0009 11.895 41.0009 21C41.0009 30.105 33.6059 37.5 24.5009 37.5C15.3959 37.5 8.00088 30.105 8.00088 21ZM40.7459 38.895C40.1609 38.55 39.4109 38.655 38.9309 39.135L36.2909 41.805C36.0209 40.545 35.6009 39.015 34.9559 37.425C37.5209 35.79 39.6809 33.555 41.2409 30.93C43.1909 33.87 44.1209 37.155 43.9709 40.755L40.7309 38.895H40.7459Z" fill="#26A9E0"/>
<path d="M33.8143 12.7351L29.0743 14.1751L25.7143 9.61513C25.1443 8.85013 23.8693 8.85013 23.2993 9.61513L19.9393 14.1751L15.1993 12.7351C14.6893 12.5701 14.1343 12.7051 13.7293 13.0801C13.3393 13.4401 13.1743 13.9951 13.2943 14.5201L15.2443 22.8601C15.4093 23.5351 16.0093 24.0151 16.6993 24.0151H32.2993C32.9893 24.0151 33.6043 23.5351 33.7543 22.8601L35.7043 14.5201C35.8243 13.9951 35.6593 13.4551 35.2693 13.0801C34.8793 12.7201 34.3243 12.5851 33.7993 12.7351H33.8143ZM31.1143 21.0001H17.8993L16.8193 16.3651L20.0893 17.3701C20.7043 17.5501 21.3643 17.3401 21.7393 16.8301L24.5143 13.0501L27.2893 16.8301C27.6643 17.3401 28.3243 17.5651 28.9393 17.3701L32.2093 16.3651L31.1293 21.0001H31.1143Z" fill="#26A9E0"/>
<path d="M32.2992 27H16.6992C15.8742 27 15.1992 27.675 15.1992 28.5C15.1992 29.325 15.8742 30 16.6992 30H32.2992C33.1242 30 33.7992 29.325 33.7992 28.5C33.7992 27.675 33.1242 27 32.2992 27Z" fill="#26A9E0"/>
</svg>
