<svg width="60" height="60" viewBox="0 0 60 60" fill="none" xmlns="http://www.w3.org/2000/svg">
<path d="M15.4068 40.4067C14.8676 39.8675 14.0229 39.7237 13.3399 40.0652C1.42368 45.9604 3.07721 55.0369 3.16708 55.4323C3.31086 56.1512 3.86803 56.7084 4.56899 56.8342C4.65885 56.8522 5.21602 56.96 6.07874 56.96C8.97243 56.96 15.3889 55.8277 19.9181 46.6614C20.2596 45.9784 20.1158 45.1337 19.5766 44.5945L15.3889 40.4067H15.4068ZM6.65388 53.3474C6.79767 51.2446 7.92998 47.1826 13.8072 43.8935L16.1258 46.2121C12.8187 52.0893 8.75675 53.2036 6.67186 53.3654L6.65388 53.3474Z" fill="#26A9E0"/>
<path d="M56.6727 4.74836C56.5289 4.02943 55.9718 3.47226 55.2708 3.34645C55.0012 3.29253 48.6207 2.07035 40.1913 5.07188C35.3565 6.77933 29.2096 10.1763 23.1886 16.7724L17.0238 15.6941C15.0467 15.3526 13.0158 15.9996 11.5959 17.4195L5.37715 23.6382C4.9458 24.0696 4.76606 24.6986 4.89188 25.3097C5.03566 25.9028 5.46702 26.4061 6.04216 26.6038L14.2919 29.5334C13.8425 30.3602 13.4112 31.187 12.9798 32.0677C12.6383 32.7506 12.7821 33.5954 13.3213 34.1346L25.9205 46.7338C26.262 47.0753 26.7293 47.255 27.1966 47.255C27.4662 47.255 27.7358 47.2011 27.9875 47.0753C28.8682 46.6439 29.6949 46.1946 30.5217 45.7632L33.4513 54.013C33.649 54.5881 34.1523 55.0374 34.7454 55.1632C34.8712 55.1992 35.015 55.1992 35.1408 55.1992C35.6081 55.1992 36.0754 55.0195 36.4169 54.678L42.6356 48.4592C44.0555 47.0393 44.7026 45.0084 44.3611 43.0313L43.2827 36.8665C49.8968 30.8455 53.2758 24.6986 54.9832 19.8638C57.9848 11.4164 56.7626 5.05391 56.7087 4.78431L56.6727 4.74836ZM9.92438 24.1415L14.1121 19.9537C14.7053 19.3606 15.55 19.091 16.3768 19.2348L20.4926 19.9537C19.0009 21.8589 17.5271 23.9617 16.0892 26.3342L9.92438 24.1415ZM40.0655 45.8891L35.8777 50.0768L33.685 43.912C36.0574 42.4741 38.1603 41.0003 40.0655 39.5086L40.7844 43.6244C40.9282 44.4512 40.6586 45.2959 40.0655 45.8891ZM27.5381 43.229L16.7722 32.4631C23.3504 19.6841 31.1148 13.1419 37.8907 9.83478C40.9462 10.4459 43.714 11.8837 45.9068 14.0944C48.0995 16.2872 49.5553 19.055 50.1664 22.1105C46.8593 28.8864 40.3171 36.6688 27.5381 43.229ZM52.1974 16.8623C51.2628 14.9032 50.0047 13.1059 48.459 11.5422C46.9133 9.97857 45.098 8.72044 43.1389 7.80381C47.758 6.45582 51.4605 6.52771 53.3297 6.68947C53.4915 8.54071 53.5634 12.2612 52.2154 16.8623H52.1974Z" fill="#26A9E0"/>
<path d="M25.2377 31.6717C24.5367 30.9708 23.4044 30.9708 22.7035 31.6717C22.0025 32.3727 22.0025 33.505 22.7035 34.2059L25.7948 37.2973C26.1543 37.6568 26.6036 37.8186 27.0709 37.8186C27.5382 37.8186 27.9876 37.6388 28.347 37.2973C29.048 36.5964 29.048 35.4641 28.347 34.7631L25.2556 31.6717H25.2377Z" fill="#26A9E0"/>
<path d="M36.3459 15.1187C31.6369 15.1187 27.8086 18.9469 27.8086 23.6559C27.8086 28.3649 31.6369 32.1932 36.3459 32.1932C41.0549 32.1932 44.8832 28.3649 44.8832 23.6559C44.8832 18.9469 41.0549 15.1187 36.3459 15.1187ZM34.5486 28.2571C32.7153 27.5381 31.4032 25.7588 31.4032 23.6559C31.4032 21.5531 32.7153 19.7917 34.5486 19.0548V28.2391V28.2571ZM38.1432 28.2571V19.0728C39.9765 19.7917 41.2885 21.571 41.2885 23.6739C41.2885 25.7768 39.9765 27.5381 38.1432 28.275V28.2571Z" fill="#26A9E0"/>
</svg>
