<svg width="52" height="52" viewBox="0 0 52 52" fill="none" xmlns="http://www.w3.org/2000/svg">
<path d="M47.6665 6.01467H44.1998V4.33333C44.1998 1.94133 42.2585 0 39.8665 0H32.9331C30.5411 0 28.5998 1.94133 28.5998 4.33333V6.01467H25.1331C22.7411 6.01467 20.7998 7.956 20.7998 10.348V16.4147C20.7998 17.212 21.3371 17.9053 22.1171 18.096L22.5331 18.2V25.948C22.5331 28.34 24.4745 30.2813 26.8665 30.2813H45.9331C48.3251 30.2813 50.2665 28.34 50.2665 25.948V18.2L50.6825 18.096C51.4451 17.9053 51.9998 17.212 51.9998 16.4147V10.348C51.9998 7.956 50.0585 6.01467 47.6665 6.01467ZM32.0665 4.33333C32.0665 3.848 32.4478 3.46667 32.9331 3.46667H39.8665C40.3518 3.46667 40.7331 3.848 40.7331 4.33333V6.01467H32.0665V4.33333ZM24.2665 10.348C24.2665 9.86267 24.6478 9.48133 25.1331 9.48133H47.6665C48.1518 9.48133 48.5331 9.86267 48.5331 10.348V15.0627L38.4971 17.576C37.1278 17.9227 35.6718 17.9227 34.3025 17.576L24.2665 15.0627V10.348ZM46.7998 25.948C46.7998 26.4333 46.4185 26.8147 45.9331 26.8147H26.8665C26.3811 26.8147 25.9998 26.4333 25.9998 25.948V19.0667L33.4531 20.9387C34.4238 21.1813 35.4118 21.3027 36.3998 21.3027C37.3878 21.3027 38.3758 21.1813 39.3465 20.9387L46.7998 19.0667V25.948Z" fill="#26A9E0"/>
<path d="M35.5331 14.6813H37.2665C38.2198 14.6813 38.9998 13.9013 38.9998 12.9479C38.9998 11.9946 38.2198 11.2146 37.2665 11.2146H35.5331C34.5798 11.2146 33.7998 11.9946 33.7998 12.9479C33.7998 13.9013 34.5798 14.6813 35.5331 14.6813Z" fill="#26A9E0"/>
<path d="M20.176 32.7078C20.2973 32.1878 20.3667 31.6678 20.3667 31.1132V27.7332C20.3667 24.3012 17.5587 21.4932 14.1267 21.4932H11.8733C8.44133 21.4932 5.63333 24.3012 5.63333 27.7332V31.1132C5.63333 31.6678 5.70267 32.1878 5.824 32.7078C2.21867 35.0998 0 39.1038 0 43.5065V46.8865C0 49.7118 2.288 51.9998 5.11333 51.9998H20.8867C23.712 51.9998 26 49.7118 26 46.8865V43.5065C26 39.1038 23.7987 35.0998 20.176 32.7078ZM9.1 27.7332C9.1 26.2078 10.348 24.9598 11.8733 24.9598H14.1267C15.652 24.9598 16.9 26.2078 16.9 27.7332V31.1132C16.9 33.2625 15.1493 35.0132 13 35.0132C10.8507 35.0132 9.1 33.2625 9.1 31.1132V27.7332ZM22.5333 46.8865C22.5333 47.7878 21.788 48.5332 20.8867 48.5332H19.5V45.0665C19.5 44.1132 18.72 43.3332 17.7667 43.3332C16.8133 43.3332 16.0333 44.1132 16.0333 45.0665V48.5332H9.96667V45.0665C9.96667 44.1132 9.18667 43.3332 8.23333 43.3332C7.28 43.3332 6.5 44.1132 6.5 45.0665V48.5332H5.11333C4.212 48.5332 3.46667 47.7878 3.46667 46.8865V43.5065C3.46667 40.4212 4.94 37.5958 7.384 35.8278C8.736 37.4398 10.7293 38.4798 13 38.4798C15.2707 38.4798 17.264 37.4398 18.616 35.8278C21.06 37.6132 22.5333 40.4212 22.5333 43.5065V46.8865Z" fill="#26A9E0"/>
</svg>
