<svg width="49" height="48" viewBox="0 0 49 48" fill="none" xmlns="http://www.w3.org/2000/svg">
<path d="M33.4996 6H31.9996V3C31.9996 2.175 31.3246 1.5 30.4996 1.5C29.6746 1.5 28.9996 2.175 28.9996 3V6H24.0046V3C24.0046 2.175 23.3296 1.5 22.5046 1.5C21.6796 1.5 21.0046 2.175 21.0046 3V6H16.0096V3C16.0096 2.175 15.3346 1.5 14.5096 1.5C13.6846 1.5 13.0096 2.175 13.0096 3V6H8.01465V3C8.01465 2.175 7.33965 1.5 6.51465 1.5C5.68965 1.5 5.01465 2.175 5.01465 3V6H3.51465C2.68965 6 2.01465 6.675 2.01465 7.5V45C2.01465 45.825 2.68965 46.5 3.51465 46.5H33.5146C34.3396 46.5 35.0146 45.825 35.0146 45V7.5C35.0146 6.675 34.3396 6 33.5146 6H33.4996ZM31.9996 9V12H4.99965V9H31.9996ZM4.99965 43.5V15H31.9996V43.5H4.99965Z" fill="#26A9E0"/>
<path d="M45.5 1.5H39.5C38.675 1.5 38 2.175 38 3V35.685C38 37.17 38.435 38.61 39.26 39.84L41 42.45V45C41 45.825 41.675 46.5 42.5 46.5C43.325 46.5 44 45.825 44 45V42.45L45.74 39.84C46.565 38.61 47 37.17 47 35.685V3C47 2.175 46.325 1.5 45.5 1.5ZM44 4.5V7.5H41V4.5H44ZM43.25 38.175L42.5 39.285L41.75 38.175C41.255 37.425 41 36.57 41 35.685V10.5H44V35.685C44 36.57 43.745 37.44 43.25 38.175Z" fill="#26A9E0"/>
<path d="M28.25 38.25H8.75C7.925 38.25 7.25 38.925 7.25 39.75C7.25 40.575 7.925 41.25 8.75 41.25H28.25C29.075 41.25 29.75 40.575 29.75 39.75C29.75 38.925 29.075 38.25 28.25 38.25Z" fill="#26A9E0"/>
<path d="M28.25 17.25H14.75C13.925 17.25 13.25 17.925 13.25 18.75C13.25 19.575 13.925 20.25 14.75 20.25H28.25C29.075 20.25 29.75 19.575 29.75 18.75C29.75 17.925 29.075 17.25 28.25 17.25Z" fill="#26A9E0"/>
<path d="M8.75 20.25H9.5C10.325 20.25 11 19.575 11 18.75C11 17.925 10.325 17.25 9.5 17.25H8.75C7.925 17.25 7.25 17.925 7.25 18.75C7.25 19.575 7.925 20.25 8.75 20.25Z" fill="#26A9E0"/>
<path d="M28.25 22.5H8.75C7.925 22.5 7.25 23.175 7.25 24C7.25 24.825 7.925 25.5 8.75 25.5H28.25C29.075 25.5 29.75 24.825 29.75 24C29.75 23.175 29.075 22.5 28.25 22.5Z" fill="#26A9E0"/>
<path d="M28.25 27.75H14.75C13.925 27.75 13.25 28.425 13.25 29.25C13.25 30.075 13.925 30.75 14.75 30.75H28.25C29.075 30.75 29.75 30.075 29.75 29.25C29.75 28.425 29.075 27.75 28.25 27.75Z" fill="#26A9E0"/>
<path d="M8.75 30.75H9.5C10.325 30.75 11 30.075 11 29.25C11 28.425 10.325 27.75 9.5 27.75H8.75C7.925 27.75 7.25 28.425 7.25 29.25C7.25 30.075 7.925 30.75 8.75 30.75Z" fill="#26A9E0"/>
<path d="M28.25 33H8.75C7.925 33 7.25 33.675 7.25 34.5C7.25 35.325 7.925 36 8.75 36H28.25C29.075 36 29.75 35.325 29.75 34.5C29.75 33.675 29.075 33 28.25 33Z" fill="#26A9E0"/>
</svg>
