<svg width="49" height="48" viewBox="0 0 49 48" fill="none" xmlns="http://www.w3.org/2000/svg">
<path d="M15.5 33.495V12C16.325 12 17 11.325 17 10.5C17 9.675 16.325 9 15.5 9V6C15.5 3.525 13.475 1.5 11 1.5H8C5.525 1.5 3.5 3.525 3.5 6V9C2.675 9 2 9.675 2 10.5C2 11.325 2.675 12 3.5 12V33.495C3.5 35.43 4.145 37.35 5.3 38.895L8 42.495V45C8 45.825 8.675 46.5 9.5 46.5C10.325 46.5 11 45.825 11 45V42.495L13.7 38.895C14.855 37.35 15.5 35.43 15.5 33.495ZM12.5 29.91C12.02 29.685 11.525 29.52 11 29.415V12H12.5V29.91ZM6.5 6C6.5 5.175 7.175 4.5 8 4.5H11C11.825 4.5 12.5 5.175 12.5 6V9H6.5V6ZM8 12V29.415C7.475 29.52 6.98 29.7 6.5 29.91V12H8ZM9.5 39.495L7.7 37.095C6.935 36.09 6.53 34.83 6.5 33.57C7.28 32.73 8.33 32.25 9.5 32.25C10.67 32.25 11.72 32.745 12.5 33.57C12.485 34.83 12.065 36.09 11.3 37.095L9.5 39.495Z" fill="#26A9E0"/>
<path d="M32.644 17.2052C32.944 17.5052 33.319 17.6402 33.709 17.6402C34.099 17.6402 34.474 17.4902 34.774 17.2052L40.069 11.9102C40.654 11.3252 40.654 10.3802 40.069 9.7952C39.484 9.2102 38.539 9.2102 37.954 9.7952L33.709 14.0402L32.044 12.3752C31.459 11.7902 30.514 11.7902 29.929 12.3752C29.344 12.9602 29.344 13.9052 29.929 14.4902L32.644 17.2052Z" fill="#26A9E0"/>
<path d="M35 36C34.175 36 33.5 36.675 33.5 37.5V42C33.5 42.825 32.825 43.5 32 43.5H17C16.175 43.5 15.5 44.175 15.5 45C15.5 45.825 16.175 46.5 17 46.5H32C34.475 46.5 36.5 44.475 36.5 42V37.5C36.5 36.675 35.825 36 35 36Z" fill="#26A9E0"/>
<path d="M44.0001 25.5H43.2501V23.4C43.2501 22.485 43.7001 21.765 44.0751 21.33C45.9651 19.155 47.0001 16.365 47.0001 13.485C47.0001 9.88501 45.4101 6.51001 42.6351 4.21501C39.8601 1.92001 36.2001 1.02001 32.6151 1.71001C27.7701 2.65501 23.9751 6.57001 23.1801 11.445C22.5951 15.015 23.5851 18.6 25.9251 21.315C26.3001 21.75 26.7651 22.47 26.7651 23.385V25.47H26.0151C25.1901 25.47 24.5151 26.145 24.5151 26.97C24.5151 27.795 25.1901 28.47 26.0151 28.47H29.0151V32.97C29.0151 33.795 29.6901 34.47 30.5151 34.47H39.5151C40.3401 34.47 41.0151 33.795 41.0151 32.97V28.47H44.0151C44.8401 28.47 45.5151 27.795 45.5151 26.97C45.5151 26.145 44.8401 25.47 44.0151 25.47L44.0001 25.5ZM28.1901 19.38C26.4351 17.355 25.6851 14.655 26.1351 11.97C26.7351 8.37001 29.6301 5.38501 33.1851 4.69501C35.9001 4.17001 38.6451 4.84501 40.7301 6.57001C42.8151 8.29501 44.0151 10.815 44.0151 13.515C44.0151 15.675 43.2351 17.76 41.8251 19.395C40.8201 20.55 40.2651 21.99 40.2651 23.43V25.53H29.7651V23.445C29.7651 22.005 29.2101 20.58 28.2051 19.41L28.1901 19.38ZM38.0001 31.5H32.0001V28.5H38.0001V31.5Z" fill="#26A9E0"/>
</svg>
