<svg width="49" height="48" viewBox="0 0 49 48" fill="none" xmlns="http://www.w3.org/2000/svg">
<path d="M46.565 36L41.84 31.275C40.685 30.12 38.99 29.715 37.43 30.24L33.995 31.38L31.61 28.995C33.425 26.775 34.625 24.03 34.925 21.015H36.5C37.325 21.015 38 20.34 38 19.515C38 18.69 37.325 18.015 36.5 18.015H34.925C34.22 10.935 28.58 5.29501 21.5 4.59001V3.01501C21.5 2.19001 20.825 1.51501 20 1.51501C19.175 1.51501 18.5 2.19001 18.5 3.01501V4.59001C11.42 5.28001 5.78 10.92 5.075 18H3.5C2.675 18 2 18.675 2 19.5C2 20.325 2.675 21 3.5 21H5.075C5.78 28.08 11.42 33.72 18.5 34.425V36C18.5 36.825 19.175 37.5 20 37.5C20.825 37.5 21.5 36.825 21.5 36V34.425C24.515 34.125 27.26 32.925 29.48 31.11L31.865 33.495L30.725 36.93C30.2 38.49 30.605 40.185 31.775 41.34L36.5 46.065C36.785 46.35 37.175 46.5 37.565 46.5C37.685 46.5 37.79 46.5 37.91 46.455C38.42 46.335 38.825 45.96 38.99 45.465L40.745 40.215L45.995 38.46C46.49 38.295 46.865 37.89 46.985 37.38C47.105 36.87 46.955 36.345 46.58 35.97L46.565 36ZM20 31.5C13.385 31.5 8 26.115 8 19.5C8 12.885 13.385 7.50001 20 7.50001C26.615 7.50001 32 12.885 32 19.5C32 22.275 31.055 24.81 29.465 26.85L27.32 24.705C28.37 23.235 28.985 21.435 28.985 19.5C28.985 14.535 24.95 10.5 19.985 10.5C15.02 10.5 10.985 14.535 10.985 19.5C10.985 24.465 15.02 28.5 19.985 28.5C21.92 28.5 23.72 27.87 25.19 26.835L27.335 28.98C25.295 30.555 22.76 31.515 19.985 31.515L20 31.5ZM21.065 18.435C20.48 17.85 19.535 17.85 18.95 18.435C18.365 19.02 18.365 19.965 18.95 20.55L23.045 24.645C22.16 25.17 21.125 25.5 20.015 25.5C16.7 25.5 14.015 22.815 14.015 19.5C14.015 16.185 16.7 13.5 20.015 13.5C23.33 13.5 26.015 16.185 26.015 19.5C26.015 20.61 25.685 21.63 25.16 22.53L21.065 18.435ZM36.905 42.225L33.89 39.21C33.53 38.865 33.41 38.34 33.575 37.875L34.25 35.865L37.835 39.45L36.905 42.225ZM39.95 37.32L36.365 33.735L38.375 33.06C38.855 32.91 39.365 33.03 39.71 33.375L42.725 36.39L39.95 37.32Z" fill="#26A9E0"/>
</svg>
