<svg width="48" height="48" viewBox="0 0 48 48" fill="none" xmlns="http://www.w3.org/2000/svg">
<path d="M28.8008 38.4038H6.39713C5.51699 38.4038 4.79688 39.1239 4.79688 40.0041C4.79688 40.8842 5.51699 41.6043 6.39713 41.6043H28.8008C29.6809 41.6043 30.401 40.8842 30.401 40.0041C30.401 39.1239 29.6809 38.4038 28.8008 38.4038Z" fill="#26A9E0"/>
<path d="M6.39713 28.0023H15.9987C16.8788 28.0023 17.599 27.2822 17.599 26.402C17.599 25.5219 16.8788 24.8018 15.9987 24.8018H6.39713C5.51699 24.8018 4.79688 25.5219 4.79688 26.402C4.79688 27.2822 5.51699 28.0023 6.39713 28.0023Z" fill="#26A9E0"/>
<path d="M6.39713 21.201H15.9987C16.8788 21.201 17.599 20.4809 17.599 19.6007C17.599 18.7206 16.8788 18.0005 15.9987 18.0005H6.39713C5.51699 18.0005 4.79688 18.7206 4.79688 19.6007C4.79688 20.4809 5.51699 21.201 6.39713 21.201Z" fill="#26A9E0"/>
<path d="M28.8021 31.6028H12.7995C11.9193 31.6028 11.1992 32.3229 11.1992 33.203C11.1992 34.0832 11.9193 34.8033 12.7995 34.8033H28.8021C29.6822 34.8033 30.4023 34.0832 30.4023 33.203C30.4023 32.3229 29.6822 31.6028 28.8021 31.6028Z" fill="#26A9E0"/>
<path d="M6.39713 34.8033H7.19726C8.07741 34.8033 8.79752 34.0832 8.79752 33.203C8.79752 32.3229 8.07741 31.6028 7.19726 31.6028H6.39713C5.51699 31.6028 4.79688 32.3229 4.79688 33.203C4.79688 34.0832 5.51699 34.8033 6.39713 34.8033Z" fill="#26A9E0"/>
<path d="M46.5957 27.0101L42.371 22.7854C42.8991 21.4251 43.2031 19.9529 43.2031 18.4167C43.2031 13.1998 39.8586 8.76709 35.2018 7.11882V4.81445C35.2018 2.17402 33.0415 0.0136719 30.401 0.0136719H12.7982C12.3661 0.0136719 11.966 0.1897 11.662 0.477747L0.460169 11.6636C0.15612 11.9676 -0.00390625 12.3677 -0.00390625 12.7997V43.2047C-0.00390625 45.8451 2.15644 48.0055 4.79687 48.0055H30.401C33.0415 48.0055 35.2018 45.8451 35.2018 43.2047V29.6985C35.3298 29.6505 35.4579 29.6185 35.5859 29.5705L39.8106 33.7952C40.7387 34.7233 41.9709 35.2034 43.2031 35.2034C44.4353 35.2034 45.6675 34.7393 46.5957 33.7952C48.468 31.9229 48.468 28.8824 46.5957 27.0101ZM11.1979 5.45456V9.59923C11.1979 10.4794 10.4778 11.1995 9.59765 11.1995H5.45298L11.1979 5.45456ZM32.0013 43.2047C32.0013 44.0848 31.2812 44.8049 30.401 44.8049H4.79687C3.91673 44.8049 3.19661 44.0848 3.19661 43.2047V14.4H9.59765C12.2381 14.4 14.3984 12.2397 14.3984 9.59923V3.19819H30.401C31.2812 3.19819 32.0013 3.91831 32.0013 4.79845V6.44672C31.7292 6.43071 31.4732 6.39871 31.2012 6.39871C24.5761 6.39871 19.1992 11.7756 19.1992 18.4007C19.1992 25.0257 24.5761 30.4026 31.2012 30.4026C31.4732 30.4026 31.7292 30.3866 32.0013 30.3706V43.2047ZM31.2012 27.2021C26.3524 27.2021 22.3997 23.2494 22.3997 18.4007C22.3997 13.5519 26.3524 9.59923 31.2012 9.59923C36.0499 9.59923 40.0026 13.5519 40.0026 18.4007C40.0026 23.2494 36.0499 27.2021 31.2012 27.2021ZM44.3393 31.5388C43.7312 32.1469 42.675 32.1469 42.0829 31.5388L38.4823 27.9382C39.3305 27.2821 40.0986 26.53 40.7387 25.6818L44.3393 29.2824C44.6433 29.5865 44.8034 29.9865 44.8034 30.4186C44.8034 30.8507 44.6433 31.2507 44.3393 31.5548V31.5388Z" fill="#26A9E0"/>
<path d="M34.3537 14.4481L29.8249 18.9768L28.0487 17.2005C27.4246 16.5764 26.4164 16.5764 25.7923 17.2005C25.1682 17.8246 25.1682 18.8328 25.7923 19.4569L28.6888 22.3533C29.0088 22.6734 29.4089 22.8174 29.8249 22.8174C30.241 22.8174 30.6411 22.6574 30.9611 22.3533L36.61 16.7044C37.2341 16.0803 37.2341 15.0722 36.61 14.4481C35.9859 13.824 34.9778 13.824 34.3537 14.4481Z" fill="#26A9E0"/>
</svg>
