<svg width="54" height="46" viewBox="0 0 54 46" fill="none" xmlns="http://www.w3.org/2000/svg">
<path d="M0 28.1295C0 20.3271 0.547532 14.5096 1.6426 10.6769C2.73766 6.70727 4.85935 3.9696 8.00765 2.46389C11.156 0.821295 16.0837 0 22.791 0V8.21298C18.2739 8.21298 15.3309 9.10272 13.9621 10.8822C12.7301 12.6617 12.1141 16.2891 12.1141 21.7644V25.0496H19.7111V45.1714H0V28.1295ZM31.2093 28.1295C31.2093 20.1902 31.7569 14.3043 32.8519 10.4715C33.947 6.63882 36.0687 3.9696 39.217 2.46389C42.3653 0.821295 47.2931 0 54.0003 0V8.21298C49.4832 8.21298 46.5402 9.10272 45.1714 10.8822C43.9394 12.6617 43.3235 16.2891 43.3235 21.7644V25.0496H50.9205V45.1714H31.2093V28.1295Z" fill="#26A9E0"/>
</svg>
