<svg width="34" height="34" viewBox="0 0 34 34" fill="none" xmlns="http://www.w3.org/2000/svg">
<path fill-rule="evenodd" clip-rule="evenodd" d="M17.0002 0.333374C7.79516 0.333374 0.333496 7.79504 0.333496 17C0.333496 20.15 1.2085 23.1 2.73016 25.6134L1.2435 30.6667C1.15814 30.9568 1.15252 31.2646 1.22724 31.5577C1.30195 31.8507 1.45424 32.1183 1.66809 32.3321C1.88195 32.546 2.14946 32.6983 2.44252 32.773C2.73558 32.8477 3.04336 32.8421 3.3335 32.7567L8.38683 31.27C10.9847 32.8416 13.9639 33.6706 17.0002 33.6667C26.2052 33.6667 33.6668 26.205 33.6668 17C33.6668 7.79504 26.2052 0.333374 17.0002 0.333374ZM13.2302 20.7717C16.6018 24.1417 19.8202 24.5867 20.9568 24.6284C22.6852 24.6917 24.3685 23.3717 25.0235 21.84C25.1055 21.6494 25.1351 21.4402 25.1093 21.2343C25.0836 21.0283 25.0033 20.833 24.8768 20.6684C23.9635 19.5017 22.7285 18.6634 21.5218 17.83C21.27 17.6554 20.9603 17.5853 20.6578 17.6344C20.3554 17.6835 20.0838 17.8481 19.9002 18.0934L18.9002 19.6184C18.8473 19.7 18.7654 19.7586 18.671 19.7821C18.5766 19.8056 18.4768 19.7924 18.3918 19.745C17.7135 19.3567 16.7252 18.6967 16.0152 17.9867C15.3052 17.2767 14.6852 16.3334 14.3368 15.6984C14.2947 15.6175 14.2828 15.5242 14.3033 15.4353C14.3237 15.3464 14.3752 15.2677 14.4485 15.2134L15.9885 14.07C16.2089 13.8794 16.3512 13.6141 16.3881 13.325C16.425 13.0359 16.3539 12.7433 16.1885 12.5034C15.4418 11.41 14.5718 10.02 13.3102 9.09837C13.147 8.98114 12.9563 8.90803 12.7566 8.88613C12.5569 8.86423 12.3549 8.89428 12.1702 8.97337C10.6368 9.63004 9.31016 11.3134 9.3735 13.045C9.41516 14.1817 9.86016 17.4 13.2302 20.7717Z" fill="#40C351"/>
<path d="M12.7575 8.88613C12.9569 8.90807 13.1473 8.98109 13.3103 9.09805C14.5719 10.0197 15.4425 11.41 16.1892 12.5033C16.3545 12.7431 16.4252 13.0357 16.3884 13.3246C16.3515 13.6136 16.2093 13.8791 15.989 14.0697L14.449 15.2133C14.3758 15.2675 14.324 15.3462 14.3034 15.435C14.283 15.5239 14.2955 15.6177 14.3376 15.6986C14.686 16.3336 15.3055 17.2768 16.0154 17.9867C16.7254 18.6967 17.714 19.3572 18.3923 19.7455C18.4773 19.7928 18.5773 19.8061 18.6716 19.7826C18.766 19.7591 18.8483 19.7002 18.9011 19.6186L19.9011 18.0932C20.0846 17.8482 20.3558 17.6833 20.6579 17.6342C20.9604 17.5851 21.2704 17.6559 21.5222 17.8305C22.7288 18.6638 23.9643 19.5017 24.8777 20.6684C25.0041 20.8329 25.0843 21.0288 25.1101 21.2348C25.1358 21.4406 25.1061 21.6497 25.0242 21.8402C24.3692 23.3718 22.6859 24.6914 20.9577 24.6283C19.8211 24.5867 16.6019 24.1419 13.2302 20.7719C9.86053 17.4004 9.41546 14.1821 9.37376 13.0453C9.31043 11.3136 10.6373 9.62971 12.1706 8.97305C12.3553 8.894 12.5579 8.86424 12.7575 8.88613Z" fill="white"/>
</svg>
